<?xml version="1.0" encoding="UTF-8" standalone="no"?>
<!-- Created with Inkscape (http://www.inkscape.org/) -->

<svg
   xmlns:dc="http://purl.org/dc/elements/1.1/"
   xmlns:cc="http://creativecommons.org/ns#"
   xmlns:rdf="http://www.w3.org/1999/02/22-rdf-syntax-ns#"
   xmlns:svg="http://www.w3.org/2000/svg"
   xmlns="http://www.w3.org/2000/svg"
   xmlns:xlink="http://www.w3.org/1999/xlink"
   xmlns:sodipodi="http://sodipodi.sourceforge.net/DTD/sodipodi-0.dtd"
   xmlns:inkscape="http://www.inkscape.org/namespaces/inkscape"
   width="1052.3622"
   height="744.09448"
   id="svg2"
   version="1.1"
   inkscape:version="0.48.5 r10040"
   sodipodi:docname="sampul-cd-1.svg">
  <defs
     id="defs4">
    <linearGradient
       inkscape:collect="always"
       id="linearGradient3995">
      <stop
         style="stop-color:#fc0;stop-opacity:1;"
         offset="0"
         id="stop3997" />
      <stop
         style="stop-color:#fc0;stop-opacity:0;"
         offset="1"
         id="stop3999" />
    </linearGradient>
    <linearGradient
       id="linearGradient3834">
      <stop
         style="stop-color:#f60;stop-opacity:1;"
         offset="0"
         id="stop3836" />
      <stop
         style="stop-color:#ff9700;stop-opacity:1;"
         offset="1"
         id="stop3838" />
    </linearGradient>
    <linearGradient
       inkscape:collect="always"
       xlink:href="#linearGradient4054"
       id="linearGradient4060"
       x1="367.69553"
       y1="-62.920948"
       x2="367.69553"
       y2="894.89014"
       gradientUnits="userSpaceOnUse" />
    <linearGradient
       id="linearGradient4054">
      <stop
         style="stop-color:#823202;stop-opacity:1;"
         offset="0"
         id="stop4056" />
      <stop
         style="stop-color:#ff8a00;stop-opacity:1;"
         offset="1"
         id="stop4058" />
    </linearGradient>
    <clipPath
       clipPathUnits="userSpaceOnUse"
       id="clipPath3895">
      <rect
         transform="matrix(0,1,-1,0,0,0)"
         style="fill:url(#linearGradient3899);fill-opacity:1;stroke:black;stroke-width:1.6844244"
         id="rect3897"
         width="423.51242"
         height="423.51242"
         x="344.41135"
         y="-893.69617" />
    </clipPath>
    <linearGradient
       inkscape:collect="always"
       xlink:href="#linearGradient3834"
       id="linearGradient3899"
       gradientUnits="userSpaceOnUse"
       gradientTransform="translate(-125.77237,-1238.1075)"
       x1="469.34149"
       y1="556.16754"
       x2="894.53833"
       y2="556.16754" />
    <clipPath
       clipPathUnits="userSpaceOnUse"
       id="clipPath3905">
      <rect
         transform="matrix(0,1,-1,0,0,0)"
         y="-468.4993"
         x="344.41135"
         height="423.51242"
         width="423.51242"
         id="rect3907"
         style="fill:url(#linearGradient3909);fill-opacity:1;stroke:black;stroke-width:1.6844244" />
    </clipPath>
    <linearGradient
       inkscape:collect="always"
       xlink:href="#linearGradient3834"
       id="linearGradient3909"
       gradientUnits="userSpaceOnUse"
       gradientTransform="translate(299.42447,-812.91064)"
       x1="44.144665"
       y1="556.16754"
       x2="469.34152"
       y2="556.16754" />
    <clipPath
       clipPathUnits="userSpaceOnUse"
       id="clipPath3921">
      <rect
         transform="matrix(0,1,-1,0,0,0)"
         style="fill:url(#linearGradient3925);fill-opacity:1;stroke:black;stroke-width:1.6844244"
         id="rect3923"
         width="423.51242"
         height="423.51242"
         x="344.41135"
         y="-893.69617" />
    </clipPath>
    <linearGradient
       inkscape:collect="always"
       xlink:href="#linearGradient3834"
       id="linearGradient3925"
       gradientUnits="userSpaceOnUse"
       gradientTransform="translate(-125.77237,-1238.1075)"
       x1="469.34149"
       y1="556.16754"
       x2="894.53833"
       y2="556.16754" />
    <clipPath
       clipPathUnits="userSpaceOnUse"
       id="clipPath3929">
      <rect
         transform="matrix(0,1,-1,0,0,0)"
         y="-468.4993"
         x="344.41135"
         height="423.51242"
         width="423.51242"
         id="rect3931"
         style="fill:url(#linearGradient3933);fill-opacity:1;stroke:black;stroke-width:1.6844244" />
    </clipPath>
    <linearGradient
       inkscape:collect="always"
       xlink:href="#linearGradient3834"
       id="linearGradient3933"
       gradientUnits="userSpaceOnUse"
       gradientTransform="translate(299.42447,-812.91064)"
       x1="44.144665"
       y1="556.16754"
       x2="469.34152"
       y2="556.16754" />
    <clipPath
       clipPathUnits="userSpaceOnUse"
       id="clipPath3939">
      <rect
         transform="matrix(0,1,-1,0,0,0)"
         style="fill:url(#linearGradient3943);fill-opacity:1;stroke:black;stroke-width:1.6844244"
         id="rect3941"
         width="423.51242"
         height="423.51242"
         x="344.41135"
         y="-893.69617" />
    </clipPath>
    <linearGradient
       inkscape:collect="always"
       xlink:href="#linearGradient3834"
       id="linearGradient3943"
       gradientUnits="userSpaceOnUse"
       gradientTransform="translate(-125.77237,-1238.1075)"
       x1="469.34149"
       y1="556.16754"
       x2="894.53833"
       y2="556.16754" />
    <clipPath
       clipPathUnits="userSpaceOnUse"
       id="clipPath3955">
      <rect
         transform="matrix(0,1,-1,0,0,0)"
         style="fill:url(#linearGradient3959);fill-opacity:1;stroke:none"
         id="rect3957"
         width="425.19684"
         height="425.19684"
         x="342.72693"
         y="-895.38062" />
    </clipPath>
    <linearGradient
       inkscape:collect="always"
       xlink:href="#linearGradient3834"
       id="linearGradient3959"
       gradientUnits="userSpaceOnUse"
       gradientTransform="matrix(1.0039773,0,0,1.0039773,-129.32685,-1241.1618)"
       x1="469.34149"
       y1="556.16754"
       x2="894.53833"
       y2="556.16754" />
    <linearGradient
       inkscape:collect="always"
       xlink:href="#linearGradient3995"
       id="linearGradient4001"
       x1="548.13464"
       y1="800.79932"
       x2="562.52838"
       y2="234.79932"
       gradientUnits="userSpaceOnUse" />
    <clipPath
       clipPathUnits="userSpaceOnUse"
       id="clipPath4007">
      <rect
         style="opacity:0.59241704;fill:#fc0;fill-opacity:1;stroke:none"
         id="rect4009"
         width="425.19684"
         height="425.19684"
         x="498.98688"
         y="327.53009" />
    </clipPath>
    <clipPath
       clipPathUnits="userSpaceOnUse"
       id="clipPath4013">
      <rect
         style="opacity:0.59241704;fill:#fc0;fill-opacity:1;stroke:none"
         id="rect4015"
         width="425.19684"
         height="425.19684"
         x="73.790016"
         y="326.72693" />
    </clipPath>
    <linearGradient
       inkscape:collect="always"
       xlink:href="#linearGradient3995"
       id="linearGradient4022"
       gradientUnits="userSpaceOnUse"
       x1="548.13464"
       y1="800.79932"
       x2="562.52838"
       y2="234.79932" />
    <linearGradient
       inkscape:collect="always"
       xlink:href="#linearGradient3834"
       id="linearGradient4081"
       gradientUnits="userSpaceOnUse"
       gradientTransform="matrix(1.0039773,0,0,1.0039773,281.56111,-844.76804)"
       x1="44.144665"
       y1="556.16754"
       x2="469.34152"
       y2="556.16754" />
    <linearGradient
       inkscape:collect="always"
       xlink:href="#linearGradient3995"
       id="linearGradient4083"
       gradientUnits="userSpaceOnUse"
       x1="548.13464"
       y1="800.79932"
       x2="562.52838"
       y2="234.79932" />
    <linearGradient
       inkscape:collect="always"
       xlink:href="#linearGradient3834"
       id="linearGradient4085"
       gradientUnits="userSpaceOnUse"
       gradientTransform="matrix(1.0039773,0,0,1.0039773,-144.52369,-1269.9648)"
       x1="469.34149"
       y1="556.16754"
       x2="894.53833"
       y2="556.16754" />
    <linearGradient
       inkscape:collect="always"
       xlink:href="#linearGradient3995"
       id="linearGradient4087"
       gradientUnits="userSpaceOnUse"
       x1="548.13464"
       y1="800.79932"
       x2="562.52838"
       y2="234.79932" />
  </defs>
  <sodipodi:namedview
     id="base"
     pagecolor="#ffffff"
     bordercolor="#666666"
     borderopacity="1.0"
     inkscape:pageopacity="0.0"
     inkscape:pageshadow="2"
     inkscape:zoom="0.5"
     inkscape:cx="512.79491"
     inkscape:cy="330.20022"
     inkscape:document-units="px"
     inkscape:current-layer="layer1"
     showgrid="false"
     inkscape:snap-bbox="true"
     inkscape:window-width="1366"
     inkscape:window-height="715"
     inkscape:window-x="0"
     inkscape:window-y="27"
     inkscape:window-maximized="1" />
  <metadata
     id="metadata7">
    <rdf:RDF>
      <cc:Work
         rdf:about="">
        <dc:format>image/svg+xml</dc:format>
        <dc:type
           rdf:resource="http://purl.org/dc/dcmitype/StillImage" />
        <dc:title></dc:title>
      </cc:Work>
    </rdf:RDF>
  </metadata>
  <g
     inkscape:label="Layer 1"
     inkscape:groupmode="layer"
     id="layer1"
     transform="translate(0,-308.2677)">
    <g
       id="g4047"
       transform="translate(14.142136,22.225836)">
      <rect
         transform="matrix(0,1,-1,0,0,0)"
         style="fill:url(#linearGradient4085);fill-opacity:1;stroke:none"
         id="rect3755"
         width="425.19684"
         height="425.19684"
         x="327.53009"
         y="-924.18372" />
      <path
         clip-path="url(#clipPath4007)"
         style="opacity:0.1;fill:url(#linearGradient4087);fill-opacity:1;stroke:none"
         d="m 518.81368,75.87031 -5.53571,977.85799 0.0358,0 63.6786,-975.57227 -58.17863,-2.28572 z m -5.50001,977.85799 0.0358,0 146.53577,-966.35798 -57.75005,-7.17857 -88.82153,973.53655 z m 0.0358,0 0.0358,0 230.96446,-949.42939 -56.8572,-12.25001 -174.14302,961.6794 z m -10.71432,-975.67941 -58.14292,2.25 63.53578,973.42941 0.17857,0 -5.57143,-975.67941 z m -83.32152,4.28572 -57.75005,7.21429 146.17871,964.1794 0.21429,0 -88.64295,-971.39369 z m -85.32151,11.85715 -56.92863,12.25001 230.46452,947.28653 0.14285,0 L 333.99208,94.19176 z m 434.92893,16.53573 -255.50024,943.00081 0.0358,0 311.10736,-925.96508 -55.64292,-17.03573 z m -516.39335,2.14286 -55.64291,17.03572 310.39316,923.82223 0.17857,0 L 252.5277,112.87035 z m 592.00058,21.92859 -330.9289,918.92936 0.0714,0 384.96471,-897.46505 -54.10721,-21.46431 z m -667.6078,2.14286 -54.10719,21.50002 384.03609,895.28648 0.21429,0 -330.14319,-916.7865 z m -80.21436,33.28575 -24.571447,12.39287 0,64.57149 434.321847,806.53639 0.25,0 L 96.70613,170.22755 z m 825.82224,2.60715 -408.82183,880.8936 0.10709,0 408.7147,-758.9292 0,-121.9644 z m -850.393687,114.82154 0,96.78576 433.857557,669.2863 0.39286,0 L 72.134684,287.65624 z m 850.393687,45.10716 -408.67898,720.9649 0.17858,0 408.5004,-630.1077 0,-90.8572 z m -850.393687,86.8929 0,75.1072 433.286127,558.9648 0.39286,0 -433.678976,-634.072 z m 850.393697,37.0358 -408.42897,597.0362 0.24999,0 408.17898,-526.5719 0,-70.4643 z m -850.393686,66.0715 0,60.6786 432.643276,470.2861 0.46429,0 L 72.134684,522.7636 z m 850.393686,30.6786 -408.07183,500.2861 0.21428,0 407.85755,-443.3218 0,-56.9643 z m -850.393686,54.5714 0,50.5358 431.928986,395.1789 0.5,0 L 72.134684,608.0136 z m 850.393686,25.4286 -407.78612,420.2861 0.32144,0 407.46468,-372.8218 0,-47.4643 z m -850.393686,46.7858 0,43.3214 430.786126,330.1789 0.75,0 L 72.134684,680.228 z m 850.393686,21 -407.2504,352.5003 0.42857,0 406.82183,-311.8217 0,-40.6786 z m -850.393686,35.5001 0,38.4642 429.643266,278.536 0.89286,0 L 72.134684,736.7281 z m 850.393686,17.5714 -406.71469,299.4288 0.53572,0 406.17897,-263.3217 0,-36.1071 z"
         id="path4005"
         inkscape:connector-curvature="0" />
      <path
         transform="matrix(1.0056374,0,0,1.0056374,26.152481,-18.96304)"
         clip-path="url(#clipPath3955)"
         sodipodi:nodetypes="cssssssssccsc"
         inkscape:connector-curvature="0"
         id="path3162"
         d="m 214.53362,506.75417 c 11.77699,-1.09479 94.21586,6.56876 100.63967,5.47397 6.42381,-1.09479 44.96665,1.09479 47.10791,6.56887 2.14129,5.47397 28.09369,16.91244 34.26032,22.99089 19.55788,19.27784 101.99359,13.20817 113.72401,12.03179 11.76908,-1.18037 55.35598,-16.76374 67.34234,-13.1267 17.06471,5.17805 47.73477,21.3724 54.40874,24.08568 28.8236,11.71821 36.45237,31.56385 86.78596,35.03362 22.8997,1.57872 83.70321,-8.84643 116.76376,-10.96993 20.74711,-1.33271 49.9363,27.39194 57.43073,29.58164 l 0,148.94003 -690.24041,0 c -5.35316,0 11.77697,-260.60986 11.77697,-260.60986 z"
         style="fill:#e55b00;fill-opacity:1;stroke:none" />
      <path
         transform="matrix(1.0066899,0,0,1.0066899,25.657632,-19.77058)"
         clip-path="url(#clipPath3939)"
         sodipodi:nodetypes="ccsssssssssssscccssszcscssscsscccc"
         inkscape:connector-curvature="0"
         id="path3141"
         d="m 45.131057,397.60905 c 6.955219,8.92197 11.880273,24.05514 20.865669,26.76591 0,0 32.636041,7.49446 41.196324,13.91817 8.56026,6.42393 22.14493,17.15229 29.42593,19.27146 7.08845,2.06322 21.79261,-1.01458 32.63604,1.60595 3.96067,0.95727 12.84041,9.10042 17.12054,11.24169 4.28015,2.14127 22.30976,14.87656 34.68469,23.96558 3.11338,2.28667 40.44394,10.83775 44.49785,12.43607 5.49802,2.16759 17.12054,16.05944 24.07576,18.20071 6.95523,2.14127 19.79565,10.70637 26.75087,20.87742 6.95521,10.17105 23.54074,9.63573 33.70607,10.17105 10.16532,0.53531 25.1458,2.67659 34.24109,6.95913 9.09531,4.28244 8.56027,17.6654 24.61079,23.5539 16.05052,5.8885 41.5077,10.3537 43.8714,9.10041 9.02539,-4.78562 16.58554,-12.84764 16.58554,-12.84764 27.12441,-6.97407 53.46362,-4.53027 79.18253,5.35318 4.95018,2.06311 11.10179,10.31964 16.58553,15.52424 2.2083,3.67612 18.40198,8.03752 25.68083,6.95914 5.44891,-0.80731 18.29755,-2.83715 21.50765,-1.23131 3.21009,1.60596 20.24652,13.13114 23.96884,13.54363 2.51191,0.27825 27.62097,-1.86894 30.08142,-1.50192 2.46043,0.36713 12.06809,8.75709 14.55223,13.7927 4.51267,2.93617 12.59443,7.64407 15.82328,8.0512 2.46007,0.31016 9.24386,-1.01002 13.05442,0.13389 6.4229,1.34388 6.22352,6.47361 11.55639,7.36057 5.82947,0.96968 14.44546,-1.60596 20.33061,0.53532 5.88522,2.14127 31.03106,19.27995 34.24116,19.2714 3.19589,-0.0114 29.27225,-4.44532 34.24105,-4.81781 5.19074,-0.31312 23.00669,18.2002 26.7509,19.80661 3.74475,1.60676 33.70607,-1.60584 38.52125,-1.60584 4.81511,0 17.07727,17.13019 17.07727,17.13019 l 0,66.18064 -847.423923,0 z"
         style="fill:#4c1f00;fill-opacity:1;stroke:none" />
      <g
         transform="translate(581.0056,335.95561)"
         id="g6984">
        <g
           style="fill:white;fill-opacity:1"
           id="g3115"
           transform="matrix(0.39910477,0,0,0.39910477,-3.3727135,-151.30349)">
          <path
             transform="translate(0,152.36218)"
             id="path3000"
             d="m 638.875,263.59375 44.28125,66.34375 c 6.24987,-7.52737 14.55379,-13.26377 24.0625,-16.375 l -33.5,-49.96875 -34.84375,0 z m 133.90625,0 L 739.375,313.375 c 9.559,3.01318 17.92143,8.68958 24.25,16.15625 l 44,-65.9375 -34.84375,0 z M 683.25,397.0625 l -48.375,72.09375 34.84375,1.03125 37.875,-56.71875 C 697.97022,410.40119 689.57326,404.63932 683.25,397.0625 z m 80.28125,0.40625 c -6.39368,7.50507 -14.84276,13.18471 -24.5,16.15625 l 37.75,56.5625 34.84375,-1.03125 -48.09375,-71.6875 z"
             style="fill:white;fill-opacity:1;stroke:none"
             inkscape:connector-curvature="0" />
          <path
             transform="translate(0,152.36218)"
             id="path3008"
             d="m 723.5625,317.4375 c -25.4051,0 -46,20.5949 -46,46 0,25.4051 20.5949,46 46,46 25.4051,0 46,-20.5949 46,-46 0,-25.4051 -20.5949,-46 -46,-46 z m 0,9.5 c 2.5198,0 4.96769,0.26379 7.34375,0.75 -0.33328,-0.0682 -0.69473,-0.0347 -1.03125,-0.0937 l -6.625,9.84375 -6.5625,-9.8125 c -0.15283,0.0292 -0.31661,0.0314 -0.46875,0.0625 2.37606,-0.48621 4.82395,-0.75 7.34375,-0.75 z m -30.28125,16.09375 c -0.24516,0.36288 -0.39271,0.78423 -0.625,1.15625 l 13,19.46875 L 692.75,382.875 c 0.0985,0.15575 0.16757,0.33488 0.25,0.5 -3.74894,-5.7337 -5.9375,-12.57566 -5.9375,-19.9375 0,-7.5594 2.28316,-14.58081 6.21875,-20.40625 z m 60.5625,0 c 3.93559,5.82544 6.21875,12.84685 6.21875,20.40625 0,7.5594 -2.28316,14.58081 -6.21875,20.40625 0.094,-0.13908 0.15791,-0.29706 0.25,-0.4375 l -13.25,-19.75 13.34375,-20 c -0.12927,-0.19964 -0.21071,-0.42807 -0.34375,-0.625 z M 723.25,390 l 6.21875,9.34375 c 0.47168,-0.0773 0.97209,-0.061 1.4375,-0.15625 -2.37606,0.48621 -4.82395,0.75 -7.34375,0.75 -2.5198,0 -4.96769,-0.26379 -7.34375,-0.75 0.27324,0.0559 0.56832,0.044 0.84375,0.0937 L 723.25,390 z"
             style="fill:white;fill-opacity:1;stroke:none"
             inkscape:connector-curvature="0" />
        </g>
        <g
           id="g6969"
           transform="translate(0,-1.7852829)">
          <text
             sodipodi:linespacing="125%"
             id="text3111"
             y="85.671921"
             x="73.49971"
             style="font-size:29.44900513px;font-style:normal;font-weight:normal;line-height:125%;letter-spacing:14.39000034px;word-spacing:0px;fill:white;fill-opacity:1;stroke:none;font-family:Sans"
             xml:space="preserve"><tspan
               style="font-size:20px;font-style:normal;font-variant:normal;font-weight:normal;font-stretch:normal;letter-spacing:14.39000034px;word-spacing:1px;fill:white;fill-opacity:1;font-family:AvantGarde LT ExtraLight;-inkscape-font-specification:AvantGarde LT ExtraLight"
               y="85.671921"
               x="73.49971"
               id="tspan3113"
               sodipodi:role="line">TAMBORA</tspan></text>
          <g
             transform="matrix(0.62538058,0,0,0.62538058,-298.01066,-356.90862)"
             id="g6062">
            <path
               inkscape:export-ydpi="285.01001"
               inkscape:export-xdpi="285.01001"
               inkscape:export-filename="/home/mdamt/rect4269.png"
               inkscape:connector-curvature="0"
               id="path6064"
               d="m 551.87134,647.57538 c 0,11.40027 -9.24174,20.64202 -20.64204,20.64202 -11.40026,0 -20.642,-9.24175 -20.642,-20.64202 0,-11.40027 9.24174,-20.64202 20.642,-20.64202 11.4003,0 20.64204,9.24175 20.64204,20.64202 z"
               style="fill:none;stroke:white;stroke-width:10.60067558;stroke-miterlimit:4;stroke-dasharray:none" />
            <path
               inkscape:export-ydpi="285.01001"
               inkscape:export-xdpi="285.01001"
               inkscape:connector-curvature="0"
               id="path6066"
               d="m 561.12004,626.61142 0.48451,0 0,44.30357 -0.48451,0 z"
               style="fill:black;fill-opacity:0;stroke:red;stroke-width:8.62159538;stroke-linecap:round;stroke-linejoin:round;stroke-miterlimit:4;stroke-opacity:1" />
            <g
               style="fill:white;stroke:none"
               id="g6068">
              <path
                 d="m 613.18495,626.7424 -8.64546,0 0,16.27379 c 0.11299,3e-5 0.64981,3e-5 1.61045,0 0.96065,-0.0565 1.86468,-0.0848 2.71234,-0.0848 0.90403,-0.0565 2.11891,-0.14123 3.64462,-0.25427 1.5822,-0.16949 2.79707,-0.339 3.64461,-0.50856 0.90415,-0.22599 1.92118,-0.56503 3.05142,-1.01712 1.18651,-0.45201 2.06241,-0.98882 2.62748,-1.61042 1.4691,-1.46913 2.20376,-3.27733 2.20376,-5.4246 0,-3.61635 -2.03428,-5.90485 -6.10272,-6.8655 -1.35611,-0.339 -2.93831,-0.50852 -4.7465,-0.50856 m 0.59331,22.88503 -9.23877,0.50855 0,17.03662 8.30649,0 c 3.67286,10e-6 6.24385,-0.1695 7.71306,-0.50854 1.5256,-0.33903 2.82532,-0.70633 3.89896,-1.10188 1.07352,-0.45204 1.92117,-0.96059 2.54273,-1.52567 1.58221,-1.35613 2.37325,-3.10782 2.37325,-5.25508 0,-2.82529 -1.41272,-5.05728 -4.23793,-6.69599 -2.76882,-1.63865 -6.55479,-2.458 -11.35779,-2.45801 m -19.66417,-31.70001 21.18988,0 c 5.53755,6e-5 9.83208,0.93242 12.88339,2.79707 2.99481,1.80825 5.00073,3.84247 6.01798,6.10266 0.96053,2.2038 1.41261,4.23802 1.35611,6.10268 0,1.86475 -0.50857,3.78596 -1.52571,5.76364 -0.96064,1.92124 -2.23201,3.53167 -3.8141,4.83128 4.5769,1.86473 7.57171,5.22685 8.98443,10.08636 0.39546,1.52569 0.59331,3.0231 0.59331,4.49224 0,1.41267 -0.16948,2.82534 -0.50857,4.23798 -0.33908,1.41266 -1.10188,3.02309 -2.2885,4.83127 -1.13014,1.7517 -2.59924,3.33389 -4.40742,4.74654 -1.8083,1.35614 -4.35104,2.51452 -7.62832,3.47513 -3.22091,0.90409 -6.92213,1.35614 -11.10357,1.35614 l -19.74891,0 0,-58.82299"
                 style="font-size:75.31466675px;font-style:normal;font-weight:bold;line-height:125%;letter-spacing:0px;word-spacing:0px;fill:white;stroke:none;font-family:Sans;-inkscape-font-specification:Sans Bold"
                 id="path6070"
                 inkscape:connector-curvature="0" />
              <path
                 d="m 661.60117,637.76111 c 5.31156,-1.80816 10.19941,-2.71226 14.66344,-2.71229 4.5204,3e-5 8.05203,0.39558 10.59488,1.18662 2.59923,0.79113 4.54865,1.92126 5.84838,3.39038 2.42975,2.65583 3.64462,6.1027 3.64462,10.34064 l 0,26.78395 -7.62832,0 -1.10189,-2.7123 c -3.72947,2.37326 -7.9109,3.5599 -12.54441,3.5599 -6.4417,0 -11.30118,-1.83646 -14.57859,-5.50936 -1.75169,-2.03422 -2.62748,-4.18145 -2.62748,-6.44171 0,-2.09072 0.28248,-3.84241 0.84755,-5.25508 0.56506,-1.46915 1.49746,-2.65577 2.79707,-3.5599 1.29962,-0.96058 2.68409,-1.72341 4.15319,-2.2885 1.46922,-0.62155 3.39039,-1.0736 5.76364,-1.35615 3.84246,-0.45202 8.75845,-0.67805 14.74818,-0.67807 l 0,-0.59332 c -1.1e-4,-3.72938 -1.52571,-6.10264 -4.57701,-7.11979 -1.41272,-0.45201 -3.50349,-0.67804 -6.27221,-0.67807 -2.76883,3e-5 -6.58305,0.59335 -11.44254,1.77994 l -1.61045,0.50856 -2.11891,-8.22165 1.44086,-0.4238 m 24.58026,28.39439 0,-5.93316 -1.01714,0 c -6.21571,2e-5 -10.5385,0.25429 -12.96824,0.76283 -2.37325,0.50857 -3.55988,1.75171 -3.55988,3.72942 0,1.29965 0.7628,2.31676 2.28851,3.05133 1.5822,0.73459 3.87071,1.10188 6.86552,1.10188 2.99481,0 5.79189,-0.9041 8.39123,-2.7123"
                 style="font-size:75.31466675px;font-style:normal;font-weight:bold;line-height:125%;letter-spacing:0px;word-spacing:0px;fill:white;stroke:none;font-family:Sans;-inkscape-font-specification:Sans Bold"
                 id="path6072"
                 inkscape:connector-curvature="0" />
              <path
                 d="m 700.49172,635.8964 7.11975,0 1.35611,2.79707 c 5.31157,-2.42974 10.11467,-3.64462 14.4091,-3.64465 7.00675,3e-5 11.52728,2.59932 13.56155,7.79785 1.01703,2.59932 1.55384,5.84842 1.61034,9.74733 l 0,24.15641 -10.2558,0 0,-23.9869 c -1.1e-4,-2.88178 -0.62167,-4.94426 -1.86467,-6.18742 -1.29974,-1.35613 -3.36226,-2.03419 -6.18747,-2.03423 -2.76883,4e-5 -5.96148,0.76287 -9.57786,2.2885 l 0,29.92005 -10.17105,0 0,-40.85401"
                 style="font-size:75.31466675px;font-style:normal;font-weight:bold;line-height:125%;letter-spacing:0px;word-spacing:0px;fill:white;stroke:none;font-family:Sans;-inkscape-font-specification:Sans Bold"
                 id="path6074"
                 inkscape:connector-curvature="0" />
              <path
                 d="m 753.07741,652.25496 17.63,-17.20614 12.20534,0 -20.17274,18.73181 20.85079,22.96978 -12.54442,0 -17.96897,-20.34224 0,20.34224 -10.17116,0 0,-58.82299 10.17116,0 0,34.32754"
                 style="font-size:75.31466675px;font-style:normal;font-weight:bold;line-height:125%;letter-spacing:0px;word-spacing:0px;fill:white;stroke:none;font-family:Sans;-inkscape-font-specification:Sans Bold"
                 id="path6076"
                 inkscape:connector-curvature="0" />
              <path
                 d="m 810.74543,621.83572 c 5.42455,6e-5 10.31229,1.18669 14.66332,3.5599 4.35092,2.3168 7.7978,5.73542 10.34066,10.25587 2.59922,4.52054 3.89884,9.71911 3.89895,15.59573 -1.1e-4,9.04101 -2.76894,16.41507 -8.30648,22.12219 -5.48117,5.65063 -12.45968,8.47592 -20.93554,8.47592 -7.51533,0 -14.09837,-2.45801 -19.74891,-7.37405 -2.71233,-2.37325 -4.88785,-5.50934 -6.52643,-9.40829 -1.63871,-3.89891 -2.45811,-8.24989 -2.45811,-13.05294 0,-9.04096 2.74058,-16.33025 8.22174,-21.86791 5.53755,-5.53756 12.48781,-8.30636 20.8508,-8.30642 m 6.18735,10.76443 c -2.14727,-0.79103 -4.35092,-1.18658 -6.61118,-1.18662 -2.20376,4e-5 -4.35103,0.39559 -6.44169,1.18662 -2.09078,0.79114 -4.01196,1.94952 -5.76365,3.47514 -1.75169,1.52572 -3.1644,3.58819 -4.23804,6.18743 -1.01703,2.59933 -1.5256,5.5659 -1.5256,8.89973 0,6.38523 1.77994,11.5273 5.33982,15.4262 3.55988,3.84244 7.99565,5.76365 13.30721,5.76364 4.57702,10e-6 8.61721,-1.58216 12.12059,-4.74652 1.75169,-1.58216 3.1643,-3.7294 4.23793,-6.44171 1.07364,-2.71227 1.61045,-5.79186 1.61045,-9.23877 0,-3.50335 -0.56506,-6.6112 -1.69519,-9.32353 -1.07363,-2.71226 -2.54285,-4.85949 -4.40741,-6.44171 -1.8083,-1.58213 -3.78597,-2.76876 -5.93324,-3.5599"
                 style="font-size:75.31466675px;font-style:normal;font-weight:bold;line-height:125%;letter-spacing:0px;word-spacing:0px;fill:white;stroke:none;font-family:Sans;-inkscape-font-specification:Sans Bold"
                 id="path6078"
                 inkscape:connector-curvature="0" />
              <path
                 d="m 842.37038,635.8964 7.11986,0 1.35611,2.79707 c 5.31156,-2.42974 10.11454,-3.64462 14.40911,-3.64465 7.00676,3e-5 11.52726,2.59932 13.56141,7.79785 1.01717,2.59932 1.55395,5.84842 1.61045,9.74733 l 0,24.15641 -10.25589,0 0,-23.9869 c 0,-2.88178 -0.62155,-4.94426 -1.8647,-6.18742 -1.2996,-1.35613 -3.36212,-2.03419 -6.18735,-2.03423 -2.76881,4e-5 -5.96147,0.76287 -9.57784,2.2885 l 0,29.92005 -10.17116,0 0,-40.85401"
                 style="font-size:75.31466675px;font-style:normal;font-weight:bold;line-height:125%;letter-spacing:0px;word-spacing:0px;fill:white;stroke:none;font-family:Sans;-inkscape-font-specification:Sans Bold"
                 id="path6080"
                 inkscape:connector-curvature="0" />
              <rect
                 style="fill:white;stroke:none"
                 id="rect6082"
                 width="11.269748"
                 height="59.154606"
                 x="643.2619"
                 y="617.88428"
                 ry="1.3444229" />
            </g>
          </g>
        </g>
      </g>
    </g>
    <g
       id="g4071"
       transform="translate(12.142136,23.028998)">
      <rect
         transform="matrix(0,1,-1,0,0,0)"
         y="-498.98688"
         x="326.72693"
         height="425.19684"
         width="425.19684"
         id="rect2985"
         style="fill:url(#linearGradient4081);fill-opacity:1;stroke:none" />
      <path
         clip-path="url(#clipPath4013)"
         inkscape:connector-curvature="0"
         id="path6881"
         d="m 518.81368,75.87031 -5.53571,977.85799 0.0358,0 63.6786,-975.57227 -58.17863,-2.28572 z m -5.50001,977.85799 0.0358,0 146.53577,-966.35798 -57.75005,-7.17857 -88.82153,973.53655 z m 0.0358,0 0.0358,0 230.96446,-949.42939 -56.8572,-12.25001 -174.14302,961.6794 z m -10.71432,-975.67941 -58.14292,2.25 63.53578,973.42941 0.17857,0 -5.57143,-975.67941 z m -83.32152,4.28572 -57.75005,7.21429 146.17871,964.1794 0.21429,0 -88.64295,-971.39369 z m -85.32151,11.85715 -56.92863,12.25001 230.46452,947.28653 0.14285,0 L 333.99208,94.19176 z m 434.92893,16.53573 -255.50024,943.00081 0.0358,0 311.10736,-925.96508 -55.64292,-17.03573 z m -516.39335,2.14286 -55.64291,17.03572 310.39316,923.82223 0.17857,0 L 252.5277,112.87035 z m 592.00058,21.92859 -330.9289,918.92936 0.0714,0 384.96471,-897.46505 -54.10721,-21.46431 z m -667.6078,2.14286 -54.10719,21.50002 384.03609,895.28648 0.21429,0 -330.14319,-916.7865 z m -80.21436,33.28575 -24.571447,12.39287 0,64.57149 434.321847,806.53639 0.25,0 L 96.70613,170.22755 z m 825.82224,2.60715 -408.82183,880.8936 0.10709,0 408.7147,-758.9292 0,-121.9644 z m -850.393687,114.82154 0,96.78576 433.857557,669.2863 0.39286,0 L 72.134684,287.65624 z m 850.393687,45.10716 -408.67898,720.9649 0.17858,0 408.5004,-630.1077 0,-90.8572 z m -850.393687,86.8929 0,75.1072 433.286127,558.9648 0.39286,0 -433.678976,-634.072 z m 850.393697,37.0358 -408.42897,597.0362 0.24999,0 408.17898,-526.5719 0,-70.4643 z m -850.393686,66.0715 0,60.6786 432.643276,470.2861 0.46429,0 L 72.134684,522.7636 z m 850.393686,30.6786 -408.07183,500.2861 0.21428,0 407.85755,-443.3218 0,-56.9643 z m -850.393686,54.5714 0,50.5358 431.928986,395.1789 0.5,0 L 72.134684,608.0136 z m 850.393686,25.4286 -407.78612,420.2861 0.32144,0 407.46468,-372.8218 0,-47.4643 z m -850.393686,46.7858 0,43.3214 430.786126,330.1789 0.75,0 L 72.134684,680.228 z m 850.393686,21 -407.2504,352.5003 0.42857,0 406.82183,-311.8217 0,-40.6786 z m -850.393686,35.5001 0,38.4642 429.643266,278.536 0.89286,0 L 72.134684,736.7281 z m 850.393686,17.5714 -406.71469,299.4288 0.53572,0 406.17897,-263.3217 0,-36.1071 z"
         style="opacity:0.1;fill:url(#linearGradient4083);fill-opacity:1;stroke:none" />
      <path
         transform="translate(30.487568,-15.440263)"
         clip-path="url(#clipPath3905)"
         style="fill:#e55b00;fill-opacity:1;stroke:none"
         d="m 214.53362,506.75417 c 11.77699,-1.09479 94.21586,6.56876 100.63967,5.47397 6.42381,-1.09479 44.96665,1.09479 47.10791,6.56887 2.14129,5.47397 28.09369,16.91244 34.26032,22.99089 19.55788,19.27784 101.99359,13.20817 113.72401,12.03179 11.76908,-1.18037 55.35598,-16.76374 67.34234,-13.1267 17.06471,5.17805 47.73477,21.3724 54.40874,24.08568 28.8236,11.71821 36.45237,31.56385 86.78596,35.03362 22.8997,1.57872 83.70321,-8.84643 116.76376,-10.96993 20.74711,-1.33271 49.9363,27.39194 57.43073,29.58164 0.0753,26.57506 0,148.94003 0,148.94003 l -690.24041,0 c -5.35316,0 11.77697,-260.60986 11.77697,-260.60986 z"
         id="path3893"
         inkscape:connector-curvature="0"
         sodipodi:nodetypes="cssssssssccsc" />
      <path
         transform="matrix(1.0043192,0,0,1.0043192,28.464026,-18.754617)"
         clip-path="url(#clipPath3929)"
         style="fill:#4c1f00;fill-opacity:1;stroke:none"
         d="m 45.131057,397.60905 c 6.955219,8.92197 11.880273,24.05514 20.865669,26.76591 0,0 32.636041,7.49446 41.196324,13.91817 8.56026,6.42393 22.14493,17.15229 29.42593,19.27146 7.08845,2.06322 21.79261,-1.01458 32.63604,1.60595 3.96067,0.95727 12.84041,9.10042 17.12054,11.24169 4.28015,2.14127 22.30976,14.87656 34.68469,23.96558 3.11338,2.28667 40.44394,10.83775 44.49785,12.43607 5.49802,2.16759 17.12054,16.05944 24.07576,18.20071 6.95523,2.14127 19.79565,10.70637 26.75087,20.87742 6.95521,10.17105 23.54074,9.63573 33.70607,10.17105 10.16532,0.53531 25.1458,2.67659 34.24109,6.95913 9.09531,4.28244 8.56027,17.6654 24.61079,23.5539 16.05052,5.8885 41.5077,10.3537 43.8714,9.10041 9.02539,-4.78562 16.58554,-12.84764 16.58554,-12.84764 27.12441,-6.97407 53.46362,-4.53027 79.18253,5.35318 4.95018,2.06311 11.10179,10.31964 16.58553,15.52424 2.2083,3.67612 18.40198,8.03752 25.68083,6.95914 5.44891,-0.80731 18.29755,-2.83715 21.50765,-1.23131 3.21009,1.60596 20.24652,13.13114 23.96884,13.54363 2.51191,0.27825 27.62097,-1.86894 30.08142,-1.50192 2.46043,0.36713 12.06809,8.75709 14.55223,13.7927 4.51267,2.93617 12.59443,7.64407 15.82328,8.0512 2.46007,0.31016 9.24386,-1.01002 13.05442,0.13389 6.4229,1.34388 6.22352,6.47361 11.55639,7.36057 5.82947,0.96968 14.44546,-1.60596 20.33061,0.53532 5.88522,2.14127 31.03106,19.27995 34.24116,19.2714 3.19589,-0.0114 29.27225,-4.44532 34.24105,-4.81781 5.19074,-0.31312 23.00669,18.2002 26.7509,19.80661 3.74475,1.60676 33.70607,-1.60584 38.52125,-1.60584 4.81511,0 17.07727,17.13019 17.07727,17.13019 0,0 1.07004,68.3218 0,66.18064 l -847.423923,0 z"
         id="path3919"
         inkscape:connector-curvature="0"
         sodipodi:nodetypes="ccsssssssssssscccssszcscssscsscccc" />
    </g>
    <text
       xml:space="preserve"
       style="font-size:14px;font-style:normal;font-weight:normal;line-height:125%;letter-spacing:0px;word-spacing:0px;fill:black;fill-opacity:1;stroke:none;font-family:Sans"
       x="642"
       y="826.36218"
       id="text4118"
       sodipodi:linespacing="125%"><tspan
         sodipodi:role="line"
         id="tspan4120"
         x="642"
         y="826.36218"
         style="font-size:32px">Sampul depan</tspan></text>
    <text
       sodipodi:linespacing="125%"
       id="text4126"
       y="826.36218"
       x="210"
       style="font-size:14px;font-style:normal;font-weight:normal;line-height:125%;letter-spacing:0px;word-spacing:0px;fill:black;fill-opacity:1;stroke:none;font-family:Sans"
       xml:space="preserve"><tspan
         style="font-size:32px"
         y="826.36218"
         x="210"
         id="tspan4128"
         sodipodi:role="line">Sampul belakang</tspan></text>
  </g>
</svg>
