<?xml version="1.0" encoding="UTF-8" standalone="no"?>
<!-- Created with Inkscape (http://www.inkscape.org/) -->

<svg
   xmlns:dc="http://purl.org/dc/elements/1.1/"
   xmlns:cc="http://creativecommons.org/ns#"
   xmlns:rdf="http://www.w3.org/1999/02/22-rdf-syntax-ns#"
   xmlns:svg="http://www.w3.org/2000/svg"
   xmlns="http://www.w3.org/2000/svg"
   xmlns:xlink="http://www.w3.org/1999/xlink"
   xmlns:sodipodi="http://sodipodi.sourceforge.net/DTD/sodipodi-0.dtd"
   xmlns:inkscape="http://www.inkscape.org/namespaces/inkscape"
   width="744.09448819"
   height="1052.3622047"
   id="svg4149"
   version="1.1"
   inkscape:version="0.48.5 r10040"
   sodipodi:docname="New document 6">
  <defs
     id="defs4151">
    <linearGradient
       inkscape:collect="always"
       id="linearGradient4920">
      <stop
         style="stop-color:#fc0;stop-opacity:1;"
         offset="0"
         id="stop4922" />
      <stop
         style="stop-color:#fc0;stop-opacity:0;"
         offset="1"
         id="stop4924" />
    </linearGradient>
    <linearGradient
       id="linearGradient3834">
      <stop
         style="stop-color:#f60;stop-opacity:1;"
         offset="0"
         id="stop3836" />
      <stop
         style="stop-color:#ff9700;stop-opacity:1;"
         offset="1"
         id="stop3838" />
    </linearGradient>
    <linearGradient
       inkscape:collect="always"
       xlink:href="#linearGradient3995"
       id="linearGradient4083"
       gradientUnits="userSpaceOnUse"
       x1="548.13464"
       y1="800.79932"
       x2="562.52838"
       y2="234.79932" />
    <linearGradient
       inkscape:collect="always"
       id="linearGradient3995">
      <stop
         style="stop-color:#fc0;stop-opacity:1;"
         offset="0"
         id="stop3997" />
      <stop
         style="stop-color:#fc0;stop-opacity:0;"
         offset="1"
         id="stop3999" />
    </linearGradient>
    <clipPath
       clipPathUnits="userSpaceOnUse"
       id="clipPath4013">
      <rect
         style="opacity:0.59241704;fill:#fc0;fill-opacity:1;stroke:none"
         id="rect4015"
         width="425.19684"
         height="425.19684"
         x="73.790016"
         y="326.72693" />
    </clipPath>
    <clipPath
       clipPathUnits="userSpaceOnUse"
       id="clipPath3905">
      <rect
         transform="matrix(0,1,-1,0,0,0)"
         y="-468.4993"
         x="344.41135"
         height="423.51242"
         width="423.51242"
         id="rect3907"
         style="fill:url(#linearGradient3909);fill-opacity:1;stroke:black;stroke-width:1.6844244" />
    </clipPath>
    <clipPath
       clipPathUnits="userSpaceOnUse"
       id="clipPath3929">
      <rect
         transform="matrix(0,1,-1,0,0,0)"
         y="-468.4993"
         x="344.41135"
         height="423.51242"
         width="423.51242"
         id="rect3931"
         style="fill:url(#linearGradient3933);fill-opacity:1;stroke:black;stroke-width:1.6844244" />
    </clipPath>
    <linearGradient
       id="linearGradient3834-6">
      <stop
         style="stop-color:#f60;stop-opacity:1;"
         offset="0"
         id="stop3836-1" />
      <stop
         style="stop-color:#ff9700;stop-opacity:1;"
         offset="1"
         id="stop3838-4" />
    </linearGradient>
    <linearGradient
       inkscape:collect="always"
       xlink:href="#linearGradient3995-2"
       id="linearGradient4087"
       gradientUnits="userSpaceOnUse"
       x1="548.13464"
       y1="800.79932"
       x2="562.52838"
       y2="234.79932" />
    <linearGradient
       inkscape:collect="always"
       id="linearGradient3995-2">
      <stop
         style="stop-color:#fc0;stop-opacity:1;"
         offset="0"
         id="stop3997-8" />
      <stop
         style="stop-color:#fc0;stop-opacity:0;"
         offset="1"
         id="stop3999-8" />
    </linearGradient>
    <linearGradient
       inkscape:collect="always"
       xlink:href="#linearGradient3834-6"
       id="linearGradient4371"
       gradientUnits="userSpaceOnUse"
       gradientTransform="matrix(1.0039773,0,0,1.0039773,-32.29002,-878.37951)"
       x1="469.34149"
       y1="556.16754"
       x2="894.53833"
       y2="556.16754" />
    <linearGradient
       inkscape:collect="always"
       xlink:href="#linearGradient3834-6"
       id="linearGradient4887"
       x1="366.54562"
       y1="425.59955"
       x2="366.54562"
       y2="31.031075"
       gradientUnits="userSpaceOnUse"
       gradientTransform="translate(20,40)" />
    <clipPath
       clipPathUnits="userSpaceOnUse"
       id="clipPath4893">
      <path
         inkscape:connector-curvature="0"
         id="path4895"
         d="m 363.54618,9.9896019 c -115.45795,0 -209.0625,93.6045481 -209.0625,209.0624981 0,115.45795 93.60455,209.03125 209.0625,209.03125 115.45795,0 209.0625,-93.5733 209.0625,-209.03125 0,-115.45795 -93.60455,-209.0624981 -209.0625,-209.0624981 z m 0,141.7187481 c 37.18137,0 67.3125,30.16238 67.3125,67.34375 0,37.18137 -30.13113,67.3125 -67.3125,67.3125 -37.18137,0 -67.34375,-30.13113 -67.34375,-67.3125 0,-37.18137 30.16238,-67.34375 67.34375,-67.34375 z"
         style="fill:url(#linearGradient4897);fill-opacity:1;stroke:black" />
    </clipPath>
    <linearGradient
       inkscape:collect="always"
       xlink:href="#linearGradient3834-6"
       id="linearGradient4897"
       gradientUnits="userSpaceOnUse"
       x1="366.54562"
       y1="425.59955"
       x2="366.54562"
       y2="31.031075" />
    <clipPath
       clipPathUnits="userSpaceOnUse"
       id="clipPath4901">
      <path
         inkscape:connector-curvature="0"
         id="path4903"
         d="m 363.54618,9.9896019 c -115.45795,0 -209.0625,93.6045481 -209.0625,209.0624981 0,115.45795 93.60455,209.03125 209.0625,209.03125 115.45795,0 209.0625,-93.5733 209.0625,-209.03125 0,-115.45795 -93.60455,-209.0624981 -209.0625,-209.0624981 z m 0,141.7187481 c 37.18137,0 67.3125,30.16238 67.3125,67.34375 0,37.18137 -30.13113,67.3125 -67.3125,67.3125 -37.18137,0 -67.34375,-30.13113 -67.34375,-67.3125 0,-37.18137 30.16238,-67.34375 67.34375,-67.34375 z"
         style="fill:url(#linearGradient4905);fill-opacity:1;stroke:black" />
    </clipPath>
    <linearGradient
       inkscape:collect="always"
       xlink:href="#linearGradient3834-6"
       id="linearGradient4905"
       gradientUnits="userSpaceOnUse"
       x1="366.54562"
       y1="425.59955"
       x2="366.54562"
       y2="31.031075" />
    <linearGradient
       inkscape:collect="always"
       xlink:href="#linearGradient3834-6"
       id="linearGradient4912"
       gradientUnits="userSpaceOnUse"
       x1="366.54562"
       y1="425.59955"
       x2="366.54562"
       y2="31.031075"
       gradientTransform="translate(-624.9428,115.13935)" />
    <clipPath
       clipPathUnits="userSpaceOnUse"
       id="clipPath4914">
      <path
         inkscape:connector-curvature="0"
         id="path4916"
         d="m -261.39662,125.12895 c -115.45795,0 -209.0625,93.60455 -209.0625,209.0625 0,115.45795 93.60455,209.03125 209.0625,209.03125 115.45795,0 209.062495,-93.5733 209.062495,-209.03125 0,-115.45795 -93.604545,-209.0625 -209.062495,-209.0625 z m 0,141.71875 c 37.18137,0 67.3125,30.16238 67.3125,67.34375 0,37.18137 -30.13113,67.3125 -67.3125,67.3125 -37.18137,0 -67.34375,-30.13113 -67.34375,-67.3125 0,-37.18137 30.16238,-67.34375 67.34375,-67.34375 z"
         style="fill:url(#linearGradient4918);fill-opacity:1;stroke:black" />
    </clipPath>
    <linearGradient
       inkscape:collect="always"
       xlink:href="#linearGradient3834-6"
       id="linearGradient4918"
       gradientUnits="userSpaceOnUse"
       gradientTransform="translate(-624.9428,115.13935)"
       x1="366.54562"
       y1="425.59955"
       x2="366.54562"
       y2="31.031075" />
    <linearGradient
       inkscape:collect="always"
       xlink:href="#linearGradient4920"
       id="linearGradient4926"
       x1="-254.74483"
       y1="429.89014"
       x2="-265.19125"
       y2="45.604412"
       gradientUnits="userSpaceOnUse" />
  </defs>
  <sodipodi:namedview
     id="base"
     pagecolor="#ffffff"
     bordercolor="#666666"
     borderopacity="1.0"
     inkscape:pageopacity="0.0"
     inkscape:pageshadow="2"
     inkscape:zoom="0.35"
     inkscape:cx="666.4451"
     inkscape:cy="813.00629"
     inkscape:document-units="px"
     inkscape:current-layer="layer1"
     showgrid="false"
     inkscape:window-width="1366"
     inkscape:window-height="715"
     inkscape:window-x="0"
     inkscape:window-y="27"
     inkscape:window-maximized="1" />
  <metadata
     id="metadata4154">
    <rdf:RDF>
      <cc:Work
         rdf:about="">
        <dc:format>image/svg+xml</dc:format>
        <dc:type
           rdf:resource="http://purl.org/dc/dcmitype/StillImage" />
        <dc:title></dc:title>
      </cc:Work>
    </rdf:RDF>
  </metadata>
  <g
     inkscape:label="Layer 1"
     inkscape:groupmode="layer"
     id="layer1">
    <path
       style="fill:url(#linearGradient4887);fill-opacity:1;stroke:none"
       d="m 383.54618,49.989602 c -115.45795,0 -209.0625,93.604548 -209.0625,209.062498 0,115.45795 93.60455,209.03125 209.0625,209.03125 115.45795,0 209.0625,-93.5733 209.0625,-209.03125 0,-115.45795 -93.60455,-209.062498 -209.0625,-209.062498 z m 0,141.718748 c 37.18137,0 67.3125,30.16238 67.3125,67.34375 0,37.18137 -30.13113,67.3125 -67.3125,67.3125 -37.18137,0 -67.34375,-30.13113 -67.34375,-67.3125 0,-37.18137 30.16238,-67.34375 67.34375,-67.34375 z"
       id="path4326"
       inkscape:connector-curvature="0" />
    <path
       inkscape:connector-curvature="0"
       id="path4005"
       d="m -239.91447,-154.75316 -5.53571,977.85797 0.0358,0 63.6786,-975.57225 -58.17863,-2.28572 z m -5.50001,977.85797 0.0358,0 146.535766,-966.35796 -57.750046,-7.17857 -88.82153,973.53653 z m 0.0358,0 0.0358,0 230.964456,-949.42937 -56.8572,-12.25001 -174.143016,961.67938 z m -10.71432,-975.67939 -58.14292,2.25 63.53578,973.42939 0.17857,0 -5.57143,-975.67939 z m -83.32152,4.28572 -57.75005,7.21429 146.17871,964.17938 0.21429,0 -88.64295,-971.39367 z m -85.32151,11.85715 -56.92863,12.25001 230.46452,947.28651 0.14285,0 -173.67878,-959.53652 z m 434.928926,16.53573 -255.500236,943.00079 0.0358,0 311.107356,-925.96506 -55.64292,-17.03573 z m -516.393346,2.14286 -55.64291,17.03572 310.39316,923.82221 0.17857,0 -254.92882,-940.85793 z m 592.000576,21.928585 -330.928896,918.929345 0.0714,0 384.96471,-897.465036 -54.107214,-21.464309 z m -667.607796,2.14286 -54.10719,21.500019 384.03609,895.286466 0.21429,0 -330.14319,-916.786485 z m -80.21436,33.285749 -24.57144,12.39287 0,64.57149 434.32184,806.536376 0.25,0 -410.00039,-883.500736 z m 825.82224,2.60715 -408.82183,880.893586 0.10709,0 408.7147,-758.929186 0,-121.9644 z m -850.39368,114.82154 0,96.785756 433.85755,669.28629 0.39286,0 -434.2504,-766.072046 z m 850.39368,45.107156 -408.67898,720.96489 0.17858,0 408.5004,-630.10769 0,-90.8572 z m -850.39368,86.8929 0,75.1072 433.28612,558.96479 0.39286,0 -433.67897,-634.07199 z m 850.39369,37.0358 -408.42897,597.03619 0.24999,0 408.17898,-526.57189 0,-70.4643 z m -850.39368,66.0715 0,60.6786 432.64327,470.28609 0.46429,0 -433.10756,-530.96469 z m 850.39368,30.6786 -408.07183,500.28609 0.21428,0 407.85755,-443.32179 0,-56.9643 z m -850.39368,54.5714 0,50.5358 431.92898,395.17889 0.5,0 -432.42898,-445.71469 z m 850.39368,25.4286 -407.78612,420.28609 0.32144,0 407.46468,-372.82179 0,-47.4643 z m -850.39368,46.7858 0,43.3214 430.78612,330.17889 0.75,0 -431.53612,-373.50029 z m 850.39368,21 -407.2504,352.50029 0.42857,0 406.82183,-311.82169 0,-40.6786 z m -850.39368,35.5001 0,38.4642 429.64326,278.53599 0.89286,0 -430.53612,-317.00019 z m 850.39368,17.5714 -406.71469,299.42879 0.53572,0 406.17897,-263.32169 0,-36.1071 z"
       style="opacity:0.1;fill:url(#linearGradient4926);fill-opacity:1;stroke:none"
       clip-path="url(#clipPath4914)"
       transform="translate(644.9428,-74.63935)" />
    <path
       style="fill:#e55b00;fill-opacity:1;stroke:none"
       d="m 65.342704,169.21944 c 11.843381,-1.10096 94.746996,6.60579 101.207016,5.50483 6.46002,-1.10096 45.22015,1.10096 47.37348,6.6059 2.15336,5.50483 28.25206,17.00778 34.45346,23.1205 19.66813,19.38652 102.56856,13.28263 114.36511,12.09962 11.83543,-1.18703 55.66805,-16.85825 67.72198,-13.2007 17.16091,5.20724 48.00387,21.49288 54.71546,24.22146 28.98609,11.78427 36.65787,31.74179 87.27521,35.23112 23.0288,1.58762 84.17508,-8.8963 117.422,-11.03178 20.86407,-1.34022 50.21782,27.54636 57.75449,29.74841 l 0,149.77966 -694.131568,0 c -5.383338,0 11.843362,-262.07902 11.843362,-262.07902 z"
       id="path3162"
       inkscape:connector-curvature="0"
       sodipodi:nodetypes="cssssssssccsc"
       clip-path="url(#clipPath4893)"
       transform="translate(20,40.5)" />
    <path
       style="fill:#4c1f00;fill-opacity:1;stroke:none"
       d="m -105.46225,59.069973 c 7.00175,8.981657 11.959752,24.216067 21.005259,26.944971 0,0 32.854373,7.544598 41.471924,14.011276 8.617527,6.46691 22.293077,17.26704 29.622786,19.40039 7.1358708,2.07702 21.9384006,-1.02137 32.854372,1.61669 3.987167,0.96367 12.926311,9.1613 17.235075,11.3169 4.308783,2.15559 22.45901,14.97608 34.916727,24.1259 3.134208,2.30197 40.714507,10.91026 44.795537,12.51927 5.5348,2.18209 17.23507,16.16687 24.23682,18.32247 7.00176,2.15559 19.92809,10.77799 26.92984,21.01709 7.00173,10.23909 23.69822,9.70019 33.93156,10.23909 10.23332,0.53889 25.31402,2.6945 34.47015,7.00569 9.15616,4.31109 8.61754,17.78358 24.77544,23.71147 16.15789,5.92789 41.78538,10.42296 44.16489,9.16129 9.08577,-4.81763 16.6965,-12.93359 16.6965,-12.93359 27.30587,-7.02072 53.82129,-4.56058 79.71225,5.38899 4.9833,2.07692 11.17606,10.38868 16.69649,15.6281 2.22307,3.70071 18.52509,8.09129 25.85263,7.00569 5.48536,-0.81271 18.41996,-2.85613 21.65153,-1.23954 3.23157,1.6167 20.38197,13.21898 24.12919,13.63423 2.52872,0.28011 27.80576,-1.88144 30.28267,-1.51196 2.47689,0.36958 12.14882,8.81567 14.64958,13.88497 4.54286,2.95581 12.67868,7.69521 15.92913,8.10506 2.47653,0.31223 9.3057,-1.01678 13.14176,0.13478 6.46587,1.35288 6.26515,6.51692 11.6337,7.40982 5.86847,0.97616 14.5421,-1.61671 20.46662,0.5389 5.92459,2.15559 31.23865,19.40893 34.47023,19.40032 3.21727,-0.0115 29.46808,-4.47506 34.47012,-4.85004 5.22546,-0.31521 23.1606,18.32196 26.92986,19.93911 3.7698,1.61751 33.93156,-1.61658 38.77895,-1.61658 4.84732,0 17.19152,17.24479 17.19152,17.24479 l 0,66.62338 -853.09311,0 z"
       id="path3141"
       inkscape:connector-curvature="0"
       sodipodi:nodetypes="ccsssssssssssscccssszcscssscsscccc"
       clip-path="url(#clipPath4901)"
       transform="translate(20,40.5)" />
    <g
       id="g6984"
       transform="matrix(0.77476223,0,0,0.77476223,258.34889,105.54235)">
      <g
         transform="matrix(0.39910477,0,0,0.39910477,-3.3727135,-151.30349)"
         id="g3115"
         style="fill:white;fill-opacity:1">
        <path
           inkscape:connector-curvature="0"
           style="fill:white;fill-opacity:1;stroke:none"
           d="m 638.875,263.59375 44.28125,66.34375 c 6.24987,-7.52737 14.55379,-13.26377 24.0625,-16.375 l -33.5,-49.96875 -34.84375,0 z m 133.90625,0 L 739.375,313.375 c 9.559,3.01318 17.92143,8.68958 24.25,16.15625 l 44,-65.9375 -34.84375,0 z M 683.25,397.0625 l -48.375,72.09375 34.84375,1.03125 37.875,-56.71875 C 697.97022,410.40119 689.57326,404.63932 683.25,397.0625 z m 80.28125,0.40625 c -6.39368,7.50507 -14.84276,13.18471 -24.5,16.15625 l 37.75,56.5625 34.84375,-1.03125 -48.09375,-71.6875 z"
           id="path3000"
           transform="translate(0,152.36218)" />
        <path
           inkscape:connector-curvature="0"
           style="fill:white;fill-opacity:1;stroke:none"
           d="m 723.5625,317.4375 c -25.4051,0 -46,20.5949 -46,46 0,25.4051 20.5949,46 46,46 25.4051,0 46,-20.5949 46,-46 0,-25.4051 -20.5949,-46 -46,-46 z m 0,9.5 c 2.5198,0 4.96769,0.26379 7.34375,0.75 -0.33328,-0.0682 -0.69473,-0.0347 -1.03125,-0.0937 l -6.625,9.84375 -6.5625,-9.8125 c -0.15283,0.0292 -0.31661,0.0314 -0.46875,0.0625 2.37606,-0.48621 4.82395,-0.75 7.34375,-0.75 z m -30.28125,16.09375 c -0.24516,0.36288 -0.39271,0.78423 -0.625,1.15625 l 13,19.46875 L 692.75,382.875 c 0.0985,0.15575 0.16757,0.33488 0.25,0.5 -3.74894,-5.7337 -5.9375,-12.57566 -5.9375,-19.9375 0,-7.5594 2.28316,-14.58081 6.21875,-20.40625 z m 60.5625,0 c 3.93559,5.82544 6.21875,12.84685 6.21875,20.40625 0,7.5594 -2.28316,14.58081 -6.21875,20.40625 0.094,-0.13908 0.15791,-0.29706 0.25,-0.4375 l -13.25,-19.75 13.34375,-20 c -0.12927,-0.19964 -0.21071,-0.42807 -0.34375,-0.625 z M 723.25,390 l 6.21875,9.34375 c 0.47168,-0.0773 0.97209,-0.061 1.4375,-0.15625 -2.37606,0.48621 -4.82395,0.75 -7.34375,0.75 -2.5198,0 -4.96769,-0.26379 -7.34375,-0.75 0.27324,0.0559 0.56832,0.044 0.84375,0.0937 L 723.25,390 z"
           id="path3008"
           transform="translate(0,152.36218)" />
      </g>
      <g
         transform="translate(0,-1.7852829)"
         id="g6969">
        <text
           xml:space="preserve"
           style="font-size:29.44900513px;font-style:normal;font-weight:normal;line-height:125%;letter-spacing:14.39000034px;word-spacing:0px;fill:white;fill-opacity:1;stroke:none;font-family:Sans"
           x="73.49971"
           y="85.671921"
           id="text3111"
           sodipodi:linespacing="125%"><tspan
             sodipodi:role="line"
             id="tspan3113"
             x="73.49971"
             y="85.671921"
             style="font-size:20px;font-style:normal;font-variant:normal;font-weight:normal;font-stretch:normal;letter-spacing:14.39000034px;word-spacing:1px;fill:white;fill-opacity:1;font-family:AvantGarde LT ExtraLight;-inkscape-font-specification:AvantGarde LT ExtraLight">TAMBORA</tspan></text>
        <g
           id="g6062"
           transform="matrix(0.62538058,0,0,0.62538058,-298.01066,-356.90862)">
          <path
             style="fill:none;stroke:white;stroke-width:10.60067558;stroke-miterlimit:4;stroke-dasharray:none"
             d="m 551.87134,647.57538 c 0,11.40027 -9.24174,20.64202 -20.64204,20.64202 -11.40026,0 -20.642,-9.24175 -20.642,-20.64202 0,-11.40027 9.24174,-20.64202 20.642,-20.64202 11.4003,0 20.64204,9.24175 20.64204,20.64202 z"
             id="path6064"
             inkscape:connector-curvature="0"
             inkscape:export-filename="/home/mdamt/rect4269.png"
             inkscape:export-xdpi="285.01001"
             inkscape:export-ydpi="285.01001" />
          <path
             style="fill:black;fill-opacity:0;stroke:red;stroke-width:8.62159538;stroke-linecap:round;stroke-linejoin:round;stroke-miterlimit:4;stroke-opacity:1"
             d="m 561.12004,626.61142 0.48451,0 0,44.30357 -0.48451,0 z"
             id="path6066"
             inkscape:connector-curvature="0"
             inkscape:export-xdpi="285.01001"
             inkscape:export-ydpi="285.01001" />
          <g
             id="g6068"
             style="fill:white;stroke:none">
            <path
               inkscape:connector-curvature="0"
               id="path6070"
               style="font-size:75.31466675px;font-style:normal;font-weight:bold;line-height:125%;letter-spacing:0px;word-spacing:0px;fill:white;stroke:none;font-family:Sans;-inkscape-font-specification:Sans Bold"
               d="m 613.18495,626.7424 -8.64546,0 0,16.27379 c 0.11299,3e-5 0.64981,3e-5 1.61045,0 0.96065,-0.0565 1.86468,-0.0848 2.71234,-0.0848 0.90403,-0.0565 2.11891,-0.14123 3.64462,-0.25427 1.5822,-0.16949 2.79707,-0.339 3.64461,-0.50856 0.90415,-0.22599 1.92118,-0.56503 3.05142,-1.01712 1.18651,-0.45201 2.06241,-0.98882 2.62748,-1.61042 1.4691,-1.46913 2.20376,-3.27733 2.20376,-5.4246 0,-3.61635 -2.03428,-5.90485 -6.10272,-6.8655 -1.35611,-0.339 -2.93831,-0.50852 -4.7465,-0.50856 m 0.59331,22.88503 -9.23877,0.50855 0,17.03662 8.30649,0 c 3.67286,10e-6 6.24385,-0.1695 7.71306,-0.50854 1.5256,-0.33903 2.82532,-0.70633 3.89896,-1.10188 1.07352,-0.45204 1.92117,-0.96059 2.54273,-1.52567 1.58221,-1.35613 2.37325,-3.10782 2.37325,-5.25508 0,-2.82529 -1.41272,-5.05728 -4.23793,-6.69599 -2.76882,-1.63865 -6.55479,-2.458 -11.35779,-2.45801 m -19.66417,-31.70001 21.18988,0 c 5.53755,6e-5 9.83208,0.93242 12.88339,2.79707 2.99481,1.80825 5.00073,3.84247 6.01798,6.10266 0.96053,2.2038 1.41261,4.23802 1.35611,6.10268 0,1.86475 -0.50857,3.78596 -1.52571,5.76364 -0.96064,1.92124 -2.23201,3.53167 -3.8141,4.83128 4.5769,1.86473 7.57171,5.22685 8.98443,10.08636 0.39546,1.52569 0.59331,3.0231 0.59331,4.49224 0,1.41267 -0.16948,2.82534 -0.50857,4.23798 -0.33908,1.41266 -1.10188,3.02309 -2.2885,4.83127 -1.13014,1.7517 -2.59924,3.33389 -4.40742,4.74654 -1.8083,1.35614 -4.35104,2.51452 -7.62832,3.47513 -3.22091,0.90409 -6.92213,1.35614 -11.10357,1.35614 l -19.74891,0 0,-58.82299" />
            <path
               inkscape:connector-curvature="0"
               id="path6072"
               style="font-size:75.31466675px;font-style:normal;font-weight:bold;line-height:125%;letter-spacing:0px;word-spacing:0px;fill:white;stroke:none;font-family:Sans;-inkscape-font-specification:Sans Bold"
               d="m 661.60117,637.76111 c 5.31156,-1.80816 10.19941,-2.71226 14.66344,-2.71229 4.5204,3e-5 8.05203,0.39558 10.59488,1.18662 2.59923,0.79113 4.54865,1.92126 5.84838,3.39038 2.42975,2.65583 3.64462,6.1027 3.64462,10.34064 l 0,26.78395 -7.62832,0 -1.10189,-2.7123 c -3.72947,2.37326 -7.9109,3.5599 -12.54441,3.5599 -6.4417,0 -11.30118,-1.83646 -14.57859,-5.50936 -1.75169,-2.03422 -2.62748,-4.18145 -2.62748,-6.44171 0,-2.09072 0.28248,-3.84241 0.84755,-5.25508 0.56506,-1.46915 1.49746,-2.65577 2.79707,-3.5599 1.29962,-0.96058 2.68409,-1.72341 4.15319,-2.2885 1.46922,-0.62155 3.39039,-1.0736 5.76364,-1.35615 3.84246,-0.45202 8.75845,-0.67805 14.74818,-0.67807 l 0,-0.59332 c -1.1e-4,-3.72938 -1.52571,-6.10264 -4.57701,-7.11979 -1.41272,-0.45201 -3.50349,-0.67804 -6.27221,-0.67807 -2.76883,3e-5 -6.58305,0.59335 -11.44254,1.77994 l -1.61045,0.50856 -2.11891,-8.22165 1.44086,-0.4238 m 24.58026,28.39439 0,-5.93316 -1.01714,0 c -6.21571,2e-5 -10.5385,0.25429 -12.96824,0.76283 -2.37325,0.50857 -3.55988,1.75171 -3.55988,3.72942 0,1.29965 0.7628,2.31676 2.28851,3.05133 1.5822,0.73459 3.87071,1.10188 6.86552,1.10188 2.99481,0 5.79189,-0.9041 8.39123,-2.7123" />
            <path
               inkscape:connector-curvature="0"
               id="path6074"
               style="font-size:75.31466675px;font-style:normal;font-weight:bold;line-height:125%;letter-spacing:0px;word-spacing:0px;fill:white;stroke:none;font-family:Sans;-inkscape-font-specification:Sans Bold"
               d="m 700.49172,635.8964 7.11975,0 1.35611,2.79707 c 5.31157,-2.42974 10.11467,-3.64462 14.4091,-3.64465 7.00675,3e-5 11.52728,2.59932 13.56155,7.79785 1.01703,2.59932 1.55384,5.84842 1.61034,9.74733 l 0,24.15641 -10.2558,0 0,-23.9869 c -1.1e-4,-2.88178 -0.62167,-4.94426 -1.86467,-6.18742 -1.29974,-1.35613 -3.36226,-2.03419 -6.18747,-2.03423 -2.76883,4e-5 -5.96148,0.76287 -9.57786,2.2885 l 0,29.92005 -10.17105,0 0,-40.85401" />
            <path
               inkscape:connector-curvature="0"
               id="path6076"
               style="font-size:75.31466675px;font-style:normal;font-weight:bold;line-height:125%;letter-spacing:0px;word-spacing:0px;fill:white;stroke:none;font-family:Sans;-inkscape-font-specification:Sans Bold"
               d="m 753.07741,652.25496 17.63,-17.20614 12.20534,0 -20.17274,18.73181 20.85079,22.96978 -12.54442,0 -17.96897,-20.34224 0,20.34224 -10.17116,0 0,-58.82299 10.17116,0 0,34.32754" />
            <path
               inkscape:connector-curvature="0"
               id="path6078"
               style="font-size:75.31466675px;font-style:normal;font-weight:bold;line-height:125%;letter-spacing:0px;word-spacing:0px;fill:white;stroke:none;font-family:Sans;-inkscape-font-specification:Sans Bold"
               d="m 810.74543,621.83572 c 5.42455,6e-5 10.31229,1.18669 14.66332,3.5599 4.35092,2.3168 7.7978,5.73542 10.34066,10.25587 2.59922,4.52054 3.89884,9.71911 3.89895,15.59573 -1.1e-4,9.04101 -2.76894,16.41507 -8.30648,22.12219 -5.48117,5.65063 -12.45968,8.47592 -20.93554,8.47592 -7.51533,0 -14.09837,-2.45801 -19.74891,-7.37405 -2.71233,-2.37325 -4.88785,-5.50934 -6.52643,-9.40829 -1.63871,-3.89891 -2.45811,-8.24989 -2.45811,-13.05294 0,-9.04096 2.74058,-16.33025 8.22174,-21.86791 5.53755,-5.53756 12.48781,-8.30636 20.8508,-8.30642 m 6.18735,10.76443 c -2.14727,-0.79103 -4.35092,-1.18658 -6.61118,-1.18662 -2.20376,4e-5 -4.35103,0.39559 -6.44169,1.18662 -2.09078,0.79114 -4.01196,1.94952 -5.76365,3.47514 -1.75169,1.52572 -3.1644,3.58819 -4.23804,6.18743 -1.01703,2.59933 -1.5256,5.5659 -1.5256,8.89973 0,6.38523 1.77994,11.5273 5.33982,15.4262 3.55988,3.84244 7.99565,5.76365 13.30721,5.76364 4.57702,10e-6 8.61721,-1.58216 12.12059,-4.74652 1.75169,-1.58216 3.1643,-3.7294 4.23793,-6.44171 1.07364,-2.71227 1.61045,-5.79186 1.61045,-9.23877 0,-3.50335 -0.56506,-6.6112 -1.69519,-9.32353 -1.07363,-2.71226 -2.54285,-4.85949 -4.40741,-6.44171 -1.8083,-1.58213 -3.78597,-2.76876 -5.93324,-3.5599" />
            <path
               inkscape:connector-curvature="0"
               id="path6080"
               style="font-size:75.31466675px;font-style:normal;font-weight:bold;line-height:125%;letter-spacing:0px;word-spacing:0px;fill:white;stroke:none;font-family:Sans;-inkscape-font-specification:Sans Bold"
               d="m 842.37038,635.8964 7.11986,0 1.35611,2.79707 c 5.31156,-2.42974 10.11454,-3.64462 14.40911,-3.64465 7.00676,3e-5 11.52726,2.59932 13.56141,7.79785 1.01717,2.59932 1.55395,5.84842 1.61045,9.74733 l 0,24.15641 -10.25589,0 0,-23.9869 c 0,-2.88178 -0.62155,-4.94426 -1.8647,-6.18742 -1.2996,-1.35613 -3.36212,-2.03419 -6.18735,-2.03423 -2.76881,4e-5 -5.96147,0.76287 -9.57784,2.2885 l 0,29.92005 -10.17116,0 0,-40.85401" />
            <rect
               ry="1.3444229"
               y="617.88428"
               x="643.2619"
               height="59.154606"
               width="11.269748"
               id="rect6082"
               style="fill:white;stroke:none" />
          </g>
        </g>
      </g>
    </g>
  </g>
</svg>
