<?xml version="1.0" encoding="UTF-8" standalone="no"?>
<!-- Created with Inkscape (http://www.inkscape.org/) -->

<svg
   xmlns:dc="http://purl.org/dc/elements/1.1/"
   xmlns:cc="http://creativecommons.org/ns#"
   xmlns:rdf="http://www.w3.org/1999/02/22-rdf-syntax-ns#"
   xmlns:svg="http://www.w3.org/2000/svg"
   xmlns="http://www.w3.org/2000/svg"
   xmlns:sodipodi="http://sodipodi.sourceforge.net/DTD/sodipodi-0.dtd"
   xmlns:inkscape="http://www.inkscape.org/namespaces/inkscape"
   width="210mm"
   height="297mm"
   viewBox="0 0 744.09448819 1052.3622047"
   id="svg2"
   version="1.1"
   inkscape:version="0.91 r"
   sodipodi:docname="logo_khas_rilis.svg">
  <defs
     id="defs4">
    <inkscape:perspective
       id="perspective10"
       inkscape:persp3d-origin="372.04724 : 350.78739 : 1"
       inkscape:vp_z="744.09448 : 526.18109 : 1"
       inkscape:vp_y="0 : 1000 : 0"
       inkscape:vp_x="0 : 526.18109 : 1"
       sodipodi:type="inkscape:persp3d" />
    <inkscape:perspective
       sodipodi:type="inkscape:persp3d"
       inkscape:vp_x="0 : 526.18109 : 1"
       inkscape:vp_y="0 : 1000 : 0"
       inkscape:vp_z="744.09448 : 526.18109 : 1"
       inkscape:persp3d-origin="372.04724 : 350.78739 : 1"
       id="perspective10-9" />
    <inkscape:perspective
       sodipodi:type="inkscape:persp3d"
       inkscape:vp_x="0 : 526.18109 : 1"
       inkscape:vp_y="0 : 1000 : 0"
       inkscape:vp_z="744.09448 : 526.18109 : 1"
       inkscape:persp3d-origin="372.04724 : 350.78739 : 1"
       id="perspective10-7" />
    <inkscape:perspective
       sodipodi:type="inkscape:persp3d"
       inkscape:vp_x="0 : 526.18109 : 1"
       inkscape:vp_y="0 : 1000 : 0"
       inkscape:vp_z="744.09448 : 526.18109 : 1"
       inkscape:persp3d-origin="372.04724 : 350.78739 : 1"
       id="perspective10-0" />
    <inkscape:perspective
       sodipodi:type="inkscape:persp3d"
       inkscape:vp_x="0 : 526.18109 : 1"
       inkscape:vp_y="0 : 1000 : 0"
       inkscape:vp_z="744.09448 : 526.18109 : 1"
       inkscape:persp3d-origin="372.04724 : 350.78739 : 1"
       id="perspective10-2" />
    <inkscape:perspective
       sodipodi:type="inkscape:persp3d"
       inkscape:vp_x="0 : 526.18109 : 1"
       inkscape:vp_y="0 : 1000 : 0"
       inkscape:vp_z="744.09448 : 526.18109 : 1"
       inkscape:persp3d-origin="372.04724 : 350.78739 : 1"
       id="perspective10-01" />
    <inkscape:perspective
       sodipodi:type="inkscape:persp3d"
       inkscape:vp_x="0 : 526.18109 : 1"
       inkscape:vp_y="0 : 1000 : 0"
       inkscape:vp_z="744.09448 : 526.18109 : 1"
       inkscape:persp3d-origin="372.04724 : 350.78739 : 1"
       id="perspective10-28" />
    <inkscape:perspective
       sodipodi:type="inkscape:persp3d"
       inkscape:vp_x="0 : 526.18109 : 1"
       inkscape:vp_y="0 : 1000 : 0"
       inkscape:vp_z="744.09448 : 526.18109 : 1"
       inkscape:persp3d-origin="372.04724 : 350.78739 : 1"
       id="perspective10-5" />
    <inkscape:perspective
       sodipodi:type="inkscape:persp3d"
       inkscape:vp_x="0 : 526.18109 : 1"
       inkscape:vp_y="0 : 1000 : 0"
       inkscape:vp_z="744.09448 : 526.18109 : 1"
       inkscape:persp3d-origin="372.04724 : 350.78739 : 1"
       id="perspective10-91" />
    <inkscape:perspective
       sodipodi:type="inkscape:persp3d"
       inkscape:vp_x="0 : 526.18109 : 1"
       inkscape:vp_y="0 : 1000 : 0"
       inkscape:vp_z="744.09448 : 526.18109 : 1"
       inkscape:persp3d-origin="372.04724 : 350.78739 : 1"
       id="perspective10-09" />
    <inkscape:perspective
       sodipodi:type="inkscape:persp3d"
       inkscape:vp_x="0 : 526.18109 : 1"
       inkscape:vp_y="0 : 1000 : 0"
       inkscape:vp_z="744.09448 : 526.18109 : 1"
       inkscape:persp3d-origin="372.04724 : 350.78739 : 1"
       id="perspective10-6" />
    <inkscape:perspective
       id="perspective10-97"
       inkscape:persp3d-origin="372.04724 : 350.78739 : 1"
       inkscape:vp_z="744.09448 : 526.18109 : 1"
       inkscape:vp_y="0 : 1000 : 0"
       inkscape:vp_x="0 : 526.18109 : 1"
       sodipodi:type="inkscape:persp3d" />
    <inkscape:perspective
       sodipodi:type="inkscape:persp3d"
       inkscape:vp_x="0 : 526.18109 : 1"
       inkscape:vp_y="0 : 1000 : 0"
       inkscape:vp_z="744.09448 : 526.18109 : 1"
       inkscape:persp3d-origin="372.04724 : 350.78739 : 1"
       id="perspective10-8" />
    <inkscape:perspective
       sodipodi:type="inkscape:persp3d"
       inkscape:vp_x="0 : 526.18109 : 1"
       inkscape:vp_y="0 : 1000 : 0"
       inkscape:vp_z="744.09448 : 526.18109 : 1"
       inkscape:persp3d-origin="372.04724 : 350.78739 : 1"
       id="perspective10-9-7" />
    <inkscape:perspective
       sodipodi:type="inkscape:persp3d"
       inkscape:vp_x="0 : 526.18109 : 1"
       inkscape:vp_y="0 : 1000 : 0"
       inkscape:vp_z="744.09448 : 526.18109 : 1"
       inkscape:persp3d-origin="372.04724 : 350.78739 : 1"
       id="perspective10-66" />
    <inkscape:perspective
       sodipodi:type="inkscape:persp3d"
       inkscape:vp_x="0 : 526.18109 : 1"
       inkscape:vp_y="0 : 1000 : 0"
       inkscape:vp_z="744.09448 : 526.18109 : 1"
       inkscape:persp3d-origin="372.04724 : 350.78739 : 1"
       id="perspective10-87" />
    <inkscape:perspective
       sodipodi:type="inkscape:persp3d"
       inkscape:vp_x="0 : 526.18109 : 1"
       inkscape:vp_y="0 : 1000 : 0"
       inkscape:vp_z="744.09448 : 526.18109 : 1"
       inkscape:persp3d-origin="372.04724 : 350.78739 : 1"
       id="perspective10-05" />
    <inkscape:perspective
       sodipodi:type="inkscape:persp3d"
       inkscape:vp_x="0 : 526.18109 : 1"
       inkscape:vp_y="0 : 1000 : 0"
       inkscape:vp_z="744.09448 : 526.18109 : 1"
       inkscape:persp3d-origin="372.04724 : 350.78739 : 1"
       id="perspective10-64" />
    <inkscape:perspective
       sodipodi:type="inkscape:persp3d"
       inkscape:vp_x="0 : 526.18109 : 1"
       inkscape:vp_y="0 : 1000 : 0"
       inkscape:vp_z="744.09448 : 526.18109 : 1"
       inkscape:persp3d-origin="372.04724 : 350.78739 : 1"
       id="perspective10-96" />
    <inkscape:perspective
       sodipodi:type="inkscape:persp3d"
       inkscape:vp_x="0 : 526.18109 : 1"
       inkscape:vp_y="0 : 1000 : 0"
       inkscape:vp_z="744.09448 : 526.18109 : 1"
       inkscape:persp3d-origin="372.04724 : 350.78739 : 1"
       id="perspective10-22" />
    <inkscape:perspective
       sodipodi:type="inkscape:persp3d"
       inkscape:vp_x="0 : 526.18109 : 1"
       inkscape:vp_y="0 : 1000 : 0"
       inkscape:vp_z="744.09448 : 526.18109 : 1"
       inkscape:persp3d-origin="372.04724 : 350.78739 : 1"
       id="perspective10-3" />
    <inkscape:perspective
       sodipodi:type="inkscape:persp3d"
       inkscape:vp_x="0 : 526.18109 : 1"
       inkscape:vp_y="0 : 1000 : 0"
       inkscape:vp_z="744.09448 : 526.18109 : 1"
       inkscape:persp3d-origin="372.04724 : 350.78739 : 1"
       id="perspective10-35" />
    <inkscape:perspective
       sodipodi:type="inkscape:persp3d"
       inkscape:vp_x="0 : 526.18109 : 1"
       inkscape:vp_y="0 : 1000 : 0"
       inkscape:vp_z="744.09448 : 526.18109 : 1"
       inkscape:persp3d-origin="372.04724 : 350.78739 : 1"
       id="perspective10-06" />
    <inkscape:perspective
       sodipodi:type="inkscape:persp3d"
       inkscape:vp_x="0 : 526.18109 : 1"
       inkscape:vp_y="0 : 1000 : 0"
       inkscape:vp_z="744.09448 : 526.18109 : 1"
       inkscape:persp3d-origin="372.04724 : 350.78739 : 1"
       id="perspective10-76" />
    <inkscape:perspective
       sodipodi:type="inkscape:persp3d"
       inkscape:vp_x="0 : 526.18109 : 1"
       inkscape:vp_y="0 : 1000 : 0"
       inkscape:vp_z="744.09448 : 526.18109 : 1"
       inkscape:persp3d-origin="372.04724 : 350.78739 : 1"
       id="perspective10-872" />
    <inkscape:perspective
       sodipodi:type="inkscape:persp3d"
       inkscape:vp_x="0 : 526.18109 : 1"
       inkscape:vp_y="0 : 1000 : 0"
       inkscape:vp_z="744.09448 : 526.18109 : 1"
       inkscape:persp3d-origin="372.04724 : 350.78739 : 1"
       id="perspective10-72" />
    <inkscape:perspective
       sodipodi:type="inkscape:persp3d"
       inkscape:vp_x="0 : 526.18109 : 1"
       inkscape:vp_y="0 : 1000 : 0"
       inkscape:vp_z="744.09448 : 526.18109 : 1"
       inkscape:persp3d-origin="372.04724 : 350.78739 : 1"
       id="perspective10-919" />
    <inkscape:perspective
       sodipodi:type="inkscape:persp3d"
       inkscape:vp_x="0 : 526.18109 : 1"
       inkscape:vp_y="0 : 1000 : 0"
       inkscape:vp_z="744.09448 : 526.18109 : 1"
       inkscape:persp3d-origin="372.04724 : 350.78739 : 1"
       id="perspective10-38" />
    <inkscape:perspective
       sodipodi:type="inkscape:persp3d"
       inkscape:vp_x="0 : 526.18109 : 1"
       inkscape:vp_y="0 : 1000 : 0"
       inkscape:vp_z="744.09448 : 526.18109 : 1"
       inkscape:persp3d-origin="372.04724 : 350.78739 : 1"
       id="perspective10-30" />
    <inkscape:perspective
       sodipodi:type="inkscape:persp3d"
       inkscape:vp_x="0 : 526.18109 : 1"
       inkscape:vp_y="0 : 1000 : 0"
       inkscape:vp_z="744.09448 : 526.18109 : 1"
       inkscape:persp3d-origin="372.04724 : 350.78739 : 1"
       id="perspective10-98" />
    <inkscape:perspective
       id="perspective10-79"
       inkscape:persp3d-origin="372.04724 : 350.78739 : 1"
       inkscape:vp_z="744.09448 : 526.18109 : 1"
       inkscape:vp_y="0 : 1000 : 0"
       inkscape:vp_x="0 : 526.18109 : 1"
       sodipodi:type="inkscape:persp3d" />
    <inkscape:perspective
       sodipodi:type="inkscape:persp3d"
       inkscape:vp_x="0 : 526.18109 : 1"
       inkscape:vp_y="0 : 1000 : 0"
       inkscape:vp_z="744.09448 : 526.18109 : 1"
       inkscape:persp3d-origin="372.04724 : 350.78739 : 1"
       id="perspective10-9-2" />
    <inkscape:perspective
       sodipodi:type="inkscape:persp3d"
       inkscape:vp_x="0 : 526.18109 : 1"
       inkscape:vp_y="0 : 1000 : 0"
       inkscape:vp_z="744.09448 : 526.18109 : 1"
       inkscape:persp3d-origin="372.04724 : 350.78739 : 1"
       id="perspective10-7-3" />
    <inkscape:perspective
       sodipodi:type="inkscape:persp3d"
       inkscape:vp_x="0 : 526.18109 : 1"
       inkscape:vp_y="0 : 1000 : 0"
       inkscape:vp_z="744.09448 : 526.18109 : 1"
       inkscape:persp3d-origin="372.04724 : 350.78739 : 1"
       id="perspective10-0-6" />
    <inkscape:perspective
       sodipodi:type="inkscape:persp3d"
       inkscape:vp_x="0 : 526.18109 : 1"
       inkscape:vp_y="0 : 1000 : 0"
       inkscape:vp_z="744.09448 : 526.18109 : 1"
       inkscape:persp3d-origin="372.04724 : 350.78739 : 1"
       id="perspective10-2-9" />
    <inkscape:perspective
       sodipodi:type="inkscape:persp3d"
       inkscape:vp_x="0 : 526.18109 : 1"
       inkscape:vp_y="0 : 1000 : 0"
       inkscape:vp_z="744.09448 : 526.18109 : 1"
       inkscape:persp3d-origin="372.04724 : 350.78739 : 1"
       id="perspective10-01-9" />
    <inkscape:perspective
       sodipodi:type="inkscape:persp3d"
       inkscape:vp_x="0 : 526.18109 : 1"
       inkscape:vp_y="0 : 1000 : 0"
       inkscape:vp_z="744.09448 : 526.18109 : 1"
       inkscape:persp3d-origin="372.04724 : 350.78739 : 1"
       id="perspective10-28-6" />
    <inkscape:perspective
       sodipodi:type="inkscape:persp3d"
       inkscape:vp_x="0 : 526.18109 : 1"
       inkscape:vp_y="0 : 1000 : 0"
       inkscape:vp_z="744.09448 : 526.18109 : 1"
       inkscape:persp3d-origin="372.04724 : 350.78739 : 1"
       id="perspective10-5-4" />
    <inkscape:perspective
       sodipodi:type="inkscape:persp3d"
       inkscape:vp_x="0 : 526.18109 : 1"
       inkscape:vp_y="0 : 1000 : 0"
       inkscape:vp_z="744.09448 : 526.18109 : 1"
       inkscape:persp3d-origin="372.04724 : 350.78739 : 1"
       id="perspective10-91-6" />
    <inkscape:perspective
       sodipodi:type="inkscape:persp3d"
       inkscape:vp_x="0 : 526.18109 : 1"
       inkscape:vp_y="0 : 1000 : 0"
       inkscape:vp_z="744.09448 : 526.18109 : 1"
       inkscape:persp3d-origin="372.04724 : 350.78739 : 1"
       id="perspective10-09-3" />
    <inkscape:perspective
       sodipodi:type="inkscape:persp3d"
       inkscape:vp_x="0 : 526.18109 : 1"
       inkscape:vp_y="0 : 1000 : 0"
       inkscape:vp_z="744.09448 : 526.18109 : 1"
       inkscape:persp3d-origin="372.04724 : 350.78739 : 1"
       id="perspective10-6-8" />
    <inkscape:perspective
       id="perspective10-97-9"
       inkscape:persp3d-origin="372.04724 : 350.78739 : 1"
       inkscape:vp_z="744.09448 : 526.18109 : 1"
       inkscape:vp_y="0 : 1000 : 0"
       inkscape:vp_x="0 : 526.18109 : 1"
       sodipodi:type="inkscape:persp3d" />
    <inkscape:perspective
       sodipodi:type="inkscape:persp3d"
       inkscape:vp_x="0 : 526.18109 : 1"
       inkscape:vp_y="0 : 1000 : 0"
       inkscape:vp_z="744.09448 : 526.18109 : 1"
       inkscape:persp3d-origin="372.04724 : 350.78739 : 1"
       id="perspective10-8-2" />
    <inkscape:perspective
       sodipodi:type="inkscape:persp3d"
       inkscape:vp_x="0 : 526.18109 : 1"
       inkscape:vp_y="0 : 1000 : 0"
       inkscape:vp_z="744.09448 : 526.18109 : 1"
       inkscape:persp3d-origin="372.04724 : 350.78739 : 1"
       id="perspective10-9-7-6" />
    <inkscape:perspective
       sodipodi:type="inkscape:persp3d"
       inkscape:vp_x="0 : 526.18109 : 1"
       inkscape:vp_y="0 : 1000 : 0"
       inkscape:vp_z="744.09448 : 526.18109 : 1"
       inkscape:persp3d-origin="372.04724 : 350.78739 : 1"
       id="perspective10-66-6" />
    <inkscape:perspective
       sodipodi:type="inkscape:persp3d"
       inkscape:vp_x="0 : 526.18109 : 1"
       inkscape:vp_y="0 : 1000 : 0"
       inkscape:vp_z="744.09448 : 526.18109 : 1"
       inkscape:persp3d-origin="372.04724 : 350.78739 : 1"
       id="perspective10-87-3" />
    <inkscape:perspective
       sodipodi:type="inkscape:persp3d"
       inkscape:vp_x="0 : 526.18109 : 1"
       inkscape:vp_y="0 : 1000 : 0"
       inkscape:vp_z="744.09448 : 526.18109 : 1"
       inkscape:persp3d-origin="372.04724 : 350.78739 : 1"
       id="perspective10-05-5" />
    <inkscape:perspective
       sodipodi:type="inkscape:persp3d"
       inkscape:vp_x="0 : 526.18109 : 1"
       inkscape:vp_y="0 : 1000 : 0"
       inkscape:vp_z="744.09448 : 526.18109 : 1"
       inkscape:persp3d-origin="372.04724 : 350.78739 : 1"
       id="perspective10-64-4" />
    <inkscape:perspective
       sodipodi:type="inkscape:persp3d"
       inkscape:vp_x="0 : 526.18109 : 1"
       inkscape:vp_y="0 : 1000 : 0"
       inkscape:vp_z="744.09448 : 526.18109 : 1"
       inkscape:persp3d-origin="372.04724 : 350.78739 : 1"
       id="perspective10-96-8" />
    <inkscape:perspective
       sodipodi:type="inkscape:persp3d"
       inkscape:vp_x="0 : 526.18109 : 1"
       inkscape:vp_y="0 : 1000 : 0"
       inkscape:vp_z="744.09448 : 526.18109 : 1"
       inkscape:persp3d-origin="372.04724 : 350.78739 : 1"
       id="perspective10-22-9" />
    <inkscape:perspective
       sodipodi:type="inkscape:persp3d"
       inkscape:vp_x="0 : 526.18109 : 1"
       inkscape:vp_y="0 : 1000 : 0"
       inkscape:vp_z="744.09448 : 526.18109 : 1"
       inkscape:persp3d-origin="372.04724 : 350.78739 : 1"
       id="perspective10-3-9" />
    <inkscape:perspective
       sodipodi:type="inkscape:persp3d"
       inkscape:vp_x="0 : 526.18109 : 1"
       inkscape:vp_y="0 : 1000 : 0"
       inkscape:vp_z="744.09448 : 526.18109 : 1"
       inkscape:persp3d-origin="372.04724 : 350.78739 : 1"
       id="perspective10-35-9" />
    <inkscape:perspective
       sodipodi:type="inkscape:persp3d"
       inkscape:vp_x="0 : 526.18109 : 1"
       inkscape:vp_y="0 : 1000 : 0"
       inkscape:vp_z="744.09448 : 526.18109 : 1"
       inkscape:persp3d-origin="372.04724 : 350.78739 : 1"
       id="perspective10-06-1" />
    <inkscape:perspective
       sodipodi:type="inkscape:persp3d"
       inkscape:vp_x="0 : 526.18109 : 1"
       inkscape:vp_y="0 : 1000 : 0"
       inkscape:vp_z="744.09448 : 526.18109 : 1"
       inkscape:persp3d-origin="372.04724 : 350.78739 : 1"
       id="perspective10-76-0" />
    <inkscape:perspective
       sodipodi:type="inkscape:persp3d"
       inkscape:vp_x="0 : 526.18109 : 1"
       inkscape:vp_y="0 : 1000 : 0"
       inkscape:vp_z="744.09448 : 526.18109 : 1"
       inkscape:persp3d-origin="372.04724 : 350.78739 : 1"
       id="perspective10-872-4" />
    <inkscape:perspective
       id="perspective10-81"
       inkscape:persp3d-origin="372.04724 : 350.78739 : 1"
       inkscape:vp_z="744.09448 : 526.18109 : 1"
       inkscape:vp_y="0 : 1000 : 0"
       inkscape:vp_x="0 : 526.18109 : 1"
       sodipodi:type="inkscape:persp3d" />
    <inkscape:perspective
       sodipodi:type="inkscape:persp3d"
       inkscape:vp_x="0 : 526.18109 : 1"
       inkscape:vp_y="0 : 1000 : 0"
       inkscape:vp_z="744.09448 : 526.18109 : 1"
       inkscape:persp3d-origin="372.04724 : 350.78739 : 1"
       id="perspective10-9-9" />
    <inkscape:perspective
       sodipodi:type="inkscape:persp3d"
       inkscape:vp_x="0 : 526.18109 : 1"
       inkscape:vp_y="0 : 1000 : 0"
       inkscape:vp_z="744.09448 : 526.18109 : 1"
       inkscape:persp3d-origin="372.04724 : 350.78739 : 1"
       id="perspective10-7-1" />
    <inkscape:perspective
       sodipodi:type="inkscape:persp3d"
       inkscape:vp_x="0 : 526.18109 : 1"
       inkscape:vp_y="0 : 1000 : 0"
       inkscape:vp_z="744.09448 : 526.18109 : 1"
       inkscape:persp3d-origin="372.04724 : 350.78739 : 1"
       id="perspective10-0-9" />
    <inkscape:perspective
       sodipodi:type="inkscape:persp3d"
       inkscape:vp_x="0 : 526.18109 : 1"
       inkscape:vp_y="0 : 1000 : 0"
       inkscape:vp_z="744.09448 : 526.18109 : 1"
       inkscape:persp3d-origin="372.04724 : 350.78739 : 1"
       id="perspective10-2-0" />
    <inkscape:perspective
       sodipodi:type="inkscape:persp3d"
       inkscape:vp_x="0 : 526.18109 : 1"
       inkscape:vp_y="0 : 1000 : 0"
       inkscape:vp_z="744.09448 : 526.18109 : 1"
       inkscape:persp3d-origin="372.04724 : 350.78739 : 1"
       id="perspective10-01-2" />
    <inkscape:perspective
       sodipodi:type="inkscape:persp3d"
       inkscape:vp_x="0 : 526.18109 : 1"
       inkscape:vp_y="0 : 1000 : 0"
       inkscape:vp_z="744.09448 : 526.18109 : 1"
       inkscape:persp3d-origin="372.04724 : 350.78739 : 1"
       id="perspective10-28-5" />
    <inkscape:perspective
       sodipodi:type="inkscape:persp3d"
       inkscape:vp_x="0 : 526.18109 : 1"
       inkscape:vp_y="0 : 1000 : 0"
       inkscape:vp_z="744.09448 : 526.18109 : 1"
       inkscape:persp3d-origin="372.04724 : 350.78739 : 1"
       id="perspective10-5-48" />
    <inkscape:perspective
       sodipodi:type="inkscape:persp3d"
       inkscape:vp_x="0 : 526.18109 : 1"
       inkscape:vp_y="0 : 1000 : 0"
       inkscape:vp_z="744.09448 : 526.18109 : 1"
       inkscape:persp3d-origin="372.04724 : 350.78739 : 1"
       id="perspective10-91-9" />
    <inkscape:perspective
       sodipodi:type="inkscape:persp3d"
       inkscape:vp_x="0 : 526.18109 : 1"
       inkscape:vp_y="0 : 1000 : 0"
       inkscape:vp_z="744.09448 : 526.18109 : 1"
       inkscape:persp3d-origin="372.04724 : 350.78739 : 1"
       id="perspective10-09-5" />
    <inkscape:perspective
       sodipodi:type="inkscape:persp3d"
       inkscape:vp_x="0 : 526.18109 : 1"
       inkscape:vp_y="0 : 1000 : 0"
       inkscape:vp_z="744.09448 : 526.18109 : 1"
       inkscape:persp3d-origin="372.04724 : 350.78739 : 1"
       id="perspective10-6-9" />
    <inkscape:perspective
       id="perspective10-97-3"
       inkscape:persp3d-origin="372.04724 : 350.78739 : 1"
       inkscape:vp_z="744.09448 : 526.18109 : 1"
       inkscape:vp_y="0 : 1000 : 0"
       inkscape:vp_x="0 : 526.18109 : 1"
       sodipodi:type="inkscape:persp3d" />
    <inkscape:perspective
       sodipodi:type="inkscape:persp3d"
       inkscape:vp_x="0 : 526.18109 : 1"
       inkscape:vp_y="0 : 1000 : 0"
       inkscape:vp_z="744.09448 : 526.18109 : 1"
       inkscape:persp3d-origin="372.04724 : 350.78739 : 1"
       id="perspective10-8-3" />
    <inkscape:perspective
       sodipodi:type="inkscape:persp3d"
       inkscape:vp_x="0 : 526.18109 : 1"
       inkscape:vp_y="0 : 1000 : 0"
       inkscape:vp_z="744.09448 : 526.18109 : 1"
       inkscape:persp3d-origin="372.04724 : 350.78739 : 1"
       id="perspective10-9-7-5" />
    <inkscape:perspective
       sodipodi:type="inkscape:persp3d"
       inkscape:vp_x="0 : 526.18109 : 1"
       inkscape:vp_y="0 : 1000 : 0"
       inkscape:vp_z="744.09448 : 526.18109 : 1"
       inkscape:persp3d-origin="372.04724 : 350.78739 : 1"
       id="perspective10-66-7" />
    <inkscape:perspective
       sodipodi:type="inkscape:persp3d"
       inkscape:vp_x="0 : 526.18109 : 1"
       inkscape:vp_y="0 : 1000 : 0"
       inkscape:vp_z="744.09448 : 526.18109 : 1"
       inkscape:persp3d-origin="372.04724 : 350.78739 : 1"
       id="perspective10-87-8" />
    <inkscape:perspective
       id="perspective10-00"
       inkscape:persp3d-origin="372.04724 : 350.78739 : 1"
       inkscape:vp_z="744.09448 : 526.18109 : 1"
       inkscape:vp_y="0 : 1000 : 0"
       inkscape:vp_x="0 : 526.18109 : 1"
       sodipodi:type="inkscape:persp3d" />
    <inkscape:perspective
       sodipodi:type="inkscape:persp3d"
       inkscape:vp_x="0 : 526.18109 : 1"
       inkscape:vp_y="0 : 1000 : 0"
       inkscape:vp_z="744.09448 : 526.18109 : 1"
       inkscape:persp3d-origin="372.04724 : 350.78739 : 1"
       id="perspective10-9-6" />
    <inkscape:perspective
       sodipodi:type="inkscape:persp3d"
       inkscape:vp_x="0 : 526.18109 : 1"
       inkscape:vp_y="0 : 1000 : 0"
       inkscape:vp_z="744.09448 : 526.18109 : 1"
       inkscape:persp3d-origin="372.04724 : 350.78739 : 1"
       id="perspective10-7-31" />
    <inkscape:perspective
       sodipodi:type="inkscape:persp3d"
       inkscape:vp_x="0 : 526.18109 : 1"
       inkscape:vp_y="0 : 1000 : 0"
       inkscape:vp_z="744.09448 : 526.18109 : 1"
       inkscape:persp3d-origin="372.04724 : 350.78739 : 1"
       id="perspective10-0-8" />
    <inkscape:perspective
       sodipodi:type="inkscape:persp3d"
       inkscape:vp_x="0 : 526.18109 : 1"
       inkscape:vp_y="0 : 1000 : 0"
       inkscape:vp_z="744.09448 : 526.18109 : 1"
       inkscape:persp3d-origin="372.04724 : 350.78739 : 1"
       id="perspective10-2-91" />
    <inkscape:perspective
       sodipodi:type="inkscape:persp3d"
       inkscape:vp_x="0 : 526.18109 : 1"
       inkscape:vp_y="0 : 1000 : 0"
       inkscape:vp_z="744.09448 : 526.18109 : 1"
       inkscape:persp3d-origin="372.04724 : 350.78739 : 1"
       id="perspective10-01-1" />
    <inkscape:perspective
       sodipodi:type="inkscape:persp3d"
       inkscape:vp_x="0 : 526.18109 : 1"
       inkscape:vp_y="0 : 1000 : 0"
       inkscape:vp_z="744.09448 : 526.18109 : 1"
       inkscape:persp3d-origin="372.04724 : 350.78739 : 1"
       id="perspective10-28-0" />
    <inkscape:perspective
       sodipodi:type="inkscape:persp3d"
       inkscape:vp_x="0 : 526.18109 : 1"
       inkscape:vp_y="0 : 1000 : 0"
       inkscape:vp_z="744.09448 : 526.18109 : 1"
       inkscape:persp3d-origin="372.04724 : 350.78739 : 1"
       id="perspective10-5-40" />
    <inkscape:perspective
       sodipodi:type="inkscape:persp3d"
       inkscape:vp_x="0 : 526.18109 : 1"
       inkscape:vp_y="0 : 1000 : 0"
       inkscape:vp_z="744.09448 : 526.18109 : 1"
       inkscape:persp3d-origin="372.04724 : 350.78739 : 1"
       id="perspective10-91-1" />
    <inkscape:perspective
       sodipodi:type="inkscape:persp3d"
       inkscape:vp_x="0 : 526.18109 : 1"
       inkscape:vp_y="0 : 1000 : 0"
       inkscape:vp_z="744.09448 : 526.18109 : 1"
       inkscape:persp3d-origin="372.04724 : 350.78739 : 1"
       id="perspective10-09-6" />
    <inkscape:perspective
       sodipodi:type="inkscape:persp3d"
       inkscape:vp_x="0 : 526.18109 : 1"
       inkscape:vp_y="0 : 1000 : 0"
       inkscape:vp_z="744.09448 : 526.18109 : 1"
       inkscape:persp3d-origin="372.04724 : 350.78739 : 1"
       id="perspective10-6-6" />
    <inkscape:perspective
       id="perspective10-97-7"
       inkscape:persp3d-origin="372.04724 : 350.78739 : 1"
       inkscape:vp_z="744.09448 : 526.18109 : 1"
       inkscape:vp_y="0 : 1000 : 0"
       inkscape:vp_x="0 : 526.18109 : 1"
       sodipodi:type="inkscape:persp3d" />
    <inkscape:perspective
       sodipodi:type="inkscape:persp3d"
       inkscape:vp_x="0 : 526.18109 : 1"
       inkscape:vp_y="0 : 1000 : 0"
       inkscape:vp_z="744.09448 : 526.18109 : 1"
       inkscape:persp3d-origin="372.04724 : 350.78739 : 1"
       id="perspective10-8-6" />
    <inkscape:perspective
       sodipodi:type="inkscape:persp3d"
       inkscape:vp_x="0 : 526.18109 : 1"
       inkscape:vp_y="0 : 1000 : 0"
       inkscape:vp_z="744.09448 : 526.18109 : 1"
       inkscape:persp3d-origin="372.04724 : 350.78739 : 1"
       id="perspective10-9-7-7" />
    <inkscape:perspective
       sodipodi:type="inkscape:persp3d"
       inkscape:vp_x="0 : 526.18109 : 1"
       inkscape:vp_y="0 : 1000 : 0"
       inkscape:vp_z="744.09448 : 526.18109 : 1"
       inkscape:persp3d-origin="372.04724 : 350.78739 : 1"
       id="perspective10-66-4" />
    <inkscape:perspective
       sodipodi:type="inkscape:persp3d"
       inkscape:vp_x="0 : 526.18109 : 1"
       inkscape:vp_y="0 : 1000 : 0"
       inkscape:vp_z="744.09448 : 526.18109 : 1"
       inkscape:persp3d-origin="372.04724 : 350.78739 : 1"
       id="perspective10-87-5" />
    <inkscape:perspective
       sodipodi:type="inkscape:persp3d"
       inkscape:vp_x="0 : 526.18109 : 1"
       inkscape:vp_y="0 : 1000 : 0"
       inkscape:vp_z="744.09448 : 526.18109 : 1"
       inkscape:persp3d-origin="372.04724 : 350.78739 : 1"
       id="perspective10-05-0" />
    <inkscape:perspective
       sodipodi:type="inkscape:persp3d"
       inkscape:vp_x="0 : 526.18109 : 1"
       inkscape:vp_y="0 : 1000 : 0"
       inkscape:vp_z="744.09448 : 526.18109 : 1"
       inkscape:persp3d-origin="372.04724 : 350.78739 : 1"
       id="perspective10-64-7" />
    <inkscape:perspective
       sodipodi:type="inkscape:persp3d"
       inkscape:vp_x="0 : 526.18109 : 1"
       inkscape:vp_y="0 : 1000 : 0"
       inkscape:vp_z="744.09448 : 526.18109 : 1"
       inkscape:persp3d-origin="372.04724 : 350.78739 : 1"
       id="perspective10-96-2" />
    <inkscape:perspective
       sodipodi:type="inkscape:persp3d"
       inkscape:vp_x="0 : 526.18109 : 1"
       inkscape:vp_y="0 : 1000 : 0"
       inkscape:vp_z="744.09448 : 526.18109 : 1"
       inkscape:persp3d-origin="372.04724 : 350.78739 : 1"
       id="perspective10-22-7" />
    <inkscape:perspective
       sodipodi:type="inkscape:persp3d"
       inkscape:vp_x="0 : 526.18109 : 1"
       inkscape:vp_y="0 : 1000 : 0"
       inkscape:vp_z="744.09448 : 526.18109 : 1"
       inkscape:persp3d-origin="372.04724 : 350.78739 : 1"
       id="perspective10-3-5" />
    <inkscape:perspective
       sodipodi:type="inkscape:persp3d"
       inkscape:vp_x="0 : 526.18109 : 1"
       inkscape:vp_y="0 : 1000 : 0"
       inkscape:vp_z="744.09448 : 526.18109 : 1"
       inkscape:persp3d-origin="372.04724 : 350.78739 : 1"
       id="perspective10-35-3" />
    <inkscape:perspective
       sodipodi:type="inkscape:persp3d"
       inkscape:vp_x="0 : 526.18109 : 1"
       inkscape:vp_y="0 : 1000 : 0"
       inkscape:vp_z="744.09448 : 526.18109 : 1"
       inkscape:persp3d-origin="372.04724 : 350.78739 : 1"
       id="perspective10-06-5" />
    <inkscape:perspective
       sodipodi:type="inkscape:persp3d"
       inkscape:vp_x="0 : 526.18109 : 1"
       inkscape:vp_y="0 : 1000 : 0"
       inkscape:vp_z="744.09448 : 526.18109 : 1"
       inkscape:persp3d-origin="372.04724 : 350.78739 : 1"
       id="perspective10-76-4" />
    <inkscape:perspective
       sodipodi:type="inkscape:persp3d"
       inkscape:vp_x="0 : 526.18109 : 1"
       inkscape:vp_y="0 : 1000 : 0"
       inkscape:vp_z="744.09448 : 526.18109 : 1"
       inkscape:persp3d-origin="372.04724 : 350.78739 : 1"
       id="perspective10-872-41" />
    <inkscape:perspective
       sodipodi:type="inkscape:persp3d"
       inkscape:vp_x="0 : 526.18109 : 1"
       inkscape:vp_y="0 : 1000 : 0"
       inkscape:vp_z="744.09448 : 526.18109 : 1"
       inkscape:persp3d-origin="372.04724 : 350.78739 : 1"
       id="perspective10-72-6" />
    <inkscape:perspective
       sodipodi:type="inkscape:persp3d"
       inkscape:vp_x="0 : 526.18109 : 1"
       inkscape:vp_y="0 : 1000 : 0"
       inkscape:vp_z="744.09448 : 526.18109 : 1"
       inkscape:persp3d-origin="372.04724 : 350.78739 : 1"
       id="perspective10-919-4" />
    <inkscape:perspective
       sodipodi:type="inkscape:persp3d"
       inkscape:vp_x="0 : 526.18109 : 1"
       inkscape:vp_y="0 : 1000 : 0"
       inkscape:vp_z="744.09448 : 526.18109 : 1"
       inkscape:persp3d-origin="372.04724 : 350.78739 : 1"
       id="perspective10-38-2" />
  </defs>
  <sodipodi:namedview
     id="base"
     pagecolor="#ffffff"
     bordercolor="#666666"
     borderopacity="1.0"
     inkscape:pageopacity="0.0"
     inkscape:pageshadow="2"
     inkscape:zoom="0.23734451"
     inkscape:cx="3630.0687"
     inkscape:cy="-857.28884"
     inkscape:document-units="px"
     inkscape:current-layer="layer1"
     showgrid="false"
     showguides="true"
     inkscape:guide-bbox="true"
     inkscape:window-width="1366"
     inkscape:window-height="717"
     inkscape:window-x="0"
     inkscape:window-y="0"
     inkscape:window-maximized="1">
    <sodipodi:guide
       position="1289.2651,716.25842"
       orientation="0,1"
       id="guide4548" />
    <sodipodi:guide
       position="2710.1954,534.29718"
       orientation="0,1"
       id="guide4664" />
    <sodipodi:guide
       position="4581.9472,-115.86533"
       orientation="1,0"
       id="guide4941" />
    <sodipodi:guide
       position="3023.9309,-148.96211"
       orientation="1,0"
       id="guide4943" />
    <sodipodi:guide
       position="3363.5645,-813.33314"
       orientation="0,1"
       id="guide4945" />
  </sodipodi:namedview>
  <metadata
     id="metadata7">
    <rdf:RDF>
      <cc:Work
         rdf:about="">
        <dc:format>image/svg+xml</dc:format>
        <dc:type
           rdf:resource="http://purl.org/dc/dcmitype/StillImage" />
        <dc:title></dc:title>
      </cc:Work>
    </rdf:RDF>
  </metadata>
  <g
     inkscape:label="Layer 1"
     inkscape:groupmode="layer"
     id="layer1">
    <rect
       y="1163.8193"
       x="2271.0637"
       height="968.78271"
       width="1505.7344"
       id="rect4845"
       style="opacity:1;fill:#000000;fill-opacity:1;stroke:#000000;stroke-width:1.88732421;stroke-miterlimit:4;stroke-dasharray:none;stroke-opacity:1" />
    <g
       style="fill:#ffffff;stroke:#ffffff;stroke-width:2.07043481;stroke-miterlimit:4;stroke-dasharray:none;stroke-opacity:1"
       transform="matrix(0.5607518,0,0,0.5607518,1247.3737,1155.8542)"
       id="g4847">
      <g
         transform="matrix(0.9789602,0,0,0.9789602,3060.3774,63.051768)"
         id="g4849"
         inkscape:label="Layer 1"
         style="fill:#ffffff;stroke:#ffffff;stroke-width:2.11493254;stroke-miterlimit:4;stroke-dasharray:none;stroke-opacity:1">
        <g
           transform="translate(-2.1064434,3.1164781)"
           inkscape:label="Layer 1"
           id="g4851"
           style="fill:#ffffff;stroke:#ffffff;stroke-width:2.11493254;stroke-miterlimit:4;stroke-dasharray:none;stroke-opacity:1">
          <path
             style="fill:#ffffff;stroke:#ffffff;stroke-width:2.11493254;stroke-miterlimit:4;stroke-dasharray:none;stroke-opacity:1"
             id="path4853"
             d="m 21.181968,974.21003 c 5.216487,-4.04455 10.771708,-7.60572 16.877808,-10.16099 1.467699,-0.6142 2.983281,-1.10702 4.474922,-1.66054 1.396747,-0.37763 2.767275,-0.87083 4.19024,-1.1329 1.408356,-0.25937 2.842999,-0.40931 4.27494,-0.42612 5.714304,-0.0671 9.412267,-0.69968 14.183025,1.57903 3.330266,1.59068 3.944175,2.66474 6.505253,5.2521 0.779294,1.32606 1.721402,2.56904 2.337887,3.97818 0.690526,1.57839 1.141028,3.25643 1.558434,4.92793 1.318866,5.28136 1.351552,10.27952 0.441817,15.63612 -0.294879,1.73626 -0.803232,3.42943 -1.204845,5.14415 -1.393691,4.99431 -3.684489,9.55471 -6.863339,13.64931 -0.979028,1.261 -2.004957,2.4982 -3.167772,3.5922 -2.779901,2.6151 -4.472268,3.3483 -7.708213,5.2121 -6.818679,3.3419 -14.401385,4.1161 -21.820242,5.1206 -2.144873,0.3817 -4.410836,0.7755 -6.206794,2.1066 -0.682715,0.506 -0.850376,0.7762 -1.385573,1.4098 -1.138915,1.6307 -1.871889,3.4938 -2.787424,5.2507 -1.011752,1.8375 -2.166324,3.5973 -2.599102,5.6724 0.243386,0.122 -0.251314,0.8002 0.0055,1.0265 0.0559,0.049 0.160844,-0.2076 0.08631,-0.2063 -2.335648,0.04 -4.664445,0.3359 -7.000414,0.3255 -0.134573,-6e-4 0.137866,-0.2321 0.190599,-0.3559 0.08507,-0.1997 0.147872,-0.4082 0.221805,-0.6122 0.668072,-2.0017 1.142786,-4.0578 1.780853,-6.0688 0.860505,-2.3577 2.189745,-3.995 4.192362,-5.4775 7.695978,-3.4224 15.146117,-0.1797 22.197235,2.7067 5.048026,2.1098 9.921607,4.6253 15.014638,6.6287 1.7433,0.6857 3.184493,1.1595 4.934756,1.7583 5.462395,1.7035 11.233972,1.6885 16.89355,1.4686 -4.503049,0.024 -2.987648,0.158 0.523704,-0.516 1.076605,-0.2067 2.139194,-0.4806 3.208791,-0.721 0,0 6.371427,0.4541 6.371427,0.4541 l 0,0 c -1.076461,0.2537 -2.144852,0.5444 -3.229391,0.761 -4.472251,0.8931 -8.222361,0.9932 -13.069777,1.4319 -5.764807,0.1688 -11.698072,0.2219 -17.225022,-1.6521 -1.78214,-0.6787 -2.868375,-1.0734 -4.668963,-1.8476 -4.980136,-2.1413 -9.776495,-4.6987 -14.844941,-6.6405 -2.662243,-1.0194 -4.547571,-1.8139 -7.260071,-2.5886 -1.015147,-0.2899 -2.040333,-0.5546 -3.080087,-0.7376 -0.796716,-0.1401 -3.194579,-0.01 -2.415989,-0.2294 1.558674,-0.4395 3.217851,-0.4326 4.837171,-0.4533 0.445089,-0.01 -0.847772,0.2717 -1.271661,0.4075 -0.334244,0.2141 -0.685558,0.4037 -1.002733,0.6423 -1.457161,1.0966 -2.442703,2.7336 -3.152697,4.382 -0.658292,1.9928 -1.167422,4.0269 -1.67356,6.0627 -0.05883,0.2112 -0.121411,0.4213 -0.176523,0.6335 -0.0471,0.1813 0.05453,0.5149 -0.130101,0.5469 -6.031347,1.0469 -7.839446,2.9082 -7.229226,-0.8262 0.06612,-0.3398 0.10563,-0.6859 0.198383,-1.0195 0.488674,-1.7574 1.61245,-3.2465 2.428299,-4.8521 0.942897,-1.7831 1.634556,-3.699 2.758031,-5.3856 0.53894,-0.7011 0.74495,-1.049 1.446779,-1.6228 1.881575,-1.5381 4.332096,-1.9881 6.65833,-2.3854 7.531016,-0.9577 15.223267,-1.6356 22.210363,-4.8574 3.33895,-1.8184 4.892659,-2.4163 7.771742,-5.0138 5.00348,-4.5144 8.150412,-10.6064 10.152504,-16.94426 0.403876,-1.69037 0.914575,-3.35873 1.211627,-5.07108 1.159888,-6.68627 0.811549,-13.94268 -2.144707,-20.1593 -0.64576,-1.35795 -1.602156,-2.54503 -2.403234,-3.81755 -2.610543,-2.5032 -3.157664,-3.46196 -6.494522,-4.96634 -1.227069,-0.55321 -2.947123,-0.22738 -3.846521,-1.22879 -0.468122,-0.52122 2.529938,-0.80431 1.854265,-0.98944 -1.914861,-0.52466 -6.844859,0.96013 -8.575278,1.39155 -1.499868,0.53593 -3.025662,1.00417 -4.499597,1.60777 -5.817217,2.38226 -11.317016,5.70151 -15.845315,10.08043 0,0 -7.0095,-0.22026 -7.0095,-0.22026 z"
             inkscape:connector-curvature="0" />
        </g>
      </g>
      <g
         transform="matrix(0.91529942,0,0,0.88285496,3129.6867,160.67503)"
         id="g4855"
         inkscape:label="Layer 1"
         style="fill:#ffffff;stroke:#ffffff;stroke-width:2.30321908;stroke-miterlimit:4;stroke-dasharray:none;stroke-opacity:1">
        <g
           transform="translate(-2.91731,0.019186)"
           inkscape:label="Layer 1"
           id="g4857"
           style="fill:#ffffff;stroke:#ffffff;stroke-width:2.30321908;stroke-miterlimit:4;stroke-dasharray:none;stroke-opacity:1">
          <path
             style="fill:#ffffff;stroke:#ffffff;stroke-width:2.30321908;stroke-miterlimit:4;stroke-dasharray:none;stroke-opacity:1"
             id="path4859"
             d="m 71.745525,997.01709 c -0.701056,1.39929 -1.652765,2.70574 -2.83217,3.93491 -3.865062,3.1361 -8.503678,4.5998 -13.717684,6.6667 -2.546841,0.6603 -5.417398,1.1018 -8.124275,0.6185 -0.931851,-0.1664 -1.807366,-0.4603 -2.711033,-0.6903 -2.757406,-1.1477 -4.397551,-1.7257 -6.898736,-3.2436 -4.413967,-2.6789 -8.070918,-5.94774 -11.251275,-9.35318 -1.123001,-1.20255 -2.132954,-2.45474 -3.19943,-3.6821 -0.867306,-1.32849 -1.850555,-2.62292 -2.601919,-3.98548 -0.765038,-1.38737 -1.361442,-2.81866 -1.939199,-4.24961 -1.451925,-3.59607 -2.561947,-7.31449 -2.022869,-11.07286 0.140502,-0.97938 0.531621,-1.93321 0.797449,-2.89981 1.292742,-2.03023 1.668125,-3.06044 3.774409,-4.72701 1.544758,-1.22228 3.745356,-2.31937 5.79355,-3.08582 9.754798,-3.65026 6.507529,-2.94011 13.258102,-3.96353 1.243983,-0.0265 2.491851,-0.15302 3.731969,-0.0795 6.29603,0.37321 12.838797,2.65634 17.642267,5.43871 1.551877,0.8989 2.919229,1.94291 4.378852,2.91435 1.32774,1.21983 2.765819,2.38466 3.98322,3.65947 3.994407,4.18274 6.991175,8.91873 9.135608,13.70678 1.726846,3.85562 2.266318,6.22954 3.406059,10.16226 1.472429,7.06663 1.104062,14.22713 -0.635386,21.25143 -0.854568,3.4509 -2.03629,6.5901 -3.222184,9.9856 -2.740034,6.7076 -5.352325,13.5082 -9.785231,19.7872 -2.663398,3.0678 -4.103794,3.1585 -9.992338,5.3103 -0.551172,0.2014 -1.681632,0 -2.171562,-0.1881 -0.361709,-0.1432 -0.643816,-0.3678 -0.965725,-0.5517 -3.211113,-3.1362 -4.235319,-7.087 -5.331498,-10.7897 -1.002204,-4.4196 -1.452027,-8.5055 -0.247706,-12.94 0.694737,-2.5582 1.287208,-3.5291 2.447062,-5.9307 1.084631,-2.0397 2.652788,-3.9145 4.648919,-5.5821 0.612225,-0.5114 1.966549,-1.5059 2.842796,-1.8825 2.653538,-1.1402 5.390781,-2.1824 8.08618,-3.2737 4.510939,-1.1436 9.341931,-1.4923 14.102144,-1.7079 2.465778,0.058 1.332832,-0.012 3.402313,0.1605 0,0 -6.411615,3.1662 -6.411615,3.1662 l 0,0 c -1.855291,-0.197 -0.825599,-0.1202 -3.095255,-0.1848 -4.770023,0.2144 -9.628689,0.6024 -14.039184,1.9719 1.711792,-0.7113 3.386441,-1.4683 5.135341,-2.1341 0.539745,-0.2055 -1.028123,0.4742 -1.49944,0.75 -0.566771,0.3316 -1.105442,0.6883 -1.607361,1.0674 -2.155654,1.6283 -3.89725,3.4882 -5.108689,5.5411 -1.240289,2.3209 -1.964915,3.411 -2.678981,5.8968 -1.214061,4.2263 -0.739085,8.4962 0.36004,12.7048 1.153757,3.5286 2.318959,7.3358 5.67299,10.2041 0.662005,0.2848 0.85002,0.4761 1.654144,0.4269 0.317395,-0.019 1.186217,-0.3017 0.921105,-0.1782 -12.496674,5.8204 -5.433935,2.4588 -4.26485,1.5396 0.496657,-0.3907 0.890928,-0.8394 1.336374,-1.259 0.484992,-0.5947 1.007535,-1.1754 1.454956,-1.7844 4.231999,-5.7605 6.839385,-12.0286 9.404076,-18.2207 1.15144,-3.1746 2.535364,-6.7569 3.357897,-9.9807 1.776933,-6.9644 2.156387,-14.0864 0.654886,-21.09333 -1.162051,-4.21263 -1.472531,-5.98595 -3.340356,-10.10955 -2.145607,-4.73682 -5.171838,-9.41173 -9.231813,-13.50725 -1.231449,-1.24221 -2.692673,-2.36513 -4.039011,-3.54769 -1.487518,-0.93272 -2.889953,-1.93627 -4.462521,-2.79814 -5.016624,-2.74942 -11.288794,-4.81008 -17.738966,-5.00531 -1.22675,-0.0371 -2.450843,0.1089 -3.676263,0.16342 -9.699399,1.63873 0.659313,0.24559 -0.680195,-0.95091 -0.73561,-0.65707 -2.11318,0.78562 -3.090298,1.26489 -3.350711,1.64353 -5.32426,3.58059 -6.861133,6.21852 -0.918772,2.72475 -1.33835,3.23548 -1.243388,6.15032 0.12738,3.9088 1.73669,8.34125 3.749681,11.96652 0.746714,1.34478 1.723663,2.62144 2.585485,3.93216 1.043655,1.2226 2.004952,2.48145 3.130951,3.66782 3.18073,3.35119 7.004136,6.5368 11.527662,9.04863 2.84518,1.5798 4.019816,1.8639 7.122667,2.9511 0.925653,0.1715 1.833167,0.401 2.77694,0.5144 2.727518,0.3276 5.542505,-0.1767 8.020952,-0.9387 -1.838515,0.7614 -3.677029,1.5226 -5.515544,2.2839 0.413787,-0.1774 0.840926,-0.3404 1.241345,-0.5322 1.678684,-0.8042 3.152034,-1.8187 4.626115,-2.7909 1.207898,-1.135 2.189545,-2.3621 2.750799,-3.72962 0,0 7.319778,-2.40248 7.319778,-2.40248 z"
             inkscape:connector-curvature="0" />
        </g>
      </g>
      <g
         transform="translate(3205.5669,43.669128)"
         id="g4861"
         inkscape:label="Layer 1"
         style="fill:#ffffff;stroke:#ffffff;stroke-width:2.07043481;stroke-miterlimit:4;stroke-dasharray:none;stroke-opacity:1">
        <g
           transform="translate(0.40607,0.471175)"
           inkscape:label="Layer 1"
           id="g4863"
           style="fill:#ffffff;stroke:#ffffff;stroke-width:2.07043481;stroke-miterlimit:4;stroke-dasharray:none;stroke-opacity:1">
          <path
             style="fill:#ffffff;stroke:#ffffff;stroke-width:2.07043481;stroke-miterlimit:4;stroke-dasharray:none;stroke-opacity:1"
             id="path4865"
             d="m 4.2542107,1019.8273 c 5.8559493,-4.8257 12.5191263,-8.6157 19.3310993,-11.9181 2.859006,-1.2172 5.862482,-2.8817 9.060496,-2.9462 0.485944,-0.014 0.968238,0.086 1.452358,0.1302 2.934508,0.7577 4.901159,3.1302 7.058417,5.0837 1.845672,1.3747 3.25334,3.4458 5.343365,4.4847 0.411782,0.2047 0.860405,0.3249 1.290608,0.4873 0.957914,0.092 1.385776,0.224 2.329082,-0.037 1.942666,-0.5383 12.963562,-7.1012 -3.482202,2.2083 4.047886,-2.8273 8.313571,-5.101 12.680591,-7.5106 1.463266,-0.8073 2.72091,-1.1502 4.264726,-1.8043 0.729219,-0.309 1.439754,-0.6603 2.159632,-0.9904 2.700475,-1.0914 5.581841,-2.7985 8.620701,-2.3011 0.449022,0.073 0.873578,0.2549 1.310368,0.3825 2.859071,1.1884 4.991061,3.5538 7.187276,5.6568 2.772453,2.6651 5.000904,5.7953 7.328353,8.8347 1.89771,2.196 3.157721,4.8197 4.744573,7.2227 0,0 -8.317171,4.8253 -8.317171,4.8253 l 0,0 c -1.380723,-2.4879 -2.6998,-5.0268 -4.505261,-7.2453 -2.296026,-3.0211 -4.61,-6.019 -7.377265,-8.6351 -2.086969,-2.0134 -4.141875,-4.2691 -6.973033,-5.1938 -0.386755,-0.073 -0.767691,-0.1907 -1.160265,-0.2183 -2.896831,-0.2029 -5.578518,1.4746 -8.173934,2.4735 -0.719777,0.316 -1.437431,0.6371 -2.159331,0.9483 -0.763673,0.3292 -1.540307,0.6286 -2.29729,0.973 -0.67939,0.309 -2.639229,1.3879 -2.010174,0.9864 2.080099,-1.3283 4.247724,-2.5144 6.371588,-3.7715 -0.473523,0.3171 -0.948817,0.6316 -1.420565,0.9513 -0.46753,0.3169 -0.931483,0.6389 -1.397224,0.9583 -3.177609,1.8709 -6.340918,3.7661 -9.532828,5.6123 -1.93222,1.1176 -3.966353,1.7382 -6.150662,0.9888 -0.460832,-0.2108 -0.94016,-0.3851 -1.382498,-0.6324 -2.078566,-1.162 -3.576528,-3.1411 -5.409227,-4.6209 -2.023528,-1.8146 -3.893135,-4.0703 -6.724962,-4.5187 -3.622412,-0.014 -6.791228,1.5167 -10.009216,3.0358 -3.243337,1.6237 -5.310499,2.7223 3.542683,-2.2968 0.727356,-0.4123 -1.425007,0.8762 -2.117078,1.3454 -0.283068,0.1919 -2.950249,2.1495 -3.36486,2.4606 -0.382743,0.2872 -0.758725,0.5835 -1.138092,0.8752 0,0 -8.9727783,3.7167 -8.9727783,3.7167 z"
             inkscape:connector-curvature="0" />
          <path
             style="fill:#ffffff;stroke:#ffffff;stroke-width:2.07043481;stroke-miterlimit:4;stroke-dasharray:none;stroke-opacity:1"
             id="path4867"
             d="m 25.627722,988.75101 c -1.402078,0.80126 -2.76104,1.68318 -4.206235,2.40377 -0.829343,0.41352 1.566428,-0.99076 2.353493,-1.47997 2.245493,-1.39574 4.464098,-2.83488 6.722835,-4.20908 4.020928,-2.44629 8.679985,-4.87744 12.660773,-7.04933 3.670202,-1.67607 7.359012,-3.33521 11.163134,-4.69036 1.967184,-0.70077 3.593434,-1.24394 5.66235,-1.49293 0.803961,-0.0968 1.618488,-0.0579 2.427733,-0.0869 0.805547,0.13292 1.628749,0.18477 2.416642,0.39878 3.039106,0.82548 5.715344,2.72451 8.172618,4.61201 1.075511,0.82613 2.152468,1.65632 3.149002,2.57618 1.125905,1.03927 2.138844,2.19461 3.208265,3.29192 3.238662,3.21187 6.254415,6.63055 8.94389,10.31619 0.807144,1.1061 1.552809,2.25578 2.329214,3.38368 0,0 -5.092351,2.98638 -5.092351,2.98638 l 0,0 c -0.742981,-1.1338 -1.445412,-2.29524 -2.228945,-3.40141 -2.623373,-3.70359 -5.671869,-7.06038 -8.877248,-10.26469 -1.095527,-1.05595 -2.139419,-2.16824 -3.286583,-3.16785 -3.023385,-2.63451 -7.502538,-5.77299 -11.492734,-6.68572 -0.771775,-0.17653 -1.57109,-0.19718 -2.356635,-0.29578 -0.767389,0.0385 -1.540461,0.0147 -2.302167,0.11553 -1.8702,0.24765 -3.641278,0.80883 -5.414579,1.43051 -3.745415,1.31307 -7.373674,2.93962 -10.967059,4.61621 0.361846,-0.29091 1.503297,-1.07531 1.085537,-0.87273 -2.080908,1.00906 -5.110504,3.06258 -7.074069,4.31501 -1.000258,0.63801 -2.014039,1.25476 -3.010496,1.89869 -0.712257,0.46026 -1.38837,0.97673 -2.115209,1.41361 -2.353496,1.4146 -4.748347,2.75924 -7.12252,4.13886 0,0 5.251344,-4.20058 5.251344,-4.20058 z"
             inkscape:connector-curvature="0" />
        </g>
      </g>
      <path
         style="fill:#ffffff;stroke:#ffffff;stroke-width:2.07043481;stroke-miterlimit:4;stroke-dasharray:none;stroke-opacity:1"
         id="path4869"
         d="m 3334.6833,1005.7197 c 4.8421,2.2647 9.7136,4.5426 13.9,8.1653 1.4834,1.2837 2.833,2.7496 4.2496,4.1243 1.4077,1.5914 2.8841,3.1104 4.2233,4.774 1.4031,1.7431 2.7049,3.5862 3.9946,5.4354 3.5452,5.0832 6.7487,10.4757 9.0205,16.4259 0.6634,1.7374 1.1388,3.557 1.7083,5.3356 1.291,5.8174 2.3291,11.8979 1.3353,17.8863 -0.5139,3.0965 -0.8483,3.4172 -2.0367,6.1441 -0.5082,0.7453 -0.9529,1.5504 -1.5247,2.2359 -2.4106,2.8891 -7.7475,5.6582 -9.8005,6.9346 -2.0014,1.2444 -4.1852,1.8814 -6.3806,2.524 -2.7241,0.7053 -5.6248,0.8568 -8.4049,0.447 -1.8529,-0.2733 -3.0382,-0.7091 -4.8405,-1.2583 -1.6574,-0.7492 -3.3642,-1.3778 -4.8194,-2.5948 -2.1027,-1.7584 -3.8081,-4.4922 -4.6958,-7.2385 -0.3243,-1.0031 -0.4725,-2.0668 -0.7087,-3.1004 -0.068,-1.1563 -0.2315,-2.3106 -0.205,-3.4692 0.09,-3.9063 1.1296,-8.0074 2.6795,-11.4946 1.3967,-3.1428 2.7237,-4.8619 4.5969,-7.6716 5.6136,-7.6157 12.9438,-13.192 19.6228,-19.517 1.1809,-1.1183 2.3187,-2.2921 3.4781,-3.4382 2.8669,-2.5903 5.3519,-5.9167 8.5964,-7.9763 2.5645,-1.6278 5.1243,-3.2729 7.769,-4.7317 0.5147,-0.284 1.1126,-0.3162 1.669,-0.4743 0.6417,-0.054 1.282,-0.1385 1.9253,-0.1626 2.7588,-0.1037 5.5278,0.113 8.2855,0.1566 2.0943,0.033 3.9929,0 6.0835,-0.03 1.766,0.044 3.5244,-0.2333 5.2898,-0.1725 0.2069,0.01 1.6337,0.085 0.8441,0.7563 -2.103,1.7893 -4.4694,3.1549 -6.7042,4.7324 -3.1948,1.8685 2.8815,-1.9435 4.3792,-2.7975 0.5301,-0.3022 -0.9944,0.7327 -1.4671,1.1366 -2.0093,1.7168 -3.5458,3.795 -5.1315,5.9762 -2.1576,3.2899 -4.4858,7.0286 -5.0599,11.1674 -0.067,0.4821 -0.043,0.9746 -0.064,1.4619 0.1696,0.8443 0.1234,1.2025 0.6537,1.8359 1.0567,1.2622 4.4265,1.0587 5.7072,1.0812 4.9231,-0.105 16.6821,-8.3763 24.3633,-9.9982 0,0 -5.3325,4.4829 -5.3325,4.4829 l 0,0 c -6.3696,2.0428 -19.656,9.8262 -24.673,10.0902 -2.243,0.012 -5.9806,0.5253 -6.9715,-2.5284 -0.1365,-0.4206 -0.1605,-0.8768 -0.2407,-1.3152 0.028,-0.5478 0,-1.102 0.083,-1.6433 0.6094,-4.1424 2.9937,-8.2888 5.1768,-11.5951 1.0671,-1.5463 2.1086,-3.1497 3.3247,-4.561 3.0863,-3.5819 7.3814,-5.4996 11.0992,-8.068 -1.9868,1.4226 -3.9736,2.8453 -5.9604,4.268 0.1207,0.1371 0.3608,0.2191 0.3623,0.4115 0,0.1367 -0.2381,-0.066 -0.3597,-0.081 -0.3123,-0.038 -0.6259,-0.064 -0.9397,-0.077 -0.6268,-0.026 -3.6069,-0.044 -3.9367,-0.046 -2.2427,0 -3.7991,0 -6.0575,-0.014 -2.8176,-0.023 -5.6655,-0.1629 -8.4775,0.1244 -0.638,0.065 -1.2682,0.2049 -1.9023,0.3074 -3.2753,1.1237 -2.052,0.8704 2.9008,-2.5855 0.5695,-0.3974 -1.1565,0.7651 -1.7093,1.191 -2.6995,2.0792 -5.103,4.5918 -7.58,6.9771 -4.3145,4.2057 -3.1322,3.1363 -7.8238,7.3458 -5.338,4.7895 -10.7954,9.4994 -15.2027,15.4128 -1.7794,2.6271 -3.2155,4.4958 -4.5555,7.4389 -1.5245,3.3487 -2.5677,7.3347 -2.6599,11.1061 -0.027,1.106 0.1345,2.2075 0.2017,3.3113 0.226,0.9814 0.3691,1.9913 0.6779,2.9441 0.8538,2.6353 2.4404,5.1744 4.4837,6.8273 1.5822,1.28 2.9256,1.6699 4.7378,2.4162 0.8064,0.2252 1.6045,0.492 2.4192,0.6758 3.5122,0.7923 7.1922,0.6867 10.6698,-0.2434 1.852,-0.5868 2.4715,-0.7117 4.2592,-1.5707 0.6822,-0.3279 2.6053,-1.5755 2.0025,-1.0908 -1.2607,1.0135 -2.5754,1.9719 -3.9899,2.6885 -0.7241,0.3668 1.3135,-1.0137 1.8904,-1.625 0.6082,-0.6446 1.098,-1.4156 1.6471,-2.1234 1.2926,-2.6078 1.671,-2.9585 2.2884,-5.9811 1.2061,-5.9041 0.3244,-11.9898 -0.8341,-17.7986 -0.5283,-1.7728 -0.9588,-3.5857 -1.5849,-5.3181 -2.8703,-7.9417 -7.5961,-15.4837 -12.787,-21.7414 -1.3544,-1.6327 -2.8501,-3.1116 -4.2751,-4.6674 -1.4624,-1.3077 -2.8588,-2.7132 -4.3871,-3.9231 -4.4272,-3.5052 -9.5431,-5.7183 -14.729,-7.3594 0,0 6.2142,-4.6732 6.2142,-4.6732 l 1e-4,0 z"
         sodipodi:nodetypes="cscssscscsscscsscsscscsscsscsscsscscscccccscscsccsssssscsscscsscsscscsssscscsscsccc"
         inkscape:connector-curvature="0" />
      <ellipse
         style="opacity:1;fill:#ffffff;fill-opacity:1;stroke:#ffffff;stroke-width:2.07043481;stroke-miterlimit:4;stroke-dasharray:none;stroke-opacity:1"
         id="ellipse4871"
         cx="3313.1985"
         cy="1052.527"
         rx="4.9706078"
         ry="5.2005415" />
    </g>
    <text
       xml:space="preserve"
       style="font-style:normal;font-weight:normal;font-size:150.46961975px;line-height:125%;font-family:sans-serif;letter-spacing:0px;word-spacing:0px;fill:#ffffff;fill-opacity:1;stroke:none;stroke-width:1px;stroke-linecap:butt;stroke-linejoin:miter;stroke-opacity:1"
       x="2670.2053"
       y="1903.7498"
       id="text4873"
       sodipodi:linespacing="125%"><tspan
         sodipodi:role="line"
         id="tspan4875"
         x="2670.2053"
         y="1903.7498"
         style="font-style:normal;font-variant:normal;font-weight:normal;font-stretch:normal;font-family:Sawasdee;-inkscape-font-specification:Sawasdee;fill:#ffffff">TAMBORA</tspan></text>
    <path
       inkscape:connector-curvature="0"
       id="path4877"
       d="m 3071.4848,1517.0417 c -1.2142,-0.044 -2.3017,0.01 -3.8203,0.1309 -4.7613,0.3883 -9.9396,1.2612 -12.9004,2.1738 -2.2983,0.7084 -5.1863,1.0748 -13.3496,1.6992 -1.9819,0.1517 -5.4065,0.7185 -8.0469,1.3321 -8.6222,2.0035 -11.1671,2.3585 -15.4297,2.1504 -2.1037,-0.1028 -3.8242,-0.1069 -3.8242,-0.01 0,0.097 1.1654,1.4816 2.5899,3.0761 4.5767,5.1229 11.2877,13.7686 15.58,20.0743 0.8146,1.1966 1.6406,2.1153 1.8379,2.041 0.1974,-0.074 2.3933,-1.4958 4.8789,-3.1582 2.4856,-1.6624 8.3567,-5.7099 13.0469,-8.9961 14.4473,-10.1226 20.7053,-14.1441 27.1543,-17.4492 3.6719,-1.8819 3.8063,-1.7689 -3.1387,-2.6309 -2.0246,-0.2513 -3.3639,-0.3899 -4.5781,-0.4336 z m -124.0898,40.418 c -0.9721,0.244 -6.4534,4.4524 -10.0821,7.7422 -9.8453,8.9259 -17.5701,18.3031 -20.9824,25.4687 -1.4177,2.9773 -1.8208,4.4542 -2.7012,9.8731 -0.362,2.2275 -0.9182,5.3859 -1.2363,7.0176 -1.3496,6.9231 -0.1983,14.3672 4.2207,27.2832 3.3453,9.7776 6.4746,15.0245 10.6953,17.9297 0.6852,0.4716 1.6844,1.569 2.2188,2.4375 1.682,2.7336 4.4777,6.2168 7.5723,9.4297 1.6439,1.7067 3.0932,3.1015 3.2207,3.1015 0.1275,0 2.1586,-3.0704 4.5117,-6.8242 2.3531,-3.7537 4.677,-7.4584 5.164,-8.2324 l 0.8848,-1.4063 -1.7363,-2.0429 c -7.1193,-8.3739 -10.6142,-17.8756 -10.2422,-27.8438 0.3619,-9.6964 4.158,-17.5333 12.6601,-26.1309 4.271,-4.3189 7.9961,-7.316 14.3536,-11.5488 2.5776,-1.7162 4.6557,-3.2756 4.6171,-3.4668 -0.039,-0.1912 -5.1119,-5.4337 -11.2734,-11.6504 -9.4387,-9.5234 -11.3056,-11.2771 -11.8652,-11.1367 z m 157.3398,11.2832 c -0.214,0 -18.5546,15.7666 -20.207,17.3711 l -0.834,0.8125 0.9004,2.7559 c 1.6959,5.1897 2.2509,8.8934 2.2363,14.9121 -0.011,4.6489 -0.1227,5.9223 -0.8027,9.1562 -1.0236,4.868 -2.7832,9.9406 -5.1992,14.9922 l -1.9375,4.0508 2.584,6.7461 c 3.5132,9.1742 7.0135,19.0759 8.5644,24.2285 0.7077,2.3513 1.3735,4.2754 1.4785,4.2754 0.1049,0 1.3483,-1.5866 2.7637,-3.5254 12.761,-17.4801 19.8609,-33.8773 21.207,-48.9746 0.1692,-1.8975 0.6772,-5.621 1.127,-8.2734 l 0.8164,-4.8223 -0.6641,-2.9766 c -1.2182,-5.4522 -2.1926,-11.9385 -2.3164,-15.4277 -0.1959,-5.5174 -0.2582,-5.7566 -1.9004,-7.2481 -0.7888,-0.7165 -2.0597,-1.774 -2.8242,-2.3515 -0.7645,-0.5775 -2.1519,-2.0963 -3.082,-3.375 -0.9302,-1.2788 -1.7898,-2.3262 -1.9102,-2.3262 z m -69.1777,103.6094 c -0.7647,-0.028 -2.082,0.2872 -4.8028,0.916 -5.6654,1.3094 -10.1562,1.6758 -20.5898,1.6758 l -9.5039,0 -1.3242,1.5742 c -3.4624,4.1173 -13.7227,17.6938 -13.7227,18.1582 0,0.1817 0.5894,0.4195 1.3086,0.5274 1.0107,0.1515 1.5854,0.053 2.5313,-0.4297 l 1.2226,-0.6231 5.959,2.961 c 8.4222,4.1859 13.1027,5.8631 18.8574,6.7578 3.674,0.5712 11.9314,0.582 15.9649,0.019 l 0,0 c 4.097,-0.5714 9.4693,-1.879 13.5566,-3.3008 3.7929,-1.3194 10.143,-4.0084 10.3828,-4.3965 0.095,-0.1534 -0.9584,-1.4517 -2.3398,-2.8867 -4.765,-4.9501 -11.8761,-13.7449 -16.0117,-19.8008 -0.5117,-0.7492 -0.7236,-1.1219 -1.4883,-1.1504 z"
       style="opacity:1;fill:#ff6600;fill-opacity:1;stroke:none" />
    <path
       style="fill:#ffffff;fill-opacity:1"
       d="m 2947.4376,1487.1526 c -10.4277,0.1379 -19.938,3.5612 -26.0488,9.5898 -2.8067,2.7689 -3.2754,3.7464 -3.2754,6.8359 0,5.1113 4.376,13.8984 11.8066,23.7071 8.2024,10.8274 19.1167,22.6721 45.668,49.5605 7.741,7.8393 16.0735,16.3246 18.5156,18.8555 l 4.4395,4.6016 -0.5117,0.7949 c -0.2812,0.4374 -3.1412,4.3525 -6.3555,8.7011 -25.0385,33.8742 -46.8134,68.4229 -63.0762,100.0782 -14.3974,28.0241 -21.9285,49.997 -20.1152,58.6816 0.6204,2.9711 3.8958,7.2538 6.4297,8.4043 1.4704,0.6677 4.0397,0.7356 5.6797,0.1504 3.188,-1.1376 8.1865,-5.3237 11.2851,-9.4512 2.5861,-3.4819 2.3122,-3.0388 6.0313,-7.9687 -3e-4,-0.4715 30.6034,-42.9054 41.5937,-57.6719 1.6332,-1.7098 5.3482,-6.8569 6.1094,-7.3457 0,-0.4644 10.2602,-14.0409 13.7226,-18.1583 l 1.586,-2.2539 c 0.023,-1.0313 23.7494,-29.449 24.4082,-29.2343 0.5852,0.1906 6.8555,8.7295 14.8066,20.164 12.1543,17.479 16.5043,23.1066 23.1641,29.9668 7.3559,7.5773 15.6944,13.8494 23.9023,17.9785 2.0244,1.0185 2.1683,1.0488 2.6172,0.5528 0.978,-1.0807 2.9792,-5.9234 3.8145,-9.2305 2.1676,-8.5828 1.7774,-18.3205 -1.2383,-30.9746 -0.486,-2.039 -0.8828,-3.8847 -0.8828,-4.1016 0,-0.1683 0.6023,-1.0854 1.3496,-2.1328 -0.06,-0.181 -0.1273,-0.3975 -0.1914,-0.5957 -0.6215,0.8036 -1.0945,1.3867 -1.1543,1.3867 -0.105,0 -0.7708,-1.9241 -1.4785,-4.2754 -1.5509,-5.1526 -5.0513,-15.0543 -8.5645,-24.2285 l -2.584,-6.7461 -0.6504,-0.9336 c -0.7681,-1.2848 -11.3261,-29.7054 -11.3261,-30.4882 0,-0.2709 1.5802,-1.8172 3.5117,-3.4356 1.9315,-1.6184 5.5365,-4.6646 8.0117,-6.7695 l 5.2559,-4.2403 0.834,-0.8125 c 1.6524,-1.6046 19.993,-17.3711 20.207,-17.3711 2.594,-2.2922 4.3378,-4.1658 6.332,-5.9121 7.3486,-6.4209 17.0857,-14.7647 22.9453,-19.6641 3.9209,-3.2784 4.6633,-4.0407 5.3907,-5.5273 0.6852,-1.4006 0.8437,-2.1265 0.8437,-3.8672 0,-1.8641 -0.1424,-2.4343 -1.1016,-4.375 -1.6958,-3.4312 -4.0727,-5.7 -8.5839,-8.1953 -14.7133,-8.1385 -28.3939,-6.6446 -48.0469,5.2461 -4.4393,2.6859 -9.825,6.3019 -20.5508,13.7988 -10.4801,7.3252 -16.0633,11.0878 -20.7305,13.9727 -2.6237,1.6218 -3.2613,1.9032 -3.5625,1.5742 l -5.3867,-8.125 c -4.2923,-6.3057 -11.0034,-14.9514 -15.5801,-20.0742 l -6.2578,-6.3106 c -3.7823,-4.1451 -13.0437,-12.8077 -16.9746,-15.8769 -12.9853,-10.139 -26.0257,-16.1437 -38.6973,-17.8164 -2.4735,-0.3266 -4.9295,-0.4694 -7.3359,-0.4375 z"
       id="path4879"
       inkscape:connector-curvature="0"
       sodipodi:nodetypes="ssssscccsscsscccccccssscccsccsscccsscccccscscssscccccssss" />
    <path
       inkscape:connector-curvature="0"
       style="fill:#ffffff;fill-opacity:1;stroke:none"
       d="m 2947.4372,1487.1534 c -10.4277,0.138 -19.938,3.5613 -26.0488,9.5899 -2.8067,2.7689 -3.2754,3.7464 -3.2754,6.8359 0,5.1112 4.3761,13.8984 11.8067,23.707 8.2024,10.8274 19.1166,22.6722 45.6679,49.5606 7.741,7.8392 16.0736,16.3246 18.5157,18.8555 l 4.4394,4.6015 -0.5117,0.7949 c -0.2812,0.4375 -3.1412,4.3526 -6.3555,8.7012 -6.5521,8.8643 -12.8726,17.7733 -18.9375,26.666 l 95.2227,-31.9316 c -0.6011,-1.7095 -1.0469,-3.0163 -1.0469,-3.1621 0,-0.2709 1.5802,-1.8172 3.5117,-3.4356 1.9315,-1.6184 5.5365,-4.6646 8.0117,-6.7695 l 5.2559,-4.2402 0.834,-0.8125 c 1.6524,-1.6046 19.993,-17.3711 20.207,-17.3711 2.594,-2.2922 4.3378,-4.1658 6.332,-5.9121 7.3486,-6.4209 17.0858,-14.7647 22.9454,-19.6641 3.9209,-3.2784 4.6632,-4.0407 5.3906,-5.5273 0.6852,-1.4006 0.8437,-2.1266 0.8437,-3.8672 0,-1.8641 -0.1423,-2.4343 -1.1015,-4.375 -1.6958,-3.4313 -4.0728,-5.7 -8.584,-8.1953 -14.7133,-8.1385 -28.3939,-6.6446 -48.0469,5.246 -4.4393,2.686 -9.825,6.302 -20.5508,13.7989 -10.4801,7.3252 -16.0632,11.0878 -20.7304,13.9726 -2.6237,1.6218 -3.2613,1.9033 -3.5625,1.5742 l -5.3868,-8.125 c -4.2923,-6.3056 -11.0033,-14.9514 -15.58,-20.0742 l -6.2578,-6.3105 c -3.7823,-4.1452 -13.0438,-12.8077 -16.9747,-15.877 -12.9853,-10.1389 -26.0256,-16.1436 -38.6972,-17.8164 -2.4735,-0.3265 -4.9296,-0.4693 -7.336,-0.4375 z"
       id="path4881" />
    <rect
       style="opacity:1;fill:#ffffff;fill-opacity:1;stroke:#000000;stroke-width:1.88732421;stroke-miterlimit:4;stroke-dasharray:none;stroke-opacity:1"
       id="rect4885"
       width="1505.7344"
       height="968.78271"
       x="3829.979"
       y="1163.8193" />
    <g
       id="g4731"
       transform="matrix(0.5607518,0,0,0.5607518,2805.7405,1154.8197)"
       style="stroke:#000000;stroke-width:2.07043481;stroke-miterlimit:4;stroke-dasharray:none;stroke-opacity:1">
      <g
         style="stroke:#000000;stroke-width:2.11493254;stroke-miterlimit:4;stroke-dasharray:none;stroke-opacity:1"
         inkscape:label="Layer 1"
         id="layer1-4"
         transform="matrix(0.9789602,0,0,0.9789602,3060.3774,63.051768)">
        <g
           style="stroke:#000000;stroke-width:2.11493254;stroke-miterlimit:4;stroke-dasharray:none;stroke-opacity:1"
           id="layer1-2"
           inkscape:label="Layer 1"
           transform="translate(-2.1064434,3.1164781)">
          <path
             inkscape:connector-curvature="0"
             d="m 21.181968,974.21003 c 5.216487,-4.04455 10.771708,-7.60572 16.877808,-10.16099 1.467699,-0.6142 2.983281,-1.10702 4.474922,-1.66054 1.396747,-0.37763 2.767275,-0.87083 4.19024,-1.1329 1.408356,-0.25937 2.842999,-0.40931 4.27494,-0.42612 5.714304,-0.0671 9.412267,-0.69968 14.183025,1.57903 3.330266,1.59068 3.944175,2.66474 6.505253,5.2521 0.779294,1.32606 1.721402,2.56904 2.337887,3.97818 0.690526,1.57839 1.141028,3.25643 1.558434,4.92793 1.318866,5.28136 1.351552,10.27952 0.441817,15.63612 -0.294879,1.73626 -0.803232,3.42943 -1.204845,5.14415 -1.393691,4.99431 -3.684489,9.55471 -6.863339,13.64931 -0.979028,1.261 -2.004957,2.4982 -3.167772,3.5922 -2.779901,2.6151 -4.472268,3.3483 -7.708213,5.2121 -6.818679,3.3419 -14.401385,4.1161 -21.820242,5.1206 -2.144873,0.3817 -4.410836,0.7755 -6.206794,2.1066 -0.682715,0.506 -0.850376,0.7762 -1.385573,1.4098 -1.138915,1.6307 -1.871889,3.4938 -2.787424,5.2507 -1.011752,1.8375 -2.166324,3.5973 -2.599102,5.6724 0.243386,0.122 -0.251314,0.8002 0.0055,1.0265 0.0559,0.049 0.160844,-0.2076 0.08631,-0.2063 -2.335648,0.04 -4.664445,0.3359 -7.000414,0.3255 -0.134573,-6e-4 0.137866,-0.2321 0.190599,-0.3559 0.08507,-0.1997 0.147872,-0.4082 0.221805,-0.6122 0.668072,-2.0017 1.142786,-4.0578 1.780853,-6.0688 0.860505,-2.3577 2.189745,-3.995 4.192362,-5.4775 7.695978,-3.4224 15.146117,-0.1797 22.197235,2.7067 5.048026,2.1098 9.921607,4.6253 15.014638,6.6287 1.7433,0.6857 3.184493,1.1595 4.934756,1.7583 5.462395,1.7035 11.233972,1.6885 16.89355,1.4686 -4.503049,0.024 -2.987648,0.158 0.523704,-0.516 1.076605,-0.2067 2.139194,-0.4806 3.208791,-0.721 0,0 6.371427,0.4541 6.371427,0.4541 l 0,0 c -1.076461,0.2537 -2.144852,0.5444 -3.229391,0.761 -4.472251,0.8931 -8.222361,0.9932 -13.069777,1.4319 -5.764807,0.1688 -11.698072,0.2219 -17.225022,-1.6521 -1.78214,-0.6787 -2.868375,-1.0734 -4.668963,-1.8476 -4.980136,-2.1413 -9.776495,-4.6987 -14.844941,-6.6405 -2.662243,-1.0194 -4.547571,-1.8139 -7.260071,-2.5886 -1.015147,-0.2899 -2.040333,-0.5546 -3.080087,-0.7376 -0.796716,-0.1401 -3.194579,-0.01 -2.415989,-0.2294 1.558674,-0.4395 3.217851,-0.4326 4.837171,-0.4533 0.445089,-0.01 -0.847772,0.2717 -1.271661,0.4075 -0.334244,0.2141 -0.685558,0.4037 -1.002733,0.6423 -1.457161,1.0966 -2.442703,2.7336 -3.152697,4.382 -0.658292,1.9928 -1.167422,4.0269 -1.67356,6.0627 -0.05883,0.2112 -0.121411,0.4213 -0.176523,0.6335 -0.0471,0.1813 0.05453,0.5149 -0.130101,0.5469 -6.031347,1.0469 -7.839446,2.9082 -7.229226,-0.8262 0.06612,-0.3398 0.10563,-0.6859 0.198383,-1.0195 0.488674,-1.7574 1.61245,-3.2465 2.428299,-4.8521 0.942897,-1.7831 1.634556,-3.699 2.758031,-5.3856 0.53894,-0.7011 0.74495,-1.049 1.446779,-1.6228 1.881575,-1.5381 4.332096,-1.9881 6.65833,-2.3854 7.531016,-0.9577 15.223267,-1.6356 22.210363,-4.8574 3.33895,-1.8184 4.892659,-2.4163 7.771742,-5.0138 5.00348,-4.5144 8.150412,-10.6064 10.152504,-16.94426 0.403876,-1.69037 0.914575,-3.35873 1.211627,-5.07108 1.159888,-6.68627 0.811549,-13.94268 -2.144707,-20.1593 -0.64576,-1.35795 -1.602156,-2.54503 -2.403234,-3.81755 -2.610543,-2.5032 -3.157664,-3.46196 -6.494522,-4.96634 -1.227069,-0.55321 -2.947123,-0.22738 -3.846521,-1.22879 -0.468122,-0.52122 2.529938,-0.80431 1.854265,-0.98944 -1.914861,-0.52466 -6.844859,0.96013 -8.575278,1.39155 -1.499868,0.53593 -3.025662,1.00417 -4.499597,1.60777 -5.817217,2.38226 -11.317016,5.70151 -15.845315,10.08043 0,0 -7.0095,-0.22026 -7.0095,-0.22026 z"
             id="path5389"
             style="fill:#000000;stroke:#000000;stroke-width:2.11493254;stroke-miterlimit:4;stroke-dasharray:none;stroke-opacity:1" />
        </g>
      </g>
      <g
         style="stroke:#000000;stroke-width:2.30321908;stroke-miterlimit:4;stroke-dasharray:none;stroke-opacity:1"
         inkscape:label="Layer 1"
         id="layer1-0"
         transform="matrix(0.91529942,0,0,0.88285496,3129.6867,160.67503)">
        <g
           style="stroke:#000000;stroke-width:2.30321908;stroke-miterlimit:4;stroke-dasharray:none;stroke-opacity:1"
           id="layer1-6"
           inkscape:label="Layer 1"
           transform="translate(-2.91731,0.019186)">
          <path
             inkscape:connector-curvature="0"
             d="m 71.745525,997.01709 c -0.701056,1.39929 -1.652765,2.70574 -2.83217,3.93491 -3.865062,3.1361 -8.503678,4.5998 -13.717684,6.6667 -2.546841,0.6603 -5.417398,1.1018 -8.124275,0.6185 -0.931851,-0.1664 -1.807366,-0.4603 -2.711033,-0.6903 -2.757406,-1.1477 -4.397551,-1.7257 -6.898736,-3.2436 -4.413967,-2.6789 -8.070918,-5.94774 -11.251275,-9.35318 -1.123001,-1.20255 -2.132954,-2.45474 -3.19943,-3.6821 -0.867306,-1.32849 -1.850555,-2.62292 -2.601919,-3.98548 -0.765038,-1.38737 -1.361442,-2.81866 -1.939199,-4.24961 -1.451925,-3.59607 -2.561947,-7.31449 -2.022869,-11.07286 0.140502,-0.97938 0.531621,-1.93321 0.797449,-2.89981 1.292742,-2.03023 1.668125,-3.06044 3.774409,-4.72701 1.544758,-1.22228 3.745356,-2.31937 5.79355,-3.08582 9.754798,-3.65026 6.507529,-2.94011 13.258102,-3.96353 1.243983,-0.0265 2.491851,-0.15302 3.731969,-0.0795 6.29603,0.37321 12.838797,2.65634 17.642267,5.43871 1.551877,0.8989 2.919229,1.94291 4.378852,2.91435 1.32774,1.21983 2.765819,2.38466 3.98322,3.65947 3.994407,4.18274 6.991175,8.91873 9.135608,13.70678 1.726846,3.85562 2.266318,6.22954 3.406059,10.16226 1.472429,7.06663 1.104062,14.22713 -0.635386,21.25143 -0.854568,3.4509 -2.03629,6.5901 -3.222184,9.9856 -2.740034,6.7076 -5.352325,13.5082 -9.785231,19.7872 -2.663398,3.0678 -4.103794,3.1585 -9.992338,5.3103 -0.551172,0.2014 -1.681632,0 -2.171562,-0.1881 -0.361709,-0.1432 -0.643816,-0.3678 -0.965725,-0.5517 -3.211113,-3.1362 -4.235319,-7.087 -5.331498,-10.7897 -1.002204,-4.4196 -1.452027,-8.5055 -0.247706,-12.94 0.694737,-2.5582 1.287208,-3.5291 2.447062,-5.9307 1.084631,-2.0397 2.652788,-3.9145 4.648919,-5.5821 0.612225,-0.5114 1.966549,-1.5059 2.842796,-1.8825 2.653538,-1.1402 5.390781,-2.1824 8.08618,-3.2737 4.510939,-1.1436 9.341931,-1.4923 14.102144,-1.7079 2.465778,0.058 1.332832,-0.012 3.402313,0.1605 0,0 -6.411615,3.1662 -6.411615,3.1662 l 0,0 c -1.855291,-0.197 -0.825599,-0.1202 -3.095255,-0.1848 -4.770023,0.2144 -9.628689,0.6024 -14.039184,1.9719 1.711792,-0.7113 3.386441,-1.4683 5.135341,-2.1341 0.539745,-0.2055 -1.028123,0.4742 -1.49944,0.75 -0.566771,0.3316 -1.105442,0.6883 -1.607361,1.0674 -2.155654,1.6283 -3.89725,3.4882 -5.108689,5.5411 -1.240289,2.3209 -1.964915,3.411 -2.678981,5.8968 -1.214061,4.2263 -0.739085,8.4962 0.36004,12.7048 1.153757,3.5286 2.318959,7.3358 5.67299,10.2041 0.662005,0.2848 0.85002,0.4761 1.654144,0.4269 0.317395,-0.019 1.186217,-0.3017 0.921105,-0.1782 -12.496674,5.8204 -5.433935,2.4588 -4.26485,1.5396 0.496657,-0.3907 0.890928,-0.8394 1.336374,-1.259 0.484992,-0.5947 1.007535,-1.1754 1.454956,-1.7844 4.231999,-5.7605 6.839385,-12.0286 9.404076,-18.2207 1.15144,-3.1746 2.535364,-6.7569 3.357897,-9.9807 1.776933,-6.9644 2.156387,-14.0864 0.654886,-21.09333 -1.162051,-4.21263 -1.472531,-5.98595 -3.340356,-10.10955 -2.145607,-4.73682 -5.171838,-9.41173 -9.231813,-13.50725 -1.231449,-1.24221 -2.692673,-2.36513 -4.039011,-3.54769 -1.487518,-0.93272 -2.889953,-1.93627 -4.462521,-2.79814 -5.016624,-2.74942 -11.288794,-4.81008 -17.738966,-5.00531 -1.22675,-0.0371 -2.450843,0.1089 -3.676263,0.16342 -9.699399,1.63873 0.659313,0.24559 -0.680195,-0.95091 -0.73561,-0.65707 -2.11318,0.78562 -3.090298,1.26489 -3.350711,1.64353 -5.32426,3.58059 -6.861133,6.21852 -0.918772,2.72475 -1.33835,3.23548 -1.243388,6.15032 0.12738,3.9088 1.73669,8.34125 3.749681,11.96652 0.746714,1.34478 1.723663,2.62144 2.585485,3.93216 1.043655,1.2226 2.004952,2.48145 3.130951,3.66782 3.18073,3.35119 7.004136,6.5368 11.527662,9.04863 2.84518,1.5798 4.019816,1.8639 7.122667,2.9511 0.925653,0.1715 1.833167,0.401 2.77694,0.5144 2.727518,0.3276 5.542505,-0.1767 8.020952,-0.9387 -1.838515,0.7614 -3.677029,1.5226 -5.515544,2.2839 0.413787,-0.1774 0.840926,-0.3404 1.241345,-0.5322 1.678684,-0.8042 3.152034,-1.8187 4.626115,-2.7909 1.207898,-1.135 2.189545,-2.3621 2.750799,-3.72962 0,0 7.319778,-2.40248 7.319778,-2.40248 z"
             id="path4749"
             style="fill:#000000;stroke:#000000;stroke-width:2.30321908;stroke-miterlimit:4;stroke-dasharray:none;stroke-opacity:1" />
        </g>
      </g>
      <g
         style="stroke:#000000;stroke-width:2.07043481;stroke-miterlimit:4;stroke-dasharray:none;stroke-opacity:1"
         inkscape:label="Layer 1"
         id="layer1-7"
         transform="translate(3205.5669,43.669128)">
        <g
           style="stroke:#000000;stroke-width:2.07043481;stroke-miterlimit:4;stroke-dasharray:none;stroke-opacity:1"
           id="layer1-0-0"
           inkscape:label="Layer 1"
           transform="translate(0.40607,0.471175)">
          <path
             inkscape:connector-curvature="0"
             d="m 4.2542107,1019.8273 c 5.8559493,-4.8257 12.5191263,-8.6157 19.3310993,-11.9181 2.859006,-1.2172 5.862482,-2.8817 9.060496,-2.9462 0.485944,-0.014 0.968238,0.086 1.452358,0.1302 2.934508,0.7577 4.901159,3.1302 7.058417,5.0837 1.845672,1.3747 3.25334,3.4458 5.343365,4.4847 0.411782,0.2047 0.860405,0.3249 1.290608,0.4873 0.957914,0.092 1.385776,0.224 2.329082,-0.037 1.942666,-0.5383 12.963562,-7.1012 -3.482202,2.2083 4.047886,-2.8273 8.313571,-5.101 12.680591,-7.5106 1.463266,-0.8073 2.72091,-1.1502 4.264726,-1.8043 0.729219,-0.309 1.439754,-0.6603 2.159632,-0.9904 2.700475,-1.0914 5.581841,-2.7985 8.620701,-2.3011 0.449022,0.073 0.873578,0.2549 1.310368,0.3825 2.859071,1.1884 4.991061,3.5538 7.187276,5.6568 2.772453,2.6651 5.000904,5.7953 7.328353,8.8347 1.89771,2.196 3.157721,4.8197 4.744573,7.2227 0,0 -8.317171,4.8253 -8.317171,4.8253 l 0,0 c -1.380723,-2.4879 -2.6998,-5.0268 -4.505261,-7.2453 -2.296026,-3.0211 -4.61,-6.019 -7.377265,-8.6351 -2.086969,-2.0134 -4.141875,-4.2691 -6.973033,-5.1938 -0.386755,-0.073 -0.767691,-0.1907 -1.160265,-0.2183 -2.896831,-0.2029 -5.578518,1.4746 -8.173934,2.4735 -0.719777,0.316 -1.437431,0.6371 -2.159331,0.9483 -0.763673,0.3292 -1.540307,0.6286 -2.29729,0.973 -0.67939,0.309 -2.639229,1.3879 -2.010174,0.9864 2.080099,-1.3283 4.247724,-2.5144 6.371588,-3.7715 -0.473523,0.3171 -0.948817,0.6316 -1.420565,0.9513 -0.46753,0.3169 -0.931483,0.6389 -1.397224,0.9583 -3.177609,1.8709 -6.340918,3.7661 -9.532828,5.6123 -1.93222,1.1176 -3.966353,1.7382 -6.150662,0.9888 -0.460832,-0.2108 -0.94016,-0.3851 -1.382498,-0.6324 -2.078566,-1.162 -3.576528,-3.1411 -5.409227,-4.6209 -2.023528,-1.8146 -3.893135,-4.0703 -6.724962,-4.5187 -3.622412,-0.014 -6.791228,1.5167 -10.009216,3.0358 -3.243337,1.6237 -5.310499,2.7223 3.542683,-2.2968 0.727356,-0.4123 -1.425007,0.8762 -2.117078,1.3454 -0.283068,0.1919 -2.950249,2.1495 -3.36486,2.4606 -0.382743,0.2872 -0.758725,0.5835 -1.138092,0.8752 0,0 -8.9727783,3.7167 -8.9727783,3.7167 z"
             id="path3001"
             style="fill:#000000;stroke:#000000;stroke-width:2.07043481;stroke-miterlimit:4;stroke-dasharray:none;stroke-opacity:1" />
          <path
             inkscape:connector-curvature="0"
             d="m 25.627722,988.75101 c -1.402078,0.80126 -2.76104,1.68318 -4.206235,2.40377 -0.829343,0.41352 1.566428,-0.99076 2.353493,-1.47997 2.245493,-1.39574 4.464098,-2.83488 6.722835,-4.20908 4.020928,-2.44629 8.679985,-4.87744 12.660773,-7.04933 3.670202,-1.67607 7.359012,-3.33521 11.163134,-4.69036 1.967184,-0.70077 3.593434,-1.24394 5.66235,-1.49293 0.803961,-0.0968 1.618488,-0.0579 2.427733,-0.0869 0.805547,0.13292 1.628749,0.18477 2.416642,0.39878 3.039106,0.82548 5.715344,2.72451 8.172618,4.61201 1.075511,0.82613 2.152468,1.65632 3.149002,2.57618 1.125905,1.03927 2.138844,2.19461 3.208265,3.29192 3.238662,3.21187 6.254415,6.63055 8.94389,10.31619 0.807144,1.1061 1.552809,2.25578 2.329214,3.38368 0,0 -5.092351,2.98638 -5.092351,2.98638 l 0,0 c -0.742981,-1.1338 -1.445412,-2.29524 -2.228945,-3.40141 -2.623373,-3.70359 -5.671869,-7.06038 -8.877248,-10.26469 -1.095527,-1.05595 -2.139419,-2.16824 -3.286583,-3.16785 -3.023385,-2.63451 -7.502538,-5.77299 -11.492734,-6.68572 -0.771775,-0.17653 -1.57109,-0.19718 -2.356635,-0.29578 -0.767389,0.0385 -1.540461,0.0147 -2.302167,0.11553 -1.8702,0.24765 -3.641278,0.80883 -5.414579,1.43051 -3.745415,1.31307 -7.373674,2.93962 -10.967059,4.61621 0.361846,-0.29091 1.503297,-1.07531 1.085537,-0.87273 -2.080908,1.00906 -5.110504,3.06258 -7.074069,4.31501 -1.000258,0.63801 -2.014039,1.25476 -3.010496,1.89869 -0.712257,0.46026 -1.38837,0.97673 -2.115209,1.41361 -2.353496,1.4146 -4.748347,2.75924 -7.12252,4.13886 0,0 5.251344,-4.20058 5.251344,-4.20058 z"
             id="path3015"
             style="fill:#000000;stroke:#000000;stroke-width:2.07043481;stroke-miterlimit:4;stroke-dasharray:none;stroke-opacity:1" />
        </g>
      </g>
      <path
         inkscape:connector-curvature="0"
         sodipodi:nodetypes="cscssscscsscscsscsscscsscsscsscsscscscccccscscsccsssssscsscscsscsscscsssscscsscsccc"
         d="m 3334.6833,1005.7197 c 4.8421,2.2647 9.7136,4.5426 13.9,8.1653 1.4834,1.2837 2.833,2.7496 4.2496,4.1243 1.4077,1.5914 2.8841,3.1104 4.2233,4.774 1.4031,1.7431 2.7049,3.5862 3.9946,5.4354 3.5452,5.0832 6.7487,10.4757 9.0205,16.4259 0.6634,1.7374 1.1388,3.557 1.7083,5.3356 1.291,5.8174 2.3291,11.8979 1.3353,17.8863 -0.5139,3.0965 -0.8483,3.4172 -2.0367,6.1441 -0.5082,0.7453 -0.9529,1.5504 -1.5247,2.2359 -2.4106,2.8891 -7.7475,5.6582 -9.8005,6.9346 -2.0014,1.2444 -4.1852,1.8814 -6.3806,2.524 -2.7241,0.7053 -5.6248,0.8568 -8.4049,0.447 -1.8529,-0.2733 -3.0382,-0.7091 -4.8405,-1.2583 -1.6574,-0.7492 -3.3642,-1.3778 -4.8194,-2.5948 -2.1027,-1.7584 -3.8081,-4.4922 -4.6958,-7.2385 -0.3243,-1.0031 -0.4725,-2.0668 -0.7087,-3.1004 -0.068,-1.1563 -0.2315,-2.3106 -0.205,-3.4692 0.09,-3.9063 1.1296,-8.0074 2.6795,-11.4946 1.3967,-3.1428 2.7237,-4.8619 4.5969,-7.6716 5.6136,-7.6157 12.9438,-13.192 19.6228,-19.517 1.1809,-1.1183 2.3187,-2.2921 3.4781,-3.4382 2.8669,-2.5903 5.3519,-5.9167 8.5964,-7.9763 2.5645,-1.6278 5.1243,-3.2729 7.769,-4.7317 0.5147,-0.284 1.1126,-0.3162 1.669,-0.4743 0.6417,-0.054 1.282,-0.1385 1.9253,-0.1626 2.7588,-0.1037 5.5278,0.113 8.2855,0.1566 2.0943,0.033 3.9929,0 6.0835,-0.03 1.766,0.044 3.5244,-0.2333 5.2898,-0.1725 0.2069,0.01 1.6337,0.085 0.8441,0.7563 -2.103,1.7893 -4.4694,3.1549 -6.7042,4.7324 -3.1948,1.8685 2.8815,-1.9435 4.3792,-2.7975 0.5301,-0.3022 -0.9944,0.7327 -1.4671,1.1366 -2.0093,1.7168 -3.5458,3.795 -5.1315,5.9762 -2.1576,3.2899 -4.4858,7.0286 -5.0599,11.1674 -0.067,0.4821 -0.043,0.9746 -0.064,1.4619 0.1696,0.8443 0.1234,1.2025 0.6537,1.8359 1.0567,1.2622 4.4265,1.0587 5.7072,1.0812 4.9231,-0.105 16.6821,-8.3763 24.3633,-9.9982 0,0 -5.3325,4.4829 -5.3325,4.4829 l 0,0 c -6.3696,2.0428 -19.656,9.8262 -24.673,10.0902 -2.243,0.012 -5.9806,0.5253 -6.9715,-2.5284 -0.1365,-0.4206 -0.1605,-0.8768 -0.2407,-1.3152 0.028,-0.5478 0,-1.102 0.083,-1.6433 0.6094,-4.1424 2.9937,-8.2888 5.1768,-11.5951 1.0671,-1.5463 2.1086,-3.1497 3.3247,-4.561 3.0863,-3.5819 7.3814,-5.4996 11.0992,-8.068 -1.9868,1.4226 -3.9736,2.8453 -5.9604,4.268 0.1207,0.1371 0.3608,0.2191 0.3623,0.4115 0,0.1367 -0.2381,-0.066 -0.3597,-0.081 -0.3123,-0.038 -0.6259,-0.064 -0.9397,-0.077 -0.6268,-0.026 -3.6069,-0.044 -3.9367,-0.046 -2.2427,0 -3.7991,0 -6.0575,-0.014 -2.8176,-0.023 -5.6655,-0.1629 -8.4775,0.1244 -0.638,0.065 -1.2682,0.2049 -1.9023,0.3074 -3.2753,1.1237 -2.052,0.8704 2.9008,-2.5855 0.5695,-0.3974 -1.1565,0.7651 -1.7093,1.191 -2.6995,2.0792 -5.103,4.5918 -7.58,6.9771 -4.3145,4.2057 -3.1322,3.1363 -7.8238,7.3458 -5.338,4.7895 -10.7954,9.4994 -15.2027,15.4128 -1.7794,2.6271 -3.2155,4.4958 -4.5555,7.4389 -1.5245,3.3487 -2.5677,7.3347 -2.6599,11.1061 -0.027,1.106 0.1345,2.2075 0.2017,3.3113 0.226,0.9814 0.3691,1.9913 0.6779,2.9441 0.8538,2.6353 2.4404,5.1744 4.4837,6.8273 1.5822,1.28 2.9256,1.6699 4.7378,2.4162 0.8064,0.2252 1.6045,0.492 2.4192,0.6758 3.5122,0.7923 7.1922,0.6867 10.6698,-0.2434 1.852,-0.5868 2.4715,-0.7117 4.2592,-1.5707 0.6822,-0.3279 2.6053,-1.5755 2.0025,-1.0908 -1.2607,1.0135 -2.5754,1.9719 -3.9899,2.6885 -0.7241,0.3668 1.3135,-1.0137 1.8904,-1.625 0.6082,-0.6446 1.098,-1.4156 1.6471,-2.1234 1.2926,-2.6078 1.671,-2.9585 2.2884,-5.9811 1.2061,-5.9041 0.3244,-11.9898 -0.8341,-17.7986 -0.5283,-1.7728 -0.9588,-3.5857 -1.5849,-5.3181 -2.8703,-7.9417 -7.5961,-15.4837 -12.787,-21.7414 -1.3544,-1.6327 -2.8501,-3.1116 -4.2751,-4.6674 -1.4624,-1.3077 -2.8588,-2.7132 -4.3871,-3.9231 -4.4272,-3.5052 -9.5431,-5.7183 -14.729,-7.3594 0,0 6.2142,-4.6732 6.2142,-4.6732 l 1e-4,0 z"
         id="path5295"
         style="fill:#000000;stroke:#000000;stroke-width:2.07043481;stroke-miterlimit:4;stroke-dasharray:none;stroke-opacity:1" />
      <ellipse
         ry="5.2005415"
         rx="4.9706078"
         cy="1052.527"
         cx="3313.1985"
         id="path4662"
         style="opacity:1;fill:#000000;fill-opacity:1;stroke:#000000;stroke-width:2.07043481;stroke-miterlimit:4;stroke-dasharray:none;stroke-opacity:1" />
    </g>
    <text
       sodipodi:linespacing="125%"
       id="text4671"
       y="1902.7152"
       x="4228.5723"
       style="font-style:normal;font-weight:normal;font-size:150.46961975px;line-height:125%;font-family:sans-serif;letter-spacing:0px;word-spacing:0px;fill:#000000;fill-opacity:1;stroke:none;stroke-width:1px;stroke-linecap:butt;stroke-linejoin:miter;stroke-opacity:1"
       xml:space="preserve"><tspan
         style="font-style:normal;font-variant:normal;font-weight:normal;font-stretch:normal;font-family:Sawasdee;-inkscape-font-specification:Sawasdee"
         y="1902.7152"
         x="4228.5723"
         id="tspan4673"
         sodipodi:role="line">TAMBORA</tspan></text>
    <path
       style="opacity:1;fill:#ff6600;fill-opacity:1;stroke:none"
       d="m 4629.8516,1516.0073 c -1.2142,-0.044 -2.3017,0.01 -3.8203,0.1308 -4.7613,0.3883 -9.9396,1.2613 -12.9004,2.1739 -2.2983,0.7084 -5.1863,1.0748 -13.3496,1.6992 -1.9819,0.1516 -5.4065,0.7185 -8.0469,1.332 -8.6222,2.0035 -11.1671,2.3586 -15.4297,2.1504 -2.1037,-0.1027 -3.8242,-0.1069 -3.8242,-0.01 0,0.097 1.1654,1.4816 2.5899,3.0762 4.5767,5.1228 11.2877,13.7685 15.58,20.0742 0.8146,1.1967 1.6406,2.1153 1.8379,2.041 0.1974,-0.074 2.3933,-1.4958 4.8789,-3.1582 2.4856,-1.6624 8.3567,-5.7099 13.0469,-8.9961 14.4473,-10.1226 20.7053,-14.144 27.1543,-17.4492 3.6719,-1.8819 3.8063,-1.7688 -3.1387,-2.6309 -2.0246,-0.2513 -3.3639,-0.3899 -4.5781,-0.4336 z m -124.0898,40.418 c -0.9721,0.2439 -6.4534,4.4524 -10.0821,7.7421 -9.8453,8.926 -17.5701,18.3032 -20.9824,25.4688 -1.4177,2.9772 -1.8208,4.4542 -2.7012,9.873 -0.362,2.2275 -0.9182,5.3859 -1.2363,7.0176 -1.3496,6.9231 -0.1983,14.3672 4.2207,27.2832 3.3453,9.7776 6.4746,15.0245 10.6953,17.9297 0.6852,0.4716 1.6844,1.569 2.2188,2.4375 1.682,2.7336 4.4777,6.2168 7.5723,9.4297 1.6439,1.7067 3.0932,3.1015 3.2207,3.1015 0.1275,0 2.1586,-3.0704 4.5117,-6.8242 2.3531,-3.7537 4.677,-7.4584 5.164,-8.2324 l 0.8848,-1.4063 -1.7363,-2.0429 c -7.1193,-8.3739 -10.6142,-17.8756 -10.2422,-27.8438 0.3619,-9.6964 4.158,-17.5333 12.6601,-26.1308 4.271,-4.3189 7.9961,-7.316 14.3536,-11.5488 2.5776,-1.7162 4.6557,-3.2757 4.6171,-3.4668 -0.039,-0.1912 -5.1119,-5.4338 -11.2734,-11.6504 -9.4387,-9.5234 -11.3056,-11.2772 -11.8652,-11.1367 z m 157.3398,11.2832 c -0.214,0 -18.5546,15.7665 -20.207,17.3711 l -0.834,0.8125 0.9004,2.7558 c 1.6959,5.1897 2.2509,8.8934 2.2363,14.9121 -0.011,4.6489 -0.1227,5.9223 -0.8027,9.1562 -1.0236,4.868 -2.7832,9.9406 -5.1992,14.9922 l -1.9375,4.0508 2.584,6.7461 c 3.5132,9.1742 7.0135,19.0759 8.5644,24.2285 0.7077,2.3513 1.3735,4.2754 1.4785,4.2754 0.1049,0 1.3483,-1.5866 2.7637,-3.5254 12.761,-17.4801 19.8609,-33.8773 21.207,-48.9746 0.1692,-1.8975 0.6772,-5.621 1.127,-8.2734 l 0.8164,-4.8223 -0.6641,-2.9766 c -1.2182,-5.4522 -2.1926,-11.9384 -2.3164,-15.4277 -0.1959,-5.5174 -0.2582,-5.7565 -1.9004,-7.248 -0.7888,-0.7165 -2.0597,-1.7741 -2.8242,-2.3516 -0.7645,-0.5775 -2.1519,-2.0962 -3.082,-3.375 -0.9302,-1.2787 -1.7898,-2.3261 -1.9102,-2.3261 z m -69.1777,103.6093 c -0.7647,-0.028 -2.082,0.2872 -4.8028,0.916 -5.6654,1.3094 -10.1562,1.6758 -20.5898,1.6758 l -9.5039,0 -1.3242,1.5742 c -3.4624,4.1173 -13.7227,17.6938 -13.7227,18.1582 0,0.1817 0.5894,0.4195 1.3086,0.5274 1.0107,0.1515 1.5854,0.053 2.5313,-0.4297 l 1.2226,-0.6231 5.959,2.961 c 8.4222,4.1859 13.1027,5.8631 18.8574,6.7578 3.674,0.5712 11.9314,0.582 15.9649,0.019 l 0,0 c 4.097,-0.5714 9.4693,-1.879 13.5566,-3.3008 3.7929,-1.3194 10.143,-4.0084 10.3828,-4.3965 0.095,-0.1534 -0.9584,-1.4517 -2.3398,-2.8867 -4.765,-4.9501 -11.8761,-13.7449 -16.0117,-19.8008 -0.5117,-0.7492 -0.7236,-1.1219 -1.4883,-1.1504 z"
       id="path4675"
       inkscape:connector-curvature="0" />
    <path
       sodipodi:nodetypes="ssssscccsscsscccccccssscccsccsscccsscccccscscssscccccssss"
       inkscape:connector-curvature="0"
       id="path4677"
       d="m 4505.8044,1486.1181 c -10.4277,0.1379 -19.938,3.5613 -26.0488,9.5898 -2.8067,2.769 -3.2754,3.7465 -3.2754,6.836 0,5.1112 4.376,13.8983 11.8066,23.707 8.2024,10.8274 19.1167,22.6722 45.668,49.5606 7.741,7.8392 16.0735,16.3246 18.5156,18.8554 l 4.4395,4.6016 -0.5117,0.7949 c -0.2812,0.4374 -3.1412,4.3525 -6.3555,8.7011 -25.0385,33.8742 -46.8134,68.4229 -63.0762,100.0782 -14.3974,28.0241 -21.9285,49.997 -20.1152,58.6816 0.6204,2.9711 3.8958,7.2538 6.4297,8.4043 1.4704,0.6677 4.0397,0.7356 5.6797,0.1504 3.188,-1.1376 8.1865,-5.3237 11.2851,-9.4512 2.5861,-3.4819 2.3122,-3.0388 6.0313,-7.9687 -3e-4,-0.4715 30.6034,-42.9054 41.5937,-57.6719 1.6332,-1.7098 5.3482,-6.8569 6.1094,-7.3457 0,-0.4644 10.2602,-14.0409 13.7226,-18.1583 l 1.586,-2.2539 c 0.023,-1.0313 23.7494,-29.449 24.4082,-29.2343 0.5852,0.1906 6.8555,8.7295 14.8066,20.164 12.1543,17.479 16.5043,23.1066 23.1641,29.9668 7.3559,7.5773 15.6944,13.8494 23.9023,17.9785 2.0244,1.0185 2.1683,1.0488 2.6172,0.5528 0.978,-1.0807 2.9792,-5.9234 3.8145,-9.2305 2.1676,-8.5828 1.7774,-18.3205 -1.2383,-30.9746 -0.486,-2.039 -0.8828,-3.8847 -0.8828,-4.1016 0,-0.1683 0.6023,-1.0854 1.3496,-2.1328 -0.06,-0.181 -0.1273,-0.3975 -0.1914,-0.5957 -0.6215,0.8036 -1.0945,1.3867 -1.1543,1.3867 -0.105,0 -0.7708,-1.9241 -1.4785,-4.2754 -1.5509,-5.1526 -5.0513,-15.0543 -8.5645,-24.2285 l -2.584,-6.7461 -0.6504,-0.9336 c -0.7681,-1.2848 -11.3261,-29.7054 -11.3261,-30.4882 0,-0.2709 1.5802,-1.8172 3.5117,-3.4356 1.9315,-1.6183 5.5365,-4.6646 8.0117,-6.7695 l 5.2559,-4.2403 0.834,-0.8125 c 1.6524,-1.6045 19.993,-17.3711 20.207,-17.3711 2.594,-2.2921 4.3378,-4.1657 6.332,-5.9121 7.3486,-6.4208 17.0857,-14.7646 22.9453,-19.664 3.9209,-3.2784 4.6633,-4.0407 5.3907,-5.5274 0.6852,-1.4005 0.8437,-2.1265 0.8437,-3.8672 0,-1.8641 -0.1424,-2.4342 -1.1016,-4.375 -1.6958,-3.4312 -4.0727,-5.7 -8.5839,-8.1953 -14.7133,-8.1384 -28.3939,-6.6445 -48.0469,5.2461 -4.4393,2.686 -9.825,6.302 -20.5508,13.7989 -10.4801,7.3252 -16.0633,11.0878 -20.7305,13.9726 -2.6237,1.6218 -3.2613,1.9033 -3.5625,1.5742 l -5.3867,-8.125 c -4.2923,-6.3057 -11.0034,-14.9514 -15.5801,-20.0742 l -6.2578,-6.3105 c -3.7823,-4.1452 -13.0437,-12.8077 -16.9746,-15.877 -12.9853,-10.1389 -26.0257,-16.1436 -38.6973,-17.8164 -2.4735,-0.3265 -4.9295,-0.4693 -7.3359,-0.4375 z"
       style="fill:#000000;fill-opacity:1" />
    <path
       id="path4679"
       d="m 4505.804,1486.119 c -10.4277,0.1379 -19.938,3.5612 -26.0488,9.5898 -2.8067,2.7689 -3.2754,3.7465 -3.2754,6.836 0,5.1112 4.3761,13.8983 11.8067,23.707 8.2024,10.8274 19.1166,22.6722 45.6679,49.5605 7.741,7.8393 16.0736,16.3247 18.5157,18.8555 l 4.4394,4.6015 -0.5117,0.7949 c -0.2812,0.4375 -3.1412,4.3526 -6.3555,8.7012 -6.5521,8.8643 -12.8726,17.7733 -18.9375,26.666 l 95.2227,-31.9316 c -0.6011,-1.7095 -1.0469,-3.0163 -1.0469,-3.1621 0,-0.2709 1.5802,-1.8172 3.5117,-3.4356 1.9315,-1.6183 5.5365,-4.6645 8.0117,-6.7695 l 5.2559,-4.2402 0.834,-0.8125 c 1.6524,-1.6045 19.993,-17.3711 20.207,-17.3711 2.594,-2.2921 4.3378,-4.1658 6.332,-5.9121 7.3486,-6.4208 17.0858,-14.7646 22.9454,-19.6641 3.9209,-3.2784 4.6632,-4.0406 5.3906,-5.5273 0.6852,-1.4006 0.8437,-2.1265 0.8437,-3.8672 0,-1.8641 -0.1423,-2.4342 -1.1015,-4.375 -1.6958,-3.4312 -4.0728,-5.7 -8.584,-8.1953 -14.7133,-8.1385 -28.3939,-6.6445 -48.0469,5.2461 -4.4393,2.686 -9.825,6.302 -20.5508,13.7988 -10.4801,7.3252 -16.0632,11.0878 -20.7304,13.9727 -2.6237,1.6218 -3.2613,1.9033 -3.5625,1.5742 l -5.3868,-8.125 c -4.2923,-6.3057 -11.0033,-14.9514 -15.58,-20.0742 l -6.2578,-6.3106 c -3.7823,-4.1451 -13.0438,-12.8077 -16.9747,-15.8769 -12.9853,-10.139 -26.0256,-16.1437 -38.6972,-17.8164 -2.4735,-0.3265 -4.9296,-0.4694 -7.336,-0.4375 z"
       style="fill:#333333;fill-opacity:1;stroke:none"
       inkscape:connector-curvature="0" />
    <g
       id="g4929"
       transform="translate(277.92422,355.92422)">
      <g
         transform="matrix(0.32821634,0,0,0.32821634,4093.28,903.28578)"
         id="g5967"
         inkscape:export-filename="/tmp/blankon.png"
         inkscape:export-xdpi="281.25"
         inkscape:export-ydpi="281.25">
        <path
           inkscape:export-ydpi="285.01001"
           inkscape:export-xdpi="285.01001"
           inkscape:export-filename="/home/mdamt/rect4269.png"
           inkscape:connector-curvature="0"
           id="path5969"
           d="m 345.99422,464.69047 c 0,23.75054 -19.2536,43.00415 -43.0042,43.00415 -23.7505,0 -43.0041,-19.25361 -43.0041,-43.00415 0,-23.75053 19.2536,-43.00415 43.0041,-43.00415 23.7506,0 43.0042,19.25362 43.0042,43.00415 z"
           style="fill:none;stroke:#000000;stroke-width:22.08471298;stroke-miterlimit:4;stroke-dasharray:none" />
        <path
           inkscape:export-ydpi="285.01001"
           inkscape:export-xdpi="285.01001"
           inkscape:connector-curvature="0"
           id="path5971"
           d="m 365.26232,421.0156 1.0094,0 0,92.299 -1.0094,0 z"
           style="fill:#aa0000;fill-opacity:1;stroke:#ff0000;stroke-width:17.96163559;stroke-linecap:round;stroke-linejoin:round;stroke-miterlimit:4;stroke-opacity:1" />
        <path
           inkscape:connector-curvature="0"
           id="path5973"
           style="font-style:normal;font-weight:bold;font-size:75.31466675px;line-height:125%;font-family:Sans;-inkscape-font-specification:'Sans Bold';letter-spacing:0px;word-spacing:0px;fill:#000000;fill-opacity:1;stroke:none"
           d="m 473.73075,421.28848 -18.01135,0 0,33.90368 c 0.2354,7e-5 1.35376,7e-5 3.3551,0 2.00134,-0.1177 3.88475,-0.17655 5.65069,-0.17655 1.88341,-0.11769 4.41439,-0.29424 7.59295,-0.52973 3.29625,-0.3531 5.82723,-0.70626 7.59294,-1.0595 1.88364,-0.47081 4.00244,-1.17714 6.35711,-2.11899 2.4719,-0.9417 4.29669,-2.06005 5.47391,-3.35505 3.06062,-3.06067 4.59117,-6.82775 4.59117,-11.30124 0,-7.53405 -4.23808,-12.30174 -12.71399,-14.3031 -2.82523,-0.70624 -6.12148,-1.05941 -9.88853,-1.0595 m 1.23607,47.67708 -19.24742,1.05949 0,35.49292 17.30516,0 c 7.65179,2e-5 13.008,-0.35314 16.06886,-1.05947 3.17832,-0.70631 5.88608,-1.47151 8.12282,-2.29557 2.2365,-0.94175 4.00244,-2.00124 5.29736,-3.17848 3.29625,-2.82527 4.94426,-6.47462 4.94426,-10.94807 0,-5.88602 -2.94316,-10.53599 -8.82901,-13.94996 -5.76838,-3.41386 -13.65581,-5.12082 -23.66203,-5.12086 m -40.96697,-66.04159 44.14552,0 c 11.53654,1.1e-4 20.48348,1.94253 26.84036,5.82721 6.23918,3.76719 10.41817,8.00514 12.53744,12.71387 2.00111,4.59124 2.94293,8.8292 2.82523,12.7139 0,3.88488 -1.05952,7.8874 -3.17855,12.00756 -2.00134,4.00259 -4.65002,7.35764 -7.94604,10.06515 9.5352,3.88486 15.77438,10.88927 18.71754,21.01324 0.82388,3.17851 1.23606,6.29812 1.23606,9.35882 0,2.94306 -0.35309,5.88611 -1.05952,8.8291 -0.70642,2.94304 -2.29558,6.2981 -4.76771,10.06515 -2.35444,3.64937 -5.41506,6.94558 -9.18211,9.8886 -3.76728,2.82529 -9.06464,5.23858 -15.89231,7.23985 -6.71021,1.88352 -14.42109,2.82529 -23.1324,2.82529 l -41.14351,0 0,-122.54774" />
        <path
           inkscape:connector-curvature="0"
           id="path5975"
           style="font-style:normal;font-weight:bold;font-size:75.31466675px;line-height:125%;font-family:Sans;-inkscape-font-specification:'Sans Bold';letter-spacing:0px;word-spacing:0px;fill:#000000;fill-opacity:1;stroke:none"
           d="m 574.59775,444.24409 c 11.06574,-3.76698 21.24875,-5.65052 30.54879,-5.65059 9.4175,7e-5 16.77505,0.82412 22.07264,2.47213 5.41506,1.64817 9.47635,4.00261 12.18412,7.06328 5.06196,5.53296 7.59294,12.71394 7.59294,21.54297 l 0,55.79983 -15.89231,0 -2.29559,-5.65062 c -7.76972,4.94429 -16.48104,7.41645 -26.13417,7.41645 -13.42018,0 -23.5441,-3.82595 -30.37201,-11.47783 -3.64935,-4.23794 -5.47391,-8.71134 -5.47391,-13.42021 0,-4.35565 0.5885,-8.005 1.76571,-10.94807 1.17722,-3.06072 3.11971,-5.53285 5.82724,-7.41644 2.70753,-2.0012 5.59184,-3.59043 8.65246,-4.7677 3.06086,-1.29489 7.0633,-2.23666 12.00757,-2.82532 8.00512,-0.9417 18.24674,-1.41259 30.72534,-1.41263 l 0,-1.23609 c -2.4e-4,-7.76954 -3.17856,-12.71381 -9.53544,-14.83287 -2.94316,-0.9417 -7.29893,-1.41259 -13.06708,-1.41266 -5.76839,7e-5 -13.71466,1.23616 -23.83859,3.70822 l -3.3551,1.0595 -4.41439,-17.12843 3.00178,-0.88292 m 51.20882,59.15491 0,-12.36073 -2.11904,0 c -12.94939,4e-5 -21.95518,0.52978 -27.01714,1.58923 -4.94427,1.05952 -7.4164,3.64939 -7.4164,7.76961 0,2.7076 1.58916,4.82659 4.76772,6.35694 3.29625,1.53039 8.06397,2.29557 14.30315,2.29557 6.23918,0 12.06642,-1.88353 17.48171,-5.65062" />
        <path
           inkscape:connector-curvature="0"
           id="path5977"
           style="font-style:normal;font-weight:bold;font-size:75.31466675px;line-height:125%;font-family:Sans;-inkscape-font-specification:'Sans Bold';letter-spacing:0px;word-spacing:0px;fill:#000000;fill-opacity:1;stroke:none"
           d="m 655.61963,440.3593 14.83279,0 2.82523,5.82721 c 11.06575,-5.06194 21.07221,-7.59294 30.01892,-7.59301 14.59739,7e-5 24.01513,5.41524 28.2532,16.2455 2.11881,5.41524 3.23717,12.1842 3.35487,20.30691 l 0,50.3258 -21.36622,0 0,-49.97264 c -2.3e-4,-6.00371 -1.29515,-10.30054 -3.88474,-12.89046 -2.70777,-2.82526 -7.00469,-4.23789 -12.89054,-4.23796 -5.76839,7e-5 -12.41974,1.5893 -19.95384,4.76769 l 0,62.33337 -21.18967,0 0,-85.11241" />
        <path
           inkscape:connector-curvature="0"
           id="path5979"
           style="font-style:normal;font-weight:bold;font-size:75.31466675px;line-height:125%;font-family:Sans;-inkscape-font-specification:'Sans Bold';letter-spacing:0px;word-spacing:0px;fill:#000000;fill-opacity:1;stroke:none"
           d="m 765.17302,474.43958 36.72912,-35.84608 25.42775,0 -42.02648,39.02456 43.43909,47.85365 -26.13417,0 -37.43531,-42.37962 0,42.37962 -21.1899,0 0,-122.54775 21.1899,0 0,71.51562" />
        <path
           inkscape:connector-curvature="0"
           id="path5981"
           style="font-style:normal;font-weight:bold;font-size:75.31466675px;line-height:125%;font-family:Sans;-inkscape-font-specification:'Sans Bold';letter-spacing:0px;word-spacing:0px;fill:#000000;fill-opacity:1;stroke:none"
           d="m 885.31457,411.06624 c 11.30114,1.2e-4 21.48391,2.47228 30.54856,7.41645 9.0644,4.82666 16.2454,11.94878 21.543,21.36638 5.41505,9.41778 8.12258,20.24811 8.12282,32.49105 -2.4e-4,18.83542 -5.76862,34.19802 -17.30516,46.08784 -11.41908,11.77213 -25.95763,17.65816 -43.61565,17.65816 -15.65691,0 -29.37157,-5.12086 -41.14351,-15.3626 -5.65069,-4.94426 -10.18301,-11.47778 -13.59672,-19.60058 -3.41396,-8.12272 -5.12105,-17.18725 -5.12105,-27.19359 0,-18.83531 5.70954,-34.02131 17.12861,-45.55809 11.53654,-11.53656 26.01624,-17.3049 43.4391,-17.30502 m 12.8903,22.42588 c -4.47347,-1.64799 -9.06441,-2.47204 -13.77327,-2.47213 -4.59117,9e-5 -9.06464,0.82414 -13.42018,2.47213 -4.35578,1.6482 -8.35822,4.06148 -12.00757,7.23985 -3.64935,3.17858 -6.59251,7.47539 -8.82924,12.89047 -2.11881,5.41527 -3.17833,11.59562 -3.17833,18.54108 0,13.30255 3.7082,24.01518 11.1246,32.13789 7.4164,8.00507 16.65758,12.00759 27.72333,12.00756 9.53543,3e-5 17.9525,-3.29616 25.2512,-9.88857 3.64935,-3.29616 6.59227,-7.76957 8.82901,-13.42021 2.23673,-5.65057 3.3551,-12.06637 3.3551,-19.24741 0,-7.29865 -1.17721,-13.77332 -3.53165,-19.42401 -2.23673,-5.65053 -5.29759,-10.12393 -9.1821,-13.42021 -3.76729,-3.29609 -7.88743,-5.76824 -12.3609,-7.41644" />
        <path
           inkscape:connector-curvature="0"
           id="path5983"
           style="font-style:normal;font-weight:bold;font-size:75.31466675px;line-height:125%;font-family:Sans;-inkscape-font-specification:'Sans Bold';letter-spacing:0px;word-spacing:0px;fill:#000000;fill-opacity:1;stroke:none"
           d="m 951.1998,440.3593 14.83303,0 2.82522,5.82721 c 11.06575,-5.06194 21.07195,-7.59294 30.01895,-7.59301 14.5974,7e-5 24.0151,5.41524 28.2529,16.2455 2.1191,5.41524 3.2374,12.1842 3.3551,20.30691 l 0,50.3258 -21.3664,0 0,-49.97264 c 0,-6.00371 -1.2949,-10.30054 -3.8848,-12.89046 -2.7075,-2.82526 -7.0044,-4.23789 -12.8903,-4.23796 -5.76834,7e-5 -12.4197,1.5893 -19.9538,4.76769 l 0,62.33337 -21.1899,0 0,-85.11241" />
        <rect
           ry="2.8008776"
           y="402.83411"
           x="536.39099"
           height="123.23861"
           width="23.478613"
           id="rect5985"
           style="fill:#000000;fill-opacity:1;stroke:none" />
      </g>
    </g>
    <path
       style="fill:none;stroke:#ffffff;stroke-width:7.24856377;stroke-miterlimit:4;stroke-dasharray:none;stroke-opacity:1"
       d="m 2926.6216,1411.729 c 0,7.7953 -6.3194,14.1147 -14.1147,14.1147 -7.7953,0 -14.1147,-6.3194 -14.1147,-14.1147 0,-7.7953 6.3194,-14.1147 14.1147,-14.1147 7.7953,0 14.1147,6.3194 14.1147,14.1147 z"
       id="path4951"
       inkscape:connector-curvature="0"
       inkscape:export-filename="/home/mdamt/rect4269.png"
       inkscape:export-xdpi="285.01001"
       inkscape:export-ydpi="285.01001" />
    <path
       style="fill:#aa0000;fill-opacity:1;stroke:#ff0000;stroke-width:5.8953023;stroke-linecap:round;stroke-linejoin:round;stroke-miterlimit:4;stroke-opacity:1"
       d="m 2932.9457,1397.3942 0.3313,0 0,30.294 -0.3313,0 z"
       id="path4953"
       inkscape:connector-curvature="0"
       inkscape:export-xdpi="285.01001"
       inkscape:export-ydpi="285.01001" />
    <path
       d="m 2968.5468,1397.4838 -5.9116,0 0,11.1277 c 0.077,0 0.4443,0 1.1012,0 0.6568,-0.039 1.275,-0.058 1.8546,-0.058 0.6182,-0.039 1.4489,-0.097 2.4921,-0.1739 1.0819,-0.1159 1.9126,-0.2318 2.4922,-0.3478 0.6182,-0.1545 1.3136,-0.3863 2.0865,-0.6954 0.8113,-0.3091 1.4102,-0.6762 1.7966,-1.1012 1.0045,-1.0046 1.5069,-2.241 1.5069,-3.7093 0,-2.4728 -1.391,-4.0376 -4.1729,-4.6945 -0.9273,-0.2318 -2.0092,-0.3477 -3.2456,-0.3477 m 0.4057,15.6484 -6.3173,0.3477 0,11.6494 5.6798,0 c 2.5114,0 4.2694,-0.1159 5.2741,-0.3478 1.0431,-0.2318 1.9319,-0.4829 2.666,-0.7534 0.7341,-0.3091 1.3137,-0.6569 1.7387,-1.0432 1.0819,-0.9273 1.6228,-2.1251 1.6228,-3.5934 0,-1.9319 -0.966,-3.4581 -2.8979,-4.5786 -1.8932,-1.1205 -4.482,-1.6807 -7.7662,-1.6807 m -13.4461,-21.676 14.4893,0 c 3.7865,10e-5 6.723,0.6376 8.8095,1.9126 2.0478,1.2365 3.4194,2.6274 4.115,4.1729 0.6568,1.5069 0.9659,2.8979 0.9272,4.1729 0,1.2751 -0.3477,2.5888 -1.0432,3.9411 -0.6569,1.3137 -1.5262,2.4149 -2.608,3.3036 3.1296,1.275 5.1774,3.574 6.1434,6.8968 0.2704,1.0433 0.4057,2.0672 0.4057,3.0718 0,0.9659 -0.1159,1.9319 -0.3478,2.8978 -0.2318,0.966 -0.7534,2.0672 -1.5648,3.3036 -0.7728,1.1977 -1.7773,2.2796 -3.0137,3.2456 -1.2365,0.9273 -2.9752,1.7194 -5.2162,2.3762 -2.2024,0.6182 -4.7332,0.9273 -7.5924,0.9273 l -13.504,0 0,-40.2222"
       style="font-style:normal;font-weight:bold;font-size:75.31466675px;line-height:125%;font-family:Sans;-inkscape-font-specification:'Sans Bold';letter-spacing:0px;word-spacing:0px;fill:#ffffff;fill-opacity:1;stroke:none"
       id="path4955"
       inkscape:connector-curvature="0" />
    <path
       d="m 3001.653,1405.0182 c 3.6319,-1.2364 6.9742,-1.8546 10.0266,-1.8546 3.091,0 5.5058,0.2704 7.2446,0.8113 1.7773,0.541 3.1103,1.3138 3.999,2.3183 1.6614,1.816 2.4921,4.173 2.4921,7.0708 l 0,18.3144 -5.2161,0 -0.7534,-1.8546 c -2.5502,1.6228 -5.4094,2.4342 -8.5777,2.4342 -4.4047,0 -7.7275,-1.2558 -9.9686,-3.7672 -1.1978,-1.391 -1.7966,-2.8592 -1.7966,-4.4048 0,-1.4296 0.1931,-2.6273 0.5795,-3.5933 0.3864,-1.0046 1.024,-1.816 1.9126,-2.4342 0.8887,-0.6568 1.8354,-1.1784 2.8399,-1.5648 1.0046,-0.425 2.3183,-0.7341 3.9411,-0.9274 2.6274,-0.309 5.9889,-0.4636 10.0845,-0.4636 l 0,-0.4057 c 0,-2.5501 -1.0432,-4.1729 -3.1296,-4.8684 -0.966,-0.3091 -2.3957,-0.4636 -4.2889,-0.4637 -1.8933,10e-5 -4.5013,0.4058 -7.8242,1.2171 l -1.1012,0.3478 -1.4489,-5.6218 0.9853,-0.2898 m 16.8075,19.4156 0,-4.057 -0.6955,0 c -4.2502,0 -7.206,0.1739 -8.8674,0.5216 -1.6228,0.3477 -2.4342,1.1978 -2.4342,2.5501 0,0.8887 0.5216,1.5842 1.5648,2.0865 1.0819,0.5023 2.6468,0.7534 4.6946,0.7534 2.0478,0 3.9604,-0.6182 5.7377,-1.8546"
       style="font-style:normal;font-weight:bold;font-size:75.31466675px;line-height:125%;font-family:Sans;-inkscape-font-specification:'Sans Bold';letter-spacing:0px;word-spacing:0px;fill:#ffffff;fill-opacity:1;stroke:none"
       id="path4957"
       inkscape:connector-curvature="0" />
    <path
       d="m 3028.2457,1403.7431 4.8683,0 0.9273,1.9126 c 3.632,-1.6614 6.9163,-2.4921 9.8527,-2.4921 4.7911,0 7.8822,1.7773 9.2732,5.332 0.6954,1.7774 1.0625,3.999 1.1011,6.6651 l 0,16.5177 -7.0127,0 0,-16.4018 c -10e-5,-1.9706 -0.4251,-3.3808 -1.2751,-4.2309 -0.8887,-0.9273 -2.299,-1.3909 -4.2309,-1.391 -1.8932,10e-5 -4.0763,0.5217 -6.5491,1.5649 l 0,20.4588 -6.9548,0 0,-27.9353"
       style="font-style:normal;font-weight:bold;font-size:75.31466675px;line-height:125%;font-family:Sans;-inkscape-font-specification:'Sans Bold';letter-spacing:0px;word-spacing:0px;fill:#ffffff;fill-opacity:1;stroke:none"
       id="path4959"
       inkscape:connector-curvature="0" />
    <path
       d="m 3064.2029,1414.9288 12.0551,-11.7652 8.3458,0 -13.7938,12.8085 14.2574,15.7063 -8.5776,0 -12.2869,-13.9097 0,13.9097 -6.9549,0 0,-40.2222 6.9549,0 0,23.4726"
       style="font-style:normal;font-weight:bold;font-size:75.31466675px;line-height:125%;font-family:Sans;-inkscape-font-specification:'Sans Bold';letter-spacing:0px;word-spacing:0px;fill:#ffffff;fill-opacity:1;stroke:none"
       id="path4961"
       inkscape:connector-curvature="0" />
    <path
       d="m 3103.6353,1394.1287 c 3.7092,0 7.0514,0.8114 10.0265,2.4342 2.9751,1.5841 5.3321,3.9217 7.0708,7.0128 1.7773,3.091 2.666,6.6457 2.6661,10.664 -1e-4,6.1821 -1.8934,11.2244 -5.6799,15.1268 -3.7479,3.8638 -8.5197,5.7957 -14.3154,5.7957 -5.1388,0 -9.6402,-1.6807 -13.5039,-5.0422 -1.8547,-1.6228 -3.3423,-3.7672 -4.4627,-6.4333 -1.1205,-2.666 -1.6808,-5.6411 -1.6808,-8.9253 0,-6.1821 1.874,-11.1664 5.6219,-14.953 3.7865,-3.7864 8.5389,-5.6797 14.2574,-5.6797 m 4.2308,7.3605 c -1.4683,-0.5409 -2.9751,-0.8114 -4.5206,-0.8114 -1.5069,0 -2.9752,0.2705 -4.4047,0.8114 -1.4297,0.541 -2.7433,1.333 -3.9411,2.3762 -1.1978,1.0433 -2.1638,2.4536 -2.8979,4.2309 -0.6954,1.7774 -1.0432,3.8059 -1.0432,6.0855 0,4.3661 1.2171,7.8822 3.6513,10.5482 2.4342,2.6274 5.4673,3.9411 9.0992,3.941 3.1297,10e-5 5.8923,-1.0818 8.2879,-3.2455 1.1978,-1.0819 2.1637,-2.5501 2.8978,-4.4048 0.7342,-1.8546 1.1012,-3.9604 1.1012,-6.3173 0,-2.3955 -0.3864,-4.5206 -1.1591,-6.3753 -0.7342,-1.8546 -1.7388,-3.3228 -3.0137,-4.4047 -1.2365,-1.0818 -2.5888,-1.8932 -4.0571,-2.4342"
       style="font-style:normal;font-weight:bold;font-size:75.31466675px;line-height:125%;font-family:Sans;-inkscape-font-specification:'Sans Bold';letter-spacing:0px;word-spacing:0px;fill:#ffffff;fill-opacity:1;stroke:none"
       id="path4963"
       inkscape:connector-curvature="0" />
    <path
       d="m 3125.2599,1403.7431 4.8685,0 0.9272,1.9126 c 3.632,-1.6614 6.9162,-2.4921 9.8528,-2.4921 4.7911,0 7.8821,1.7773 9.273,5.332 0.6955,1.7774 1.0626,3.999 1.1012,6.6651 l 0,16.5177 -7.0128,0 0,-16.4018 c 0,-1.9706 -0.425,-3.3808 -1.275,-4.2309 -0.8887,-0.9273 -2.299,-1.3909 -4.2308,-1.391 -1.8933,10e-5 -4.0764,0.5217 -6.5492,1.5649 l 0,20.4588 -6.9549,0 0,-27.9353"
       style="font-style:normal;font-weight:bold;font-size:75.31466675px;line-height:125%;font-family:Sans;-inkscape-font-specification:'Sans Bold';letter-spacing:0px;word-spacing:0px;fill:#ffffff;fill-opacity:1;stroke:none"
       id="path4965"
       inkscape:connector-curvature="0" />
    <rect
       style="fill:#ffffff;fill-opacity:1;stroke:none"
       id="rect4967"
       width="7.7060642"
       height="40.448925"
       x="2989.1128"
       y="1391.4268"
       ry="0.91929376" />
  </g>
</svg>
