<?xml version="1.0" encoding="UTF-8" standalone="no"?>
<!-- Created with Inkscape (http://www.inkscape.org/) -->

<svg
   xmlns:dc="http://purl.org/dc/elements/1.1/"
   xmlns:cc="http://creativecommons.org/ns#"
   xmlns:rdf="http://www.w3.org/1999/02/22-rdf-syntax-ns#"
   xmlns:svg="http://www.w3.org/2000/svg"
   xmlns="http://www.w3.org/2000/svg"
   xmlns:xlink="http://www.w3.org/1999/xlink"
   xmlns:sodipodi="http://sodipodi.sourceforge.net/DTD/sodipodi-0.dtd"
   xmlns:inkscape="http://www.inkscape.org/namespaces/inkscape"
   width="1920"
   height="1080"
   id="svg2"
   version="1.1"
   inkscape:version="0.48.5 r10040"
   sodipodi:docname="BlankOn X biru.svg"
   inkscape:export-filename="/home/winardiaris/git/blankon-tambora-kesenian/gambar-latar/ariswinardi/BlankOn X biru.png"
   inkscape:export-xdpi="90"
   inkscape:export-ydpi="90">
  <defs
     id="defs4">
    <linearGradient
       inkscape:collect="always"
       id="linearGradient4629">
      <stop
         style="stop-color:white;stop-opacity:1;"
         offset="0"
         id="stop4631" />
      <stop
         style="stop-color:white;stop-opacity:0;"
         offset="1"
         id="stop4633" />
    </linearGradient>
    <linearGradient
       inkscape:collect="always"
       id="linearGradient4621">
      <stop
         style="stop-color:red;stop-opacity:1;"
         offset="0"
         id="stop4623" />
      <stop
         style="stop-color:red;stop-opacity:0;"
         offset="1"
         id="stop4625" />
    </linearGradient>
    <linearGradient
       inkscape:collect="always"
       id="linearGradient4611">
      <stop
         style="stop-color:white;stop-opacity:1;"
         offset="0"
         id="stop4613" />
      <stop
         style="stop-color:white;stop-opacity:0;"
         offset="1"
         id="stop4615" />
    </linearGradient>
    <linearGradient
       inkscape:collect="always"
       id="linearGradient4523">
      <stop
         style="stop-color:white;stop-opacity:1;"
         offset="0"
         id="stop4525" />
      <stop
         style="stop-color:white;stop-opacity:0;"
         offset="1"
         id="stop4527" />
    </linearGradient>
    <linearGradient
       id="linearGradient3755">
      <stop
         style="stop-color:#6da7ff;stop-opacity:1;"
         offset="0"
         id="stop3757" />
      <stop
         style="stop-color:#2a7fff;stop-opacity:1;"
         offset="1"
         id="stop3759" />
    </linearGradient>
    <radialGradient
       inkscape:collect="always"
       xlink:href="#linearGradient3755"
       id="radialGradient3761"
       cx="960"
       cy="540"
       fx="960"
       fy="540"
       r="960"
       gradientTransform="matrix(1,0,0,0.5625,-4.7320556e-8,208.61219)"
       gradientUnits="userSpaceOnUse" />
    <linearGradient
       inkscape:collect="always"
       xlink:href="#linearGradient4523"
       id="linearGradient4529"
       x1="710.23944"
       y1="731.46234"
       x2="710.23944"
       y2="625.91943"
       gradientUnits="userSpaceOnUse" />
    <linearGradient
       inkscape:collect="always"
       xlink:href="#linearGradient4611"
       id="linearGradient4617"
       x1="763.50446"
       y1="746.01245"
       x2="764.53735"
       y2="649.95575"
       gradientUnits="userSpaceOnUse" />
    <linearGradient
       inkscape:collect="always"
       xlink:href="#linearGradient4611"
       id="linearGradient4668"
       gradientUnits="userSpaceOnUse"
       x1="763.50446"
       y1="746.01245"
       x2="764.53735"
       y2="649.95575"
       gradientTransform="matrix(1.3692101,0,0,-1.3692101,11.333005,1517.3776)" />
    <linearGradient
       inkscape:collect="always"
       xlink:href="#linearGradient4621"
       id="linearGradient4672"
       gradientUnits="userSpaceOnUse"
       x1="787.8609"
       y1="644.00854"
       x2="787.8609"
       y2="512.48663"
       gradientTransform="matrix(1,0,0,-1,0,1112.3005)" />
    <linearGradient
       inkscape:collect="always"
       xlink:href="#linearGradient4629"
       id="linearGradient4675"
       gradientUnits="userSpaceOnUse"
       x1="742.78546"
       y1="644.00854"
       x2="742.78546"
       y2="512.48663"
       gradientTransform="matrix(1,0,0,-1,0,1112.3005)" />
  </defs>
  <sodipodi:namedview
     id="base"
     pagecolor="#ffffff"
     bordercolor="#666666"
     borderopacity="1.0"
     inkscape:pageopacity="0.0"
     inkscape:pageshadow="2"
     inkscape:zoom="0.35355339"
     inkscape:cx="1137.3976"
     inkscape:cy="389.03177"
     inkscape:document-units="px"
     inkscape:current-layer="layer1"
     showgrid="false"
     inkscape:snap-page="true"
     showguides="true"
     inkscape:guide-bbox="true"
     inkscape:window-width="1366"
     inkscape:window-height="716"
     inkscape:window-x="0"
     inkscape:window-y="24"
     inkscape:window-maximized="1">
    <sodipodi:guide
       orientation="0,1"
       position="1254.4074,584.0702"
       id="guide4531" />
    <sodipodi:guide
       orientation="0,1"
       position="1237.4369,452.54834"
       id="guide4533" />
  </sodipodi:namedview>
  <metadata
     id="metadata7">
    <rdf:RDF>
      <cc:Work
         rdf:about="">
        <dc:format>image/svg+xml</dc:format>
        <dc:type
           rdf:resource="http://purl.org/dc/dcmitype/StillImage" />
        <dc:title></dc:title>
      </cc:Work>
    </rdf:RDF>
  </metadata>
  <g
     inkscape:label="Layer 1"
     inkscape:groupmode="layer"
     id="layer1"
     transform="translate(0,27.637817)">
    <rect
       style="fill:url(#radialGradient3761);fill-opacity:1;stroke:none"
       id="rect2985"
       width="1920"
       height="1080"
       x="0"
       y="-27.637817" />
    <g
       id="g4068"
       transform="matrix(1.25,0,0,-1.25,1844.2931,1020.6753)" />
    <text
       sodipodi:linespacing="125%"
       id="text15919"
       y="1412.52"
       x="2436.6533"
       style="font-size:9.09993935px;font-style:normal;font-variant:normal;font-weight:normal;font-stretch:normal;text-align:start;line-height:125%;letter-spacing:0px;word-spacing:0px;writing-mode:lr-tb;text-anchor:start;fill:red;fill-opacity:1;stroke:none;font-family:Ombilin;-inkscape-font-specification:Ombilin"
       xml:space="preserve"><tspan
         style="font-style:normal;font-variant:normal;font-weight:normal;font-stretch:normal;fill:red;font-family:Cantarell;-inkscape-font-specification:Cantarell"
         y="1412.52"
         x="2436.6533"
         id="tspan15921"
         sodipodi:role="line" /></text>
    <g
       id="g4475">
      <g
         id="g4471">
        <path
           style="font-size:medium;font-style:normal;font-variant:normal;font-weight:normal;font-stretch:normal;text-indent:0;text-align:start;text-decoration:none;line-height:normal;letter-spacing:normal;word-spacing:normal;text-transform:none;direction:ltr;block-progression:tb;writing-mode:lr-tb;text-anchor:start;baseline-shift:baseline;color:black;fill:white;fill-opacity:1;stroke:none;stroke-width:14.51455212;marker:none;visibility:visible;display:inline;overflow:visible;enable-background:accumulate;font-family:Sans;-inkscape-font-specification:Sans"
           d="m 738.6875,473.71875 c -19.53148,0 -35.5,15.96852 -35.5,35.5 0,19.53149 15.96852,35.53125 35.5,35.53125 19.53151,0 35.53125,-15.99976 35.53125,-35.53125 0,-19.53148 -15.99973,-35.5 -35.53125,-35.5 z m 0,14.5 c 11.68728,0 21.03125,9.31276 21.03125,21 0,11.68725 -9.34396,21 -21.03125,21 -11.68722,0 -21,-9.31275 -21,-21 0,-11.68724 9.31278,-21 21,-21 z"
           id="path6014"
           inkscape:connector-curvature="0" />
        <path
           style="font-size:medium;font-style:normal;font-variant:normal;font-weight:normal;font-stretch:normal;text-indent:0;text-align:start;text-decoration:none;line-height:normal;letter-spacing:normal;word-spacing:normal;text-transform:none;direction:ltr;block-progression:tb;writing-mode:lr-tb;text-anchor:start;baseline-shift:baseline;color:black;fill:red;fill-opacity:1;fill-rule:nonzero;stroke:none;stroke-width:11.80477524;marker:none;visibility:visible;display:inline;overflow:visible;enable-background:accumulate;font-family:Sans;-inkscape-font-specification:Sans"
           d="m 779.625,474.625 a 5.9029779,5.9029779 0 0 0 -5.90625,5.90625 l 0,60.65625 a 5.9029779,5.9029779 0 0 0 5.90625,5.90625 l 0.65625,0 a 5.9029779,5.9029779 0 0 0 5.90625,-5.90625 l 0,-60.65625 a 5.9029779,5.9029779 0 0 0 -5.90625,-5.90625 l -0.65625,0 z"
           id="path6016"
           inkscape:connector-curvature="0" />
      </g>
      <g
         transform="matrix(1.3692101,0,0,1.3692101,11.333005,-377.43927)"
         style="fill:white;stroke:none"
         id="g6041">
        <path
           d="m 613.18495,626.7424 -8.64546,0 0,16.27379 c 0.11299,3e-5 0.64981,3e-5 1.61045,0 0.96065,-0.0565 1.86468,-0.0848 2.71234,-0.0848 0.90403,-0.0565 2.11891,-0.14123 3.64462,-0.25427 1.5822,-0.16949 2.79707,-0.339 3.64461,-0.50856 0.90415,-0.22599 1.92118,-0.56503 3.05142,-1.01712 1.18651,-0.45201 2.06241,-0.98882 2.62748,-1.61042 1.4691,-1.46913 2.20376,-3.27733 2.20376,-5.4246 0,-3.61635 -2.03428,-5.90485 -6.10272,-6.8655 -1.35611,-0.339 -2.93831,-0.50852 -4.7465,-0.50856 m 0.59331,22.88503 -9.23877,0.50855 0,17.03662 8.30649,0 c 3.67286,10e-6 6.24385,-0.1695 7.71306,-0.50854 1.5256,-0.33903 2.82532,-0.70633 3.89896,-1.10188 1.07352,-0.45204 1.92117,-0.96059 2.54273,-1.52567 1.58221,-1.35613 2.37325,-3.10782 2.37325,-5.25508 0,-2.82529 -1.41272,-5.05728 -4.23793,-6.69599 -2.76882,-1.63865 -6.55479,-2.458 -11.35779,-2.45801 m -19.66417,-31.70001 21.18988,0 c 5.53755,6e-5 9.83208,0.93242 12.88339,2.79707 2.99481,1.80825 5.00073,3.84247 6.01798,6.10266 0.96053,2.2038 1.41261,4.23802 1.35611,6.10268 0,1.86475 -0.50857,3.78596 -1.52571,5.76364 -0.96064,1.92124 -2.23201,3.53167 -3.8141,4.83128 4.5769,1.86473 7.57171,5.22685 8.98443,10.08636 0.39546,1.52569 0.59331,3.0231 0.59331,4.49224 0,1.41267 -0.16948,2.82534 -0.50857,4.23798 -0.33908,1.41266 -1.10188,3.02309 -2.2885,4.83127 -1.13014,1.7517 -2.59924,3.33389 -4.40742,4.74654 -1.8083,1.35614 -4.35104,2.51452 -7.62832,3.47513 -3.22091,0.90409 -6.92213,1.35614 -11.10357,1.35614 l -19.74891,0 0,-58.82299"
           style="font-size:75.31466675px;font-style:normal;font-weight:bold;line-height:125%;letter-spacing:0px;word-spacing:0px;fill:white;stroke:none;font-family:Sans;-inkscape-font-specification:Sans Bold"
           id="path6018"
           inkscape:connector-curvature="0" />
        <path
           d="m 661.60117,637.76111 c 5.31156,-1.80816 10.19941,-2.71226 14.66344,-2.71229 4.5204,3e-5 8.05203,0.39558 10.59488,1.18662 2.59923,0.79113 4.54865,1.92126 5.84838,3.39038 2.42975,2.65583 3.64462,6.1027 3.64462,10.34064 l 0,26.78395 -7.62832,0 -1.10189,-2.7123 c -3.72947,2.37326 -7.9109,3.5599 -12.54441,3.5599 -6.4417,0 -11.30118,-1.83646 -14.57859,-5.50936 -1.75169,-2.03422 -2.62748,-4.18145 -2.62748,-6.44171 0,-2.09072 0.28248,-3.84241 0.84755,-5.25508 0.56506,-1.46915 1.49746,-2.65577 2.79707,-3.5599 1.29962,-0.96058 2.68409,-1.72341 4.15319,-2.2885 1.46922,-0.62155 3.39039,-1.0736 5.76364,-1.35615 3.84246,-0.45202 8.75845,-0.67805 14.74818,-0.67807 l 0,-0.59332 c -1.1e-4,-3.72938 -1.52571,-6.10264 -4.57701,-7.11979 -1.41272,-0.45201 -3.50349,-0.67804 -6.27221,-0.67807 -2.76883,3e-5 -6.58305,0.59335 -11.44254,1.77994 l -1.61045,0.50856 -2.11891,-8.22165 1.44086,-0.4238 m 24.58026,28.39439 0,-5.93316 -1.01714,0 c -6.21571,2e-5 -10.5385,0.25429 -12.96824,0.76283 -2.37325,0.50857 -3.55988,1.75171 -3.55988,3.72942 0,1.29965 0.7628,2.31676 2.28851,3.05133 1.5822,0.73459 3.87071,1.10188 6.86552,1.10188 2.99481,0 5.79189,-0.9041 8.39123,-2.7123"
           style="font-size:75.31466675px;font-style:normal;font-weight:bold;line-height:125%;letter-spacing:0px;word-spacing:0px;fill:white;stroke:none;font-family:Sans;-inkscape-font-specification:Sans Bold"
           id="path6020"
           inkscape:connector-curvature="0" />
        <path
           d="m 700.49172,635.8964 7.11975,0 1.35611,2.79707 c 5.31157,-2.42974 10.11467,-3.64462 14.4091,-3.64465 7.00675,3e-5 11.52728,2.59932 13.56155,7.79785 1.01703,2.59932 1.55384,5.84842 1.61034,9.74733 l 0,24.15641 -10.2558,0 0,-23.9869 c -1.1e-4,-2.88178 -0.62167,-4.94426 -1.86467,-6.18742 -1.29974,-1.35613 -3.36226,-2.03419 -6.18747,-2.03423 -2.76883,4e-5 -5.96148,0.76287 -9.57786,2.2885 l 0,29.92005 -10.17105,0 0,-40.85401"
           style="font-size:75.31466675px;font-style:normal;font-weight:bold;line-height:125%;letter-spacing:0px;word-spacing:0px;fill:white;stroke:none;font-family:Sans;-inkscape-font-specification:Sans Bold"
           id="path6022"
           inkscape:connector-curvature="0" />
        <path
           d="m 753.07741,652.25496 17.63,-17.20614 12.20534,0 -20.17274,18.73181 20.85079,22.96978 -12.54442,0 -17.96897,-20.34224 0,20.34224 -10.17116,0 0,-58.82299 10.17116,0 0,34.32754"
           style="font-size:75.31466675px;font-style:normal;font-weight:bold;line-height:125%;letter-spacing:0px;word-spacing:0px;fill:white;stroke:none;font-family:Sans;-inkscape-font-specification:Sans Bold"
           id="path6024"
           inkscape:connector-curvature="0" />
        <path
           d="m 810.74543,621.83572 c 5.42455,6e-5 10.31229,1.18669 14.66332,3.5599 4.35092,2.3168 7.7978,5.73542 10.34066,10.25587 2.59922,4.52054 3.89884,9.71911 3.89895,15.59573 -1.1e-4,9.04101 -2.76894,16.41507 -8.30648,22.12219 -5.48117,5.65063 -12.45968,8.47592 -20.93554,8.47592 -7.51533,0 -14.09837,-2.45801 -19.74891,-7.37405 -2.71233,-2.37325 -4.88785,-5.50934 -6.52643,-9.40829 -1.63871,-3.89891 -2.45811,-8.24989 -2.45811,-13.05294 0,-9.04096 2.74058,-16.33025 8.22174,-21.86791 5.53755,-5.53756 12.48781,-8.30636 20.8508,-8.30642 m 6.18735,10.76443 c -2.14727,-0.79103 -4.35092,-1.18658 -6.61118,-1.18662 -2.20376,4e-5 -4.35103,0.39559 -6.44169,1.18662 -2.09078,0.79114 -4.01196,1.94952 -5.76365,3.47514 -1.75169,1.52572 -3.1644,3.58819 -4.23804,6.18743 -1.01703,2.59933 -1.5256,5.5659 -1.5256,8.89973 0,6.38523 1.77994,11.5273 5.33982,15.4262 3.55988,3.84244 7.99565,5.76365 13.30721,5.76364 4.57702,10e-6 8.61721,-1.58216 12.12059,-4.74652 1.75169,-1.58216 3.1643,-3.7294 4.23793,-6.44171 1.07364,-2.71227 1.61045,-5.79186 1.61045,-9.23877 0,-3.50335 -0.56506,-6.6112 -1.69519,-9.32353 -1.07363,-2.71226 -2.54285,-4.85949 -4.40741,-6.44171 -1.8083,-1.58213 -3.78597,-2.76876 -5.93324,-3.5599"
           style="font-size:75.31466675px;font-style:normal;font-weight:bold;line-height:125%;letter-spacing:0px;word-spacing:0px;fill:white;stroke:none;font-family:Sans;-inkscape-font-specification:Sans Bold"
           id="path6026"
           inkscape:connector-curvature="0" />
        <path
           d="m 842.37038,635.8964 7.11986,0 1.35611,2.79707 c 5.31156,-2.42974 10.11454,-3.64462 14.40911,-3.64465 7.00676,3e-5 11.52726,2.59932 13.56141,7.79785 1.01717,2.59932 1.55395,5.84842 1.61045,9.74733 l 0,24.15641 -10.25589,0 0,-23.9869 c 0,-2.88178 -0.62155,-4.94426 -1.8647,-6.18742 -1.2996,-1.35613 -3.36212,-2.03419 -6.18735,-2.03423 -2.76881,4e-5 -5.96147,0.76287 -9.57784,2.2885 l 0,29.92005 -10.17116,0 0,-40.85401"
           style="font-size:75.31466675px;font-style:normal;font-weight:bold;line-height:125%;letter-spacing:0px;word-spacing:0px;fill:white;stroke:none;font-family:Sans;-inkscape-font-specification:Sans Bold"
           id="path6028"
           inkscape:connector-curvature="0" />
        <rect
           style="fill:white;stroke:none"
           id="rect6030"
           width="11.269748"
           height="59.154606"
           x="643.2619"
           y="617.88428"
           ry="1.3444229" />
      </g>
    </g>
    <path
       inkscape:connector-curvature="0"
       id="path4580"
       d="m 738.6875,638.58175 c -19.53148,0 -35.5,-15.96852 -35.5,-35.5 0,-19.53149 15.96852,-35.53125 35.5,-35.53125 19.53151,0 35.53125,15.99976 35.53125,35.53125 0,19.53148 -15.99973,35.5 -35.53125,35.5 z m 0,-14.5 c 11.68728,0 21.03125,-9.31276 21.03125,-21 0,-11.68725 -9.34396,-21 -21.03125,-21 -11.68722,0 -21,9.31275 -21,21 0,11.68724 9.31278,21 21,21 z"
       style="font-size:medium;font-style:normal;font-variant:normal;font-weight:normal;font-stretch:normal;text-indent:0;text-align:start;text-decoration:none;line-height:normal;letter-spacing:normal;word-spacing:normal;text-transform:none;direction:ltr;block-progression:tb;writing-mode:lr-tb;text-anchor:start;baseline-shift:baseline;color:black;fill:url(#linearGradient4675);fill-opacity:1;stroke:none;stroke-width:14.51455211999999939;marker:none;visibility:visible;display:inline;overflow:visible;enable-background:accumulate;font-family:Sans;-inkscape-font-specification:Sans" />
    <path
       inkscape:connector-curvature="0"
       id="path4582"
       d="m 779.625,637.6755 a 5.9029779,5.9029779 0 0 1 -5.90625,-5.90625 l 0,-60.65625 a 5.9029779,5.9029779 0 0 1 5.90625,-5.90625 l 0.65625,0 a 5.9029779,5.9029779 0 0 1 5.90625,5.90625 l 0,60.65625 a 5.9029779,5.9029779 0 0 1 -5.90625,5.90625 l -0.65625,0 z"
       style="font-size:medium;font-style:normal;font-variant:normal;font-weight:normal;font-stretch:normal;text-indent:0;text-align:start;text-decoration:none;line-height:normal;letter-spacing:normal;word-spacing:normal;text-transform:none;direction:ltr;block-progression:tb;writing-mode:lr-tb;text-anchor:start;baseline-shift:baseline;color:black;fill:url(#linearGradient4672);fill-opacity:1;fill-rule:nonzero;stroke:none;stroke-width:11.80477523999999967;marker:none;visibility:visible;display:inline;overflow:visible;enable-background:accumulate;font-family:Sans;-inkscape-font-specification:Sans" />
    <path
       style="font-size:75.31466675000000066px;font-style:normal;font-weight:bold;line-height:125%;letter-spacing:0px;word-spacing:0px;fill:url(#linearGradient4668);fill-opacity:1;stroke:none;font-family:Sans;-inkscape-font-specification:Sans Bold"
       d="M 1120.9375 583.78125 C 1110.6474 583.78125 1101.6431 587.14391 1093.9062 593.875 C 1090.1925 597.12448 1087.2124 601.44277 1084.9688 606.78125 C 1082.7251 612.11967 1081.5938 618.04862 1081.5938 624.625 C 1081.5938 637.00398 1085.3702 647.01153 1092.875 654.59375 C 1100.4571 662.17583 1109.9556 665.96867 1121.4062 665.96875 C 1128.8337 665.96867 1135.5425 664.34317 1141.5 661.09375 C 1147.4573 657.92156 1152.1745 653.2207 1155.6562 647.03125 C 1159.2151 640.84168 1160.9999 633.73383 1161 625.6875 C 1160.9999 613.30846 1157.2071 603.2205 1149.625 595.40625 C 1142.1201 587.66935 1132.5427 583.78125 1120.9375 583.78125 z M 935.65625 589.59375 C 926.83621 589.59375 920.17496 592.12728 915.6875 597.15625 C 913.28907 599.94153 912.09375 602.87398 912.09375 605.96875 C 912.09375 608.83138 912.4763 611.222 913.25 613.15625 C 914.02369 615.16782 915.31431 616.7933 917.09375 618.03125 C 918.8732 619.34648 920.76974 620.38253 922.78125 621.15625 C 924.79292 622.00729 927.40677 622.64438 930.65625 623.03125 C 935.91739 623.65016 942.6738 623.96872 950.875 623.96875 L 950.875 624.78125 C 950.87485 629.88755 948.77162 633.13855 944.59375 634.53125 C 942.65944 635.15014 939.79096 635.43746 936 635.4375 C 932.20889 635.43746 926.99741 634.6247 920.34375 633 L 918.125 632.3125 L 915.21875 643.5625 L 917.21875 644.15625 C 924.49139 646.632 931.16905 647.87496 937.28125 647.875 C 943.47063 647.87496 948.29955 647.3331 951.78125 646.25 C 955.34014 645.16678 958.00164 643.60528 959.78125 641.59375 C 963.10809 637.95736 964.78125 633.24013 964.78125 627.4375 L 964.78125 590.75 L 954.34375 590.75 L 952.84375 594.46875 C 947.73732 591.21926 942.0005 589.59375 935.65625 589.59375 z M 893.9375 590.375 C 892.9177 590.375 892.09375 591.19895 892.09375 592.21875 L 892.09375 669.53125 C 892.09375 670.55105 892.9177 671.375 893.9375 671.375 L 905.6875 671.375 C 906.7073 671.375 907.53125 670.55105 907.53125 669.53125 L 907.53125 592.21875 C 907.53125 591.19895 906.7073 590.375 905.6875 590.375 L 893.9375 590.375 z M 824.8125 590.75 L 824.8125 671.3125 L 853.8125 671.3125 C 861.39456 671.31242 867.29087 670.02185 871.46875 667.46875 C 875.56928 664.99288 878.29467 662.21968 879.6875 659.125 C 881.00267 656.10753 881.63986 653.30311 881.5625 650.75 C 881.5625 648.19676 880.86143 645.58286 879.46875 642.875 C 878.15344 640.24442 876.41621 638.02944 874.25 636.25 C 880.51674 633.69679 884.59694 629.09119 886.53125 622.4375 C 887.07272 620.34851 887.34375 618.29281 887.34375 616.28125 C 887.34375 614.34701 887.12053 612.4342 886.65625 610.5 C 886.19198 608.56577 885.15598 606.35078 883.53125 603.875 C 881.98385 601.47656 879.97578 599.30922 877.5 597.375 C 875.02405 595.51816 871.51854 593.94028 867.03125 592.625 C 862.62115 591.38711 857.56902 590.75 851.84375 590.75 L 824.8125 590.75 z M 970.46875 590.75 L 970.46875 646.6875 L 980.1875 646.6875 L 982.0625 642.875 C 989.33515 646.20182 995.90123 647.87496 1001.7812 647.875 C 1011.375 647.87496 1017.5584 644.30538 1020.3438 637.1875 C 1021.7363 633.62848 1022.4851 629.18218 1022.5625 623.84375 L 1022.5625 590.75 L 1008.5312 590.75 L 1008.5312 623.59375 C 1008.5312 627.53951 1007.6707 630.3916 1005.9688 632.09375 C 1004.1892 633.95057 1001.3683 634.87494 997.5 634.875 C 993.70889 634.87494 989.32658 633.80766 984.375 631.71875 L 984.375 590.75 L 970.46875 590.75 z M 1028.5312 590.75 L 1028.5312 671.3125 L 1042.4688 671.3125 L 1042.4688 624.3125 L 1066.5938 647.875 L 1083.3125 647.875 L 1055.6875 622.21875 L 1084.2188 590.75 L 1067.0625 590.75 L 1042.4688 618.625 L 1042.4688 590.75 L 1028.5312 590.75 z M 1164.7188 590.75 L 1164.7188 646.6875 L 1174.4688 646.6875 L 1176.3125 642.875 C 1183.5852 646.20182 1190.1824 647.87496 1196.0625 647.875 C 1205.6562 647.87496 1211.8399 644.30538 1214.625 637.1875 C 1216.0178 633.62848 1216.7351 629.18218 1216.8125 623.84375 L 1216.8125 590.75 L 1202.7812 590.75 L 1202.7812 623.59375 C 1202.7812 627.53951 1201.9209 630.3916 1200.2188 632.09375 C 1198.4394 633.95057 1195.6183 634.87494 1191.75 634.875 C 1187.9589 634.87494 1183.6079 633.80766 1178.6562 631.71875 L 1178.6562 590.75 L 1164.7188 590.75 z M 1121.75 596.78125 C 1128.0169 596.78124 1133.5468 598.94857 1138.3438 603.28125 C 1140.7422 605.44756 1142.6861 608.38003 1144.1562 612.09375 C 1145.6263 615.80742 1146.375 620.03045 1146.375 624.75 C 1146.375 629.54682 1145.5786 633.8175 1144.0312 637.53125 C 1142.5612 641.2449 1140.5529 644.17736 1138 646.34375 C 1135.524 648.51002 1132.8151 650.13551 1129.875 651.21875 C 1126.935 652.30183 1123.9386 652.84369 1120.8438 652.84375 C 1117.8264 652.84369 1114.8625 652.30183 1112 651.21875 C 1109.1373 650.13551 1106.5235 648.55764 1104.125 646.46875 C 1101.7266 644.37972 1099.7825 641.5589 1098.3125 638 C 1096.92 634.44097 1096.2188 630.37721 1096.2188 625.8125 C 1096.2188 617.06978 1098.657 610.02591 1103.5312 604.6875 C 1108.4054 599.42639 1114.4774 596.78124 1121.75 596.78125 z M 939.375 601.5625 C 943.47553 601.5625 947.31596 602.80545 950.875 605.28125 L 950.875 613.40625 L 949.46875 613.40625 C 940.95814 613.40623 935.04557 613.04005 931.71875 612.34375 C 928.46927 611.64741 926.84375 609.9579 926.84375 607.25 C 926.84375 605.47051 927.87974 604.06828 929.96875 603.0625 C 932.13512 602.05669 935.27448 601.5625 939.375 601.5625 z M 839.0625 603.875 L 850.4375 603.875 C 855.46642 603.87499 858.98834 604.09828 861 604.5625 C 863.08887 605.0267 864.87371 605.55215 866.34375 606.09375 C 867.81362 606.71268 868.9927 607.41379 869.84375 608.1875 C 872.01013 610.04433 873.09375 612.43495 873.09375 615.375 C 873.09375 619.24341 871.14955 622.28752 867.28125 624.53125 C 863.49015 626.77491 858.29506 627.90623 851.71875 627.90625 L 839.0625 627.21875 L 839.0625 603.875 z M 839.0625 636.96875 C 839.21721 636.96871 839.96594 636.96871 841.28125 636.96875 C 842.59659 637.04615 843.83937 637.0625 845 637.0625 C 846.23781 637.1399 847.87973 637.25147 849.96875 637.40625 C 852.13511 637.63831 853.80829 637.89284 854.96875 638.125 C 856.20672 638.43443 857.60871 638.881 859.15625 639.5 C 860.78083 640.1189 861.9763 640.86765 862.75 641.71875 C 864.76151 643.73029 865.78125 646.18494 865.78125 649.125 C 865.78125 654.07655 862.9768 657.21591 857.40625 658.53125 C 855.54945 658.99541 853.38204 659.24995 850.90625 659.25 L 839.0625 659.25 L 839.0625 636.96875 z "
       transform="translate(0,-27.637817)"
       id="path4586" />
  </g>
</svg>
