<?xml version="1.0" encoding="UTF-8" standalone="no"?>
<!-- Created with Inkscape (http://www.inkscape.org/) -->

<svg
   xmlns:dc="http://purl.org/dc/elements/1.1/"
   xmlns:cc="http://creativecommons.org/ns#"
   xmlns:rdf="http://www.w3.org/1999/02/22-rdf-syntax-ns#"
   xmlns:svg="http://www.w3.org/2000/svg"
   xmlns="http://www.w3.org/2000/svg"
   xmlns:sodipodi="http://sodipodi.sourceforge.net/DTD/sodipodi-0.dtd"
   xmlns:inkscape="http://www.inkscape.org/namespaces/inkscape"
   width="297mm"
   height="210mm"
   viewBox="0 0 1052.3622 744.09448"
   id="svg4940"
   version="1.1"
   inkscape:version="0.91 r13725"
   sodipodi:docname="hoodie-OIX-hitam.svg">
  <defs
     id="defs4942" />
  <sodipodi:namedview
     id="base"
     pagecolor="#ffffff"
     bordercolor="#666666"
     borderopacity="1.0"
     inkscape:pageopacity="0.0"
     inkscape:pageshadow="2"
     inkscape:zoom="0.98994949"
     inkscape:cx="382.68053"
     inkscape:cy="395.92587"
     inkscape:document-units="px"
     inkscape:current-layer="g5626"
     showgrid="false"
     inkscape:window-width="1366"
     inkscape:window-height="717"
     inkscape:window-x="0"
     inkscape:window-y="24"
     inkscape:window-maximized="1" />
  <metadata
     id="metadata4945">
    <rdf:RDF>
      <cc:Work
         rdf:about="">
        <dc:format>image/svg+xml</dc:format>
        <dc:type
           rdf:resource="http://purl.org/dc/dcmitype/StillImage" />
        <dc:title></dc:title>
      </cc:Work>
    </rdf:RDF>
  </metadata>
  <g
     inkscape:label="Layer 1"
     inkscape:groupmode="layer"
     id="layer1"
     transform="translate(0,-308.26772)">
    <g
       id="g5640"
       transform="matrix(2.0009001,0,0,2.0009001,28.009244,-1197.3596)">
      <g
         id="g5557">
        <path
           d="m 34.870624,866.24846 c 1.5405,-3.67125 3.012625,-4.51875 4.835375,-5.67875 3.78275,-2.43375 7.63775,-4.67625 11.768625,-6.64625 6.586875,-3.1675 13.033625,-4.90875 19.829125,-7.37875 -1.120625,-2.2425 -0.488375,-5.9525 -0.2075,-7.1875 0.769,-3.245 1.188875,-4.40625 3.784125,-6.3775 3.430125,-2.54875 6.935,-2.43375 10.859375,-0.8875 2.590375,1.005 6.30375,0.73375 8.8965,1.77875 2.102,0.81 4.204125,1.4675 6.306121,2.12375 3.2935,0.96375 6.58688,0.85 10.0195,1.0425 2.45363,0.11625 7.00688,-0.53875 9.53038,-0.34625 2.24212,0.15375 4.90275,-1.08375 7.0765,-1.585 2.38,-0.54125 4.62375,-1.38875 6.655,-2.74375 2.94375,-1.8925 6.86625,-1.81625 10.37,-1.23625 1.96375,0.30875 4.975,0.38625 6.72625,1.5075 1.12125,0.695 2.17125,3.205 2.4525,4.40375 0.63125,2.62875 0.7025,2.5125 0.77125,5.17875 0,1.3525 0.07,3.2075 0.07,4.56 7.6375,0 15.13375,3.36125 21.65125,7.265 3.29125,2.005 6.09375,4.13375 9.8775,5.7575 2.8025,1.1975 3.99375,4.32625 5.815,6.5675 3.08375,-0.345 5.46625,7.38 7.2175,9.66125 5.67625,7.38 7.2875,13.87125 9.95,22.68 2.3125,7.38 5.675,12.905 9.18,19.9 3.29125,6.53125 4.8325,17.92975 5.675,25.07825 0.63,5.10013 0.91,11.13038 0.91,16.19138 0,6.6455 -0.56125,13.17537 -1.8225,19.55075 -0.55875,3.09087 1.12125,8.85012 0.35,11.98 -0.98,3.90137 -1.04875,7.84325 -2.03125,11.66751 -1.05125,3.7476 -1.75,7.5 -1.75,11.399 0,3.4399 -2.315,4.4824 -2.8025,7.8441 -0.4925,3.2105 -0.9825,11.0914 -3.855,13.0225 0,2.4316 0.49,10.896 -1.12125,12.7881 -2.03125,2.4365 -8.8275,1.7407 -11.5625,1.626 -4.8325,-0.2319 -11.56,-1.3135 -15.8325,-3.75 -1.68125,-0.9644 -1.82375,-1.6992 -1.68125,-3.3228 0.34875,-2.666 0.83875,-10.0439 1.68125,-12.5985 -1.9625,-1.9693 -1.82375,-4.6329 -1.82375,-7.5699 0,-3.44 2.1025,-6.5723 2.5225,-9.9301 0.6325,-4.5988 1.2625,-9.1983 1.9625,-13.79791 0.7025,-4.40188 0.21,-9.15775 0.21,-13.64013 0,-5.63975 2.03125,-11.01325 2.03125,-16.61387 0,-4.09663 -0.56125,-8.11513 -0.91,-12.17038 -0.21,-2.20212 -0.70125,-4.44575 -1.4,-6.56975 -0.7025,-2.01175 -1.5425,-4.05762 -2.31375,-6.03037 -0.56,-1.19625 -0.77,-7.6855 -1.54,-8.69375 0.21,6.996 -0.91125,20.59812 -0.91125,27.55362 0.0687,4.40188 -1.40125,8.80863 -1.40125,13.291 -0.0712,5.37013 -0.42,10.70563 -0.56125,16.07425 -0.14,6.14263 -0.27875,12.09479 -1.12125,18.12259 -0.49,3.7867 -0.91,7.3804 -3.36375,10.4322 l -0.42,0.7323 c 0.77125,2.6685 0.21125,5.8008 0.35125,8.54 0.0687,1.7384 0,5.8765 0,5.8765 0,0 -8.83,3.6719 -12.12125,4.9854 -9.03875,3.667 -18.8475,9.0015 -28.6575,9.6191 -13.24213,0.8887 -26.06438,1.5845 -39.167376,0.3858 -6.516125,-0.6152 -12.893,-2.7051 -19.19675,-4.48 -3.225125,-0.8911 -5.955625,-1.8945 -8.96975,-3.2861 -3.152875,-1.5064 -6.726125,-2.3926 -9.73875,-4.1724 -2.382875,-1.355 -7.146,-4.1358 -7.146,-4.1358 0,0 -1.682125,-10.3955 0,-15.6103 -1.543,-1.3525 -1.61375,-3.3618 -2.3135,-4.7924 -0.909125,-2.085 0.06987,-5.7935 -0.56,-7.9981 -0.842375,-3.2447 -1.26225,-6.37454 -1.26225,-9.73879 0,-5.75775 -0.700625,-11.47462 -0.700625,-17.2705 -0.06938,-7.53412 0.1415,-15.18312 -0.13925,-22.68312 -0.27825,-5.10013 -0.209875,-24.84375 -0.209875,-24.84375 0,0 -1.540625,4.55912 -2.312125,6.45262 -1.682125,4.36525 -3.225,13.40575 -4.064875,18.00788 -1.049875,5.52237 -0.349125,11.01075 -0.349125,16.61375 l 0.209,1.3135 c 0,3.75237 0.491625,7.53412 1.1215,11.2475 0.841375,5.05862 1.332125,9.89012 1.543,15.06591 0.06988,2.1265 0.13925,4.2896 0.349125,6.4161 0.139125,2.1289 0.7715,4.1357 1.25975,6.1816 1.26225,4.6363 3.154375,9.9706 2.382875,14.7216 -0.2075,1.5454 -1.46975,2.8199 -1.46975,2.8199 0,0 1.04975,8.8891 1.04975,11.0156 0,1.0034 0.07088,2.0459 -0.06925,3.0127 -0.13925,1.0034 -0.631375,1.1572 -1.400375,1.7383 -5.535625,3.9429 -15.976625,4.0576 -22.631875,3.5547 -0.911625,-0.039 -2.453625,-0.3467 -3.223625,-0.8106 -0.841375,-0.499 -0.631375,-1.4306 -0.631375,-2.434 -0.06837,-1.4698 -0.419875,-2.8614 -0.49075,-4.3663 -0.06925,-1.5444 -0.419875,-7.1499 -0.419875,-8.7319 -0.9815,-1.1596 -2.03125,-1.5479 -2.663625,-3.0542 -1.679637,-3.7109 -3.361775,-7.688 -4.062449,-11.6699 -0.4892625,-2.9346 -1.472175,-5.7593 -2.17285,-8.6158 -0.91065,-3.3251 -1.53955,-6.6845 -2.10205,-10.0463 -0.7006875,-3.90379 0,-7.61229 -0.490725,-11.55516 -0.349125,-2.70263 -1.1181625,-5.40775 -1.0498125,-8.15038 0.419925,-11.7105 -5.04394,-26.625 -1.752925,-38.063 1.684575,-5.87412 2.3828125,-11.55037 4.2041,-17.427 1.472175,-4.55875 1.1206125,-7.72625 3.3642625,-11.47625 2.451174,-3.94125 3.433574,-9.005 5.395449,-13.33125 2.732,-6.18125 6.516125,-11.515 8.058125,-18.1225 1.47075,-5.98875 6.165625,-10.8975 10.93025,-14.9925 l 0.77,-0.735"
           style="fill:#000000;fill-opacity:1;fill-rule:nonzero;stroke:none"
           id="path4299"
           inkscape:connector-curvature="0" />
        <path
           d="m 147.18625,834.98971 c 1.12125,3.44 -5.60625,5.71875 -8.75875,6.84 -3.57125,1.31375 -7.2875,2.4725 -10.85875,3.7875 -3.64538,1.3125 -7.848,3.2075 -11.07075,5.37 -1.47213,1.00625 -2.8725,3.20875 -3.0825,4.94375 -1.68213,-5.7175 -9.10888,-7.99625 -14.152751,-10.23625 -4.6265,-2.01125 -11.0035,-1.7775 -15.4175,-4.21375 -2.5205,-1.38875 -7.775875,-3.78625 -6.233875,-6.95375"
           style="fill:none;stroke:#7a7778;stroke-width:0.62374997;stroke-linecap:round;stroke-linejoin:round;stroke-miterlimit:4;stroke-dasharray:none;stroke-opacity:1"
           id="path4301"
           inkscape:connector-curvature="0" />
        <path
           d="m 34.870624,866.24846 c 2.8725,4.36875 6.025375,8.88625 8.056625,13.835 2.663625,6.2975 3.01275,13.25375 3.92475,19.94 1.26075,9.1575 2.662125,22.99 -1.261125,31.64538"
           style="fill:none;stroke:#7a7778;stroke-width:0.62374997;stroke-linecap:butt;stroke-linejoin:miter;stroke-miterlimit:4;stroke-dasharray:none;stroke-opacity:1"
           id="path4303"
           inkscape:connector-curvature="0" />
        <path
           d="m 191.9575,866.36596 c -3.57125,2.66625 -8.96625,10.47375 -10.72,14.5675 -1.12,2.7075 -1.54,6.22 -1.89,9.11875 -0.7025,5.44875 -1.5425,11.01375 -1.7525,16.5 -0.35125,8.3475 1.47,21.13613 5.60625,28.51513"
           style="fill:none;stroke:#7a7778;stroke-width:0.62374997;stroke-linecap:butt;stroke-linejoin:miter;stroke-miterlimit:4;stroke-dasharray:none;stroke-opacity:1"
           id="path4305"
           inkscape:connector-curvature="0" />
        <path
           d="m 16.442874,1033.4877 c 6.867625,1.9311 21.582,-0.774 27.817375,-2.9785"
           style="fill:none;stroke:#7a7778;stroke-width:0.62374997;stroke-linecap:butt;stroke-linejoin:miter;stroke-miterlimit:4;stroke-dasharray:none;stroke-opacity:1"
           id="path4307"
           inkscape:connector-curvature="0" />
        <path
           d="m 184.4625,1030.0835 c 7.0075,2.518 21.29875,5.2963 28.51625,5.2572"
           style="fill:none;stroke:#7a7778;stroke-width:0.62374997;stroke-linecap:butt;stroke-linejoin:miter;stroke-miterlimit:4;stroke-dasharray:none;stroke-opacity:1"
           id="path4309"
           inkscape:connector-curvature="0" />
        <path
           d="m 17.072749,1034.8402 c 6.796875,1.9311 21.581,-0.7739 27.817375,-2.9785"
           style="fill:none;stroke:#7a7778;stroke-width:0.62374997;stroke-linecap:butt;stroke-linejoin:miter;stroke-miterlimit:4;stroke-dasharray:1.24875, 0.52;stroke-dashoffset:0;stroke-opacity:1"
           id="path4311"
           inkscape:connector-curvature="0" />
        <path
           d="m 184.4625,1031.3612 c 7.0075,2.5123 21.29875,5.2905 28.51625,5.2515"
           style="fill:none;stroke:#7a7778;stroke-width:0.62374997;stroke-linecap:butt;stroke-linejoin:miter;stroke-miterlimit:4;stroke-dasharray:1.24875, 0.52;stroke-dashoffset:0;stroke-opacity:1"
           id="path4313"
           inkscape:connector-curvature="0" />
        <path
           d="m 50.776374,1018.9955 c 12.399875,7.5366 28.515625,13.4082 42.879875,14.6851 10.789501,0.9252 22.139621,1.3891 33.000001,1.3891 4.345,0 9.39125,0.3101 13.66375,-0.8862 3.85375,-1.0425 7.63625,-2.9004 11.49,-3.9438 4.625,-1.2369 8.83,-3.2071 13.315,-5.021 1.81875,-0.7349 9.59875,-2.2804 10.2975,-3.9454"
           style="fill:none;stroke:#7a7778;stroke-width:0.62374997;stroke-linecap:butt;stroke-linejoin:miter;stroke-miterlimit:4;stroke-dasharray:none;stroke-opacity:1"
           id="path4315"
           inkscape:connector-curvature="0" />
        <path
           d="m 50.776374,1020.2333 c 12.399875,7.5342 28.515625,13.4473 42.879875,14.6827 10.789501,0.9667 22.139621,1.3915 33.000001,1.3915 4.345,0 9.39125,0.3052 13.66375,-0.852 3.85375,-1.0815 7.63625,-2.9322 11.49,-3.9795 4.625,-1.2363 8.83,-3.208 13.315,-5.022 1.81875,-0.7349 9.59875,-2.2437 10.2975,-3.9404"
           style="fill:none;stroke:#7a7778;stroke-width:0.62374997;stroke-linecap:butt;stroke-linejoin:miter;stroke-miterlimit:4;stroke-dasharray:1.24875, 0.52;stroke-dashoffset:0;stroke-opacity:1"
           id="path4317"
           inkscape:connector-curvature="0" />
        <path
           d="m 71.303749,846.54471 c 10.722625,8.80875 28.939371,11.43625 42.251001,11.43625 3.78262,0 7.35587,-0.34625 11.00087,-0.89 3.71188,-0.57875 6.93563,-2.28 10.51063,-3.08875 1.40125,-0.31125 3.01125,-0.23375 4.2725,-0.65625 1.75125,-0.58125 4.625,-1.81875 6.30625,-2.515 1.7525,-0.69375 3.5725,-1.42875 5.395,-2.24 0.35125,-0.155 3.22125,-1.62125 3.57375,-1.815"
           style="fill:none;stroke:#7a7778;stroke-width:0.62374997;stroke-linecap:butt;stroke-linejoin:miter;stroke-miterlimit:4;stroke-dasharray:none;stroke-opacity:1"
           id="path4319"
           inkscape:connector-curvature="0" />
        <path
           d="m 71.303749,847.70346 c 10.722625,8.80875 28.939371,11.43625 42.251001,11.43625 3.78262,0 7.35587,-0.34625 11.00087,-0.8875 3.71188,-0.58 6.93563,-2.28125 10.51063,-3.0925 1.40125,-0.31 3.01125,-0.2325 4.2725,-0.65625 1.75125,-0.58 4.625,-1.81375 6.30625,-2.51 1.7525,-0.69875 3.5725,-1.43 5.395,-2.24125 0.35125,-0.155 3.22125,-1.62375 3.57375,-1.8175"
           style="fill:none;stroke:#7a7778;stroke-width:0.62374997;stroke-linecap:butt;stroke-linejoin:miter;stroke-miterlimit:4;stroke-dasharray:1.24875, 0.52;stroke-dashoffset:0;stroke-opacity:1"
           id="path4321"
           inkscape:connector-curvature="0" />
        <path
           d="m 67.451124,1027.455 0,-1.852 c 0,-2.1617 -0.139125,-4.5225 -0.28075,-6.6465 l -0.139125,-2.4732 0,-8.7696 c 0,-1.4721 0.07075,-2.8589 0.419875,-4.2114 0.279875,-1.1596 0.349125,-1.1596 1.962875,-1.8163 l 1.120625,-0.4615 0.209,-0.078 c 2.59375,-1.1254 5.6065,-2.39992 8.19925,-4.29342 2.03125,-1.544 2.8725,-3.16512 3.712375,-4.752 l 0.98,-1.73825 c 2.1045,-3.47662 4.065,-6.95312 4.694875,-11.128 0.28075,-2.08487 0.491625,-5.41012 0.5615,-7.4975 3.151875,0 9.599625,-0.0366 12.191376,0.11575 l 1.47312,0.0795 c 4.69238,0.271 9.458,0.5005 14.291,0.5005 0,0 21.65163,0.0781 24.17538,0.0781 0.83875,5.5665 1.89,12.09475 4.6225,17.15337 3.5025,6.4185 9.31875,9.31638 14.50375,11.51855 l 0.42,0.1562 c 0,0 0.77125,0.3468 0.91125,0.4249 0,0.2295 0.07,1.0034 0.07,1.0034 l 0.0713,6.1035 -0.0713,3.1298 c 0,4.3287 -0.14125,8.4254 -0.42,12.1339 l -0.14125,0.8911 -0.14,2.3144"
           style="fill:none;stroke:#7a7778;stroke-width:0.62374997;stroke-linecap:butt;stroke-linejoin:miter;stroke-miterlimit:4;stroke-dasharray:1.30125, 0.52;stroke-dashoffset:0;stroke-opacity:1"
           id="path4323"
           inkscape:connector-curvature="0" />
        <path
           d="m 139.33875,972.47209 c 0.84125,5.48825 2.7325,13.17875 5.395,18.19825 3.36375,6.33887 9.03875,9.19925 14.08375,11.40136 l 0.35,0.1563 0.91,0.4223 1.4725,0.4639"
           style="fill:none;stroke:#7a7778;stroke-width:0.62374997;stroke-linecap:butt;stroke-linejoin:miter;stroke-miterlimit:4;stroke-dasharray:1.24875, 0.52;stroke-dashoffset:0;stroke-opacity:1"
           id="path4325"
           inkscape:connector-curvature="0" />
        <path
           d="m 67.381874,1004.081 c 0,0 1.82225,-0.8497 3.36175,-1.5064 l 1.121625,-0.4639 0.21,-0.078 c 2.521875,-1.1206 5.3955,-2.39499 7.917375,-4.25049 1.963,-1.50625 2.80275,-3.12988 3.642625,-4.71425 l 0.913125,-1.69925 c 2.03125,-3.44 3.991625,-6.9165 4.553125,-11.04988 0.280875,-2.05075 1.120625,-6.49412 1.1915,-8.5425"
           style="fill:none;stroke:#7a7778;stroke-width:0.62374997;stroke-linecap:butt;stroke-linejoin:miter;stroke-miterlimit:4;stroke-dasharray:1.24875, 0.52;stroke-dashoffset:0;stroke-opacity:1"
           id="path4327"
           inkscape:connector-curvature="0" />
        <path
           d="m 66.259749,1026.7226 c 0.140125,-3.1665 -0.21,-7.2641 -0.419875,-10.5079 -0.06937,-2.0116 0,-4.0576 0,-6.0669 0,-2.3975 -0.140125,-4.834 0.419875,-7.1875 0.631375,-2.4365 1.682125,-2.4731 4.13575,-3.51796 2.661125,-1.12063 5.463875,-2.28038 7.915,-4.05525 2.312,-1.69925 2.734375,-3.4765 4.13575,-5.79838 1.9605,-3.1665 3.852625,-6.41112 4.414125,-10.16112 0.419875,-2.9345 0.627375,-8.88663 0.627375,-8.88663 0,0 10.371125,-0.11475 13.874501,0.0781 5.11575,0.2685 10.30037,0.57862 15.41512,0.57862 8.40763,0 17.16763,0.0781 25.50388,0.0781 0.84125,5.67862 1.7525,12.59512 4.555,17.73437 3.015,5.44825 7.8475,8.03463 13.38375,10.39688 2.10125,0.88977 2.45125,0.88977 2.52125,3.20667 0.21,3.0126 0,6.0635 0,9.0795 0,4.1357 -0.13875,7.9981 -0.42,12.0142 0,0.9301 -0.42125,1.8213 -0.28,2.7856"
           style="fill:none;stroke:#7a7778;stroke-width:0.62374997;stroke-linecap:butt;stroke-linejoin:miter;stroke-miterlimit:4;stroke-dasharray:none;stroke-opacity:1"
           id="path4329"
           inkscape:connector-curvature="0" />
        <path
           d="m 105.84712,854.73471 c 0,1.00375 0.83988,1.7775 1.82275,1.7775 0.98,0 1.7515,-0.77375 1.7515,-1.7775 0,-0.96625 -0.7715,-1.77625 -1.7515,-1.77625 -0.98287,0 -1.82275,0.81 -1.82275,1.77625 m 0.70075,0 c 0,-0.6175 0.49075,-1.15875 1.122,-1.15875 0.6285,0 1.12163,0.54125 1.12163,1.15875 0,0.6575 -0.49313,1.15875 -1.12163,1.15875 -0.63125,0 -1.122,-0.50125 -1.122,-1.15875"
           style="fill:#918f90;fill-opacity:1;fill-rule:nonzero;stroke:none"
           id="path4331"
           inkscape:connector-curvature="0" />
        <path
           d="m 117.19875,854.73471 c 0,1.00375 0.84075,1.7775 1.82225,1.7775 0.9815,0 1.7505,-0.77375 1.7505,-1.7775 0,-0.96625 -0.769,-1.77625 -1.7505,-1.77625 -0.9815,0 -1.82225,0.81 -1.82225,1.77625 m 0.63087,0 c 0,-0.6175 0.559,-1.15875 1.19138,-1.15875 0.62887,0 1.12062,0.54125 1.12062,1.15875 0,0.6575 -0.49175,1.15875 -1.12062,1.15875 -0.63238,0 -1.19138,-0.50125 -1.19138,-1.15875"
           style="fill:#918f90;fill-opacity:1;fill-rule:nonzero;stroke:none"
           id="path4333"
           inkscape:connector-curvature="0" />
        <path
           d="m 34.870624,866.24846 c 1.5405,-3.67125 3.012625,-4.51875 4.835375,-5.67875 3.78275,-2.43375 7.63775,-4.67625 11.768625,-6.64625 6.586875,-3.1675 13.033625,-4.90875 19.829125,-7.37875 -1.120625,-2.2425 -0.488375,-5.9525 -0.2075,-7.1875 0.769,-3.245 1.188875,-4.40625 3.784125,-6.3775 3.430125,-2.54875 6.935,-2.43375 10.859375,-0.8875 2.590375,1.005 6.30375,0.73375 8.8965,1.77875 2.102,0.81 4.204125,1.4675 6.306121,2.12375 3.2935,0.96375 6.58688,0.85 10.0195,1.0425 2.45363,0.11625 7.00688,-0.53875 9.53038,-0.34625 2.24212,0.15375 4.90275,-1.08375 7.0765,-1.585 2.38,-0.54125 4.62375,-1.38875 6.655,-2.74375 2.94375,-1.8925 6.86625,-1.81625 10.37,-1.23625 1.96375,0.30875 4.975,0.38625 6.72625,1.5075 1.12125,0.695 2.17125,3.205 2.4525,4.40375 0.63125,2.62875 0.7025,2.5125 0.77125,5.17875 0,1.3525 0.07,3.2075 0.07,4.56 7.6375,0 15.13375,3.36125 21.65125,7.265 3.29125,2.005 6.09375,4.13375 9.8775,5.7575 2.8025,1.1975 3.99375,4.32625 5.815,6.5675 3.08375,-0.345 5.46625,7.38 7.2175,9.66125 5.67625,7.38 7.2875,13.87125 9.95,22.68 2.3125,7.38 5.675,12.905 9.18,19.9 3.29125,6.53125 4.8325,17.92975 5.675,25.07825 0.63,5.10013 0.91,11.13038 0.91,16.19138 0,6.6455 -0.56125,13.17537 -1.8225,19.55075 -0.55875,3.09087 1.12125,8.85012 0.35,11.98 -0.98,3.90137 -1.04875,7.84325 -2.03125,11.66751 -1.05125,3.7476 -1.75,7.5 -1.75,11.399 0,3.4399 -2.315,4.4824 -2.8025,7.8441 -0.4925,3.2105 -0.9825,11.0914 -3.855,13.0225 0,2.4316 0.49,10.896 -1.12125,12.7881 -2.03125,2.4365 -8.8275,1.7407 -11.5625,1.626 -4.8325,-0.2319 -11.56,-1.3135 -15.8325,-3.75 -1.68125,-0.9644 -1.82375,-1.6992 -1.68125,-3.3228 0.34875,-2.666 0.83875,-10.0439 1.68125,-12.5985 -1.9625,-1.9693 -1.82375,-4.6329 -1.82375,-7.5699 0,-3.44 2.1025,-6.5723 2.5225,-9.9301 0.6325,-4.5988 1.2625,-9.1983 1.9625,-13.79791 0.7025,-4.40188 0.21,-9.15775 0.21,-13.64013 0,-5.63975 2.03125,-11.01325 2.03125,-16.61387 0,-4.09663 -0.56125,-8.11513 -0.91,-12.17038 -0.21,-2.20212 -0.70125,-4.44575 -1.4,-6.56975 -0.7025,-2.01175 -1.5425,-4.05762 -2.31375,-6.03037 -0.56,-1.19625 -0.77,-7.6855 -1.54,-8.69375 0.21,6.996 -0.91125,20.59812 -0.91125,27.55362 0.0687,4.40188 -1.40125,8.80863 -1.40125,13.291 -0.0712,5.37013 -0.42,10.70563 -0.56125,16.07425 -0.14,6.14263 -0.27875,12.09479 -1.12125,18.12259 -0.49,3.7867 -0.91,7.3804 -3.36375,10.4322 l -0.42,0.7323 c 0.77125,2.6685 0.21125,5.8008 0.35125,8.54 0.0687,1.7384 0,5.8765 0,5.8765 0,0 -8.83,3.6719 -12.12125,4.9854 -9.03875,3.667 -18.8475,9.0015 -28.6575,9.6191 -13.24213,0.8887 -26.06438,1.5845 -39.167376,0.3858 -6.516125,-0.6152 -12.893,-2.7051 -19.19675,-4.48 -3.225125,-0.8911 -5.955625,-1.8945 -8.96975,-3.2861 -3.152875,-1.5064 -6.726125,-2.3926 -9.73875,-4.1724 -2.382875,-1.355 -7.146,-4.1358 -7.146,-4.1358 0,0 -1.682125,-10.3955 0,-15.6103 -1.543,-1.3525 -1.61375,-3.3618 -2.3135,-4.7924 -0.909125,-2.085 0.06987,-5.7935 -0.56,-7.9981 -0.842375,-3.2447 -1.26225,-6.37454 -1.26225,-9.73879 0,-5.75775 -0.700625,-11.47462 -0.700625,-17.2705 -0.06938,-7.53412 0.1415,-15.18312 -0.13925,-22.68312 -0.27825,-5.10013 -0.209875,-24.84375 -0.209875,-24.84375 0,0 -1.540625,4.55912 -2.312125,6.45262 -1.682125,4.36525 -3.225,13.40575 -4.064875,18.00788 -1.049875,5.52237 -0.349125,11.01075 -0.349125,16.61375 l 0.209,1.3135 c 0,3.75237 0.491625,7.53412 1.1215,11.2475 0.841375,5.05862 1.332125,9.89012 1.543,15.06591 0.06988,2.1265 0.13925,4.2896 0.349125,6.4161 0.139125,2.1289 0.7715,4.1357 1.25975,6.1816 1.26225,4.6363 3.154375,9.9706 2.382875,14.7216 -0.2075,1.5454 -1.46975,2.8199 -1.46975,2.8199 0,0 1.04975,8.8891 1.04975,11.0156 0,1.0034 0.07088,2.0459 -0.06925,3.0127 -0.13925,1.0034 -0.631375,1.1572 -1.400375,1.7383 -5.535625,3.9429 -15.976625,4.0576 -22.631875,3.5547 -0.911625,-0.039 -2.453625,-0.3467 -3.223625,-0.8106 -0.841375,-0.499 -0.631375,-1.4306 -0.631375,-2.434 -0.06837,-1.4698 -0.419875,-2.8614 -0.49075,-4.3663 -0.06925,-1.5444 -0.419875,-7.1499 -0.419875,-8.7319 -0.9815,-1.1596 -2.03125,-1.5479 -2.663625,-3.0542 -1.679637,-3.7109 -3.361775,-7.688 -4.062449,-11.6699 -0.4892625,-2.9346 -1.472175,-5.7593 -2.17285,-8.6158 -0.91065,-3.3251 -1.53955,-6.6845 -2.10205,-10.0463 -0.7006875,-3.90379 0,-7.61229 -0.490725,-11.55516 -0.349125,-2.70263 -1.1181625,-5.40775 -1.0498125,-8.15038 0.419925,-11.7105 -5.04394,-26.625 -1.752925,-38.063 1.684575,-5.87412 2.3828125,-11.55037 4.2041,-17.427 1.472175,-4.55875 1.1206125,-7.72625 3.3642625,-11.47625 2.451174,-3.94125 3.433574,-9.005 5.395449,-13.33125 2.732,-6.18125 6.516125,-11.515 8.058125,-18.1225 1.47075,-5.98875 6.165625,-10.8975 10.93025,-14.9925 l 0.77,-0.735 z"
           style="fill:none;stroke:#7a7778;stroke-width:2.18499994;stroke-linecap:round;stroke-linejoin:round;stroke-miterlimit:4;stroke-dasharray:none;stroke-opacity:1"
           id="path4335"
           inkscape:connector-curvature="0" />
      </g>
      <g
         transform="translate(-1039.8311,219.72913)"
         id="g5626">
        <path
           d="m 1382.3052,625.37925 c -7.7515,0 -13.811,3.36625 -20.3663,7.3225 -3.3397,2.02125 -6.1865,4.16 -9.9365,5.77625 -2.8442,1.225 -4.082,4.3875 -5.9375,6.6375 -3.0922,-0.34125 -5.4418,7.435 -7.2143,9.75375 -5.7324,7.4125 -7.3379,13.98375 -10.0585,22.82625 -2.3097,7.48125 -5.6885,13.02875 -9.2359,20.07625 -3.3399,6.595 -4.9072,18.05488 -5.73,25.26138 -0.6201,5.16112 -0.9082,11.2085 -0.9082,16.34762 0,6.66263 0.5371,13.25488 1.814,19.711 0.6201,3.09175 -1.0718,8.91263 -0.2881,12.07425 0.9473,3.91113 0.9888,7.88763 2.0215,11.75538 1.0302,3.77537 1.7724,7.54825 1.7724,11.47937 0,3.45713 2.2681,4.5045 2.8028,7.91213 0.4956,3.2525 0.9897,11.187 3.8745,13.12012 0,2.4785 -0.4517,10.97904 1.1132,12.8936 2.0615,2.43262 8.9063,1.77245 11.6675,1.63574 4.9048,-0.24902 11.626,-1.34277 15.9985,-3.77441 1.6895,-0.97656 1.8125,-1.72608 1.648,-3.34278 -0.2881,-2.68311 -0.8667,-10.13865 -1.6895,-12.68802 2.0201,-1.9995 1.8125,-4.70413 1.8125,-7.63625 0,-3.4575 -2.0615,-6.63863 -2.5156,-10.02675 -0.6176,-4.63925 -1.2768,-9.25538 -1.9775,-13.91613 -0.7006,-4.435 -0.249,-9.23087 -0.249,-13.71137 0,-5.73 -2.019,-11.13863 -1.9775,-16.80125 0,-4.09175 0.4955,-8.16413 0.9081,-12.2315 0.2051,-2.229 0.6993,-4.47988 1.4014,-6.61613 0.6592,-2.046 1.5244,-4.11675 2.3486,-6.09375 0.4956,-1.18162 0.7423,-7.7325 1.5245,-8.753 -0.1646,7.0245 0.9511,20.75738 0.9096,27.76125 -0.042,4.4595 1.4014,8.88913 1.4404,13.4155 0.043,5.38575 0.4126,10.79888 0.5371,16.2085 0.1637,6.16513 0.2892,12.14113 1.1133,18.23488 0.4942,3.81887 0.9912,7.45662 3.463,10.52787 l 0.3725,0.72513 c -0.7446,2.7075 -0.166,5.84712 -0.3296,8.642 -0.084,1.729 0,5.89112 0,5.89112 0,0 8.8633,3.72613 12.2022,5.04447 9.1113,3.66211 19.0063,9.05126 28.8989,9.70947 13.3594,0.86133 26.3037,1.58935 39.4551,0.36376 6.5575,-0.61522 12.9888,-2.72948 19.3775,-4.52636 3.2163,-0.88379 5.9788,-1.88476 8.99,-3.31934 3.2125,-1.50048 6.8425,-2.38672 9.8925,-4.15875 2.3513,-1.41112 7.1338,-4.207 7.1338,-4.207 0,0 1.7312,-10.46087 0.082,-15.73487 1.5237,-1.36175 1.6062,-3.38813 2.2662,-4.79438 0.9488,-2.11725 -0.041,-5.86425 0.5788,-8.09812 0.8637,-3.2495 1.2762,-6.43075 1.2762,-9.79738 0,-5.82087 0.745,-11.57037 0.745,-17.39312 0,-7.59275 -0.21,-15.32413 0.1188,-22.873 0.25,-5.16113 0.2075,-25.03425 0.2075,-25.03425 0,0 1.565,4.59425 2.31,6.482 1.6925,4.38725 3.255,13.52637 4.1237,18.14212 1.0688,5.59175 0.3275,11.1205 0.2875,16.73575 l -0.2075,1.33988 c 0,3.77487 -0.4537,7.61762 -1.0712,11.32375 -0.8638,5.11475 -1.3188,9.98237 -1.565,15.188 -0.125,2.15812 -0.125,4.36525 -0.33,6.5015 -0.2075,2.13862 -0.7863,4.13912 -1.32,6.21037 -1.2375,4.68063 -3.1763,10.04638 -2.435,14.84375 0.25,1.56738 1.5262,2.86375 1.5262,2.86375 0,0 -1.0712,8.9605 -1.0712,11.07427 0,1.00146 -0.041,2.06835 0.085,3.04491 0.1637,1.00342 0.6575,1.1836 1.4425,1.75294 5.565,3.97656 16.0775,4.06982 22.7575,3.5913 0.9075,-0.0664 2.5112,-0.36133 3.2975,-0.83984 0.8225,-0.50049 0.5787,-1.4331 0.6175,-2.43409 0.043,-1.49901 0.455,-2.88622 0.4962,-4.4121 0.082,-1.54492 0.41,-7.22851 0.41,-8.79839 1.035,-1.17912 2.0213,-1.56787 2.7225,-3.07025 1.6888,-3.75 3.3375,-7.7525 4.04,-11.77587 0.4938,-2.95463 1.485,-5.82038 2.2263,-8.7085 0.9087,-3.31688 1.5262,-6.70663 2.1025,-10.09275 0.7012,-3.91113 0,-7.7105 0.495,-11.64063 0.3687,-2.731 1.1137,-5.459 1.0312,-8.2545 -0.3712,-11.77725 5.1125,-26.80662 1.8138,-38.33487 -1.69,-5.93163 -2.4313,-11.66513 -4.29,-17.57413 -1.44,-4.59125 -1.0713,-7.7525 -3.3788,-11.57375 -2.4312,-3.98 -3.4225,-9.0475 -5.4025,-13.435 -2.7587,-6.2325 -6.5525,-11.57375 -8.1612,-18.23625 -1.4438,-6.04875 -6.1825,-10.9825 -11.0088,-15.12125 l -0.74,-0.7275 c -1.6087,-3.7275 -3.0512,-4.57 -4.905,-5.775 -3.7962,-2.40875 -7.715,-4.68125 -11.8362,-6.66125 -6.6763,-3.20625 -12.905,-5.02375 -19.7038,-7.52375 l -85.7131,0.31625"
           style="fill:#000000;fill-opacity:1;fill-rule:nonzero;stroke:none"
           id="path4916"
           inkscape:connector-curvature="0" />
        <path
           d="m 1382.3052,624.65175 c 0,5.0025 3.3374,12.75625 5.3589,17.3025 1.897,4.3425 4.6582,7.68625 7.0092,11.825 2.5978,4.545 4.7828,9.7525 8.2031,13.79875 7.3389,8.61625 12.8639,9.755 23.667,11.48375 4.9879,0.79375 14.4699,-5.3675 17.2737,-7.5275 1.9787,-1.5225 3.8737,-3.3425 5.5237,-5.13875 2.8863,-3.11375 5.73,-6.32125 8.3288,-9.7075 5.3187,-6.93625 7.67,-14.71 9.6037,-22.9425 0.6588,-2.885 0.6588,-6.455 0.745,-9.4125 0.039,-2.41125 0.1663,-5.66125 -0.125,-6.84125 -0.7837,-3.11625 -1.1575,-4.23125 -3.7937,-6.14125 -3.42,-2.40875 -6.97,-2.31875 -10.9225,-0.81875 -2.5975,0.97875 -6.3925,0.70625 -8.99,1.685 -2.1038,0.795 -4.2063,1.43125 -6.35,2.045 -3.298,0.93125 -6.6354,0.8425 -10.0998,1.0225 -2.4316,0.11375 -7.0899,-0.5225 -9.5654,-0.36375 -2.2681,0.15875 -4.9463,-1.0225 -7.1728,-1.49875 -2.3902,-0.525 -4.4532,-0.56875 -6.7188,-1.435 -4.8242,-1.84 -6.8872,-2.36375 -10.3882,-2.40875 -2.0629,0 -5.0732,0.40875 -6.8042,1.45625 -1.1132,0.68 -3.0517,2.2725 -3.3398,3.4325 -0.6592,2.5 -1.3623,3.205 -1.4014,5.79875 0,1.29625 -0.042,3.09 -0.042,4.38625"
           style="fill:#000000;fill-opacity:1;fill-rule:nonzero;stroke:none"
           id="path4918"
           inkscape:connector-curvature="0" />
        <path
           d="m 1504.4633,645.023 c -2.8862,4.36625 -6.0637,8.93625 -8.1637,13.91625 -2.6813,6.3425 -3.01,13.36875 -3.9163,20.1225 -1.2787,9.20625 -2.6812,23.14375 1.2763,31.89663"
           style="fill:none;stroke:#7a7778;stroke-width:0.64249998;stroke-linecap:butt;stroke-linejoin:miter;stroke-miterlimit:4;stroke-dasharray:none;stroke-opacity:1"
           id="path4920"
           inkscape:connector-curvature="0" />
        <path
           d="m 1346.0649,645.1155 c 3.629,2.6825 9.0699,10.54875 10.8424,14.665 1.1548,2.72875 1.5683,6.2725 1.9384,9.23 0.7007,5.48 1.5259,11.07375 1.7735,16.62 0.2871,8.39125 -1.5674,21.2825 -5.6909,28.7405"
           style="fill:none;stroke:#7a7778;stroke-width:0.64249998;stroke-linecap:butt;stroke-linejoin:miter;stroke-miterlimit:4;stroke-dasharray:none;stroke-opacity:1"
           id="path4922"
           inkscape:connector-curvature="0" />
        <path
           d="m 1523.0133,813.56825 c -6.885,1.95563 -21.7237,-0.7715 -28.035,-2.979"
           style="fill:none;stroke:#7a7778;stroke-width:0.64249998;stroke-linecap:butt;stroke-linejoin:miter;stroke-miterlimit:4;stroke-dasharray:none;stroke-opacity:1"
           id="path4924"
           inkscape:connector-curvature="0" />
        <path
           d="m 1353.6528,810.15713 c -7.0922,2.52487 -21.4404,5.32037 -28.7377,5.27587"
           style="fill:none;stroke:#7a7778;stroke-width:0.64249998;stroke-linecap:butt;stroke-linejoin:miter;stroke-miterlimit:4;stroke-dasharray:none;stroke-opacity:1"
           id="path4926"
           inkscape:connector-curvature="0" />
        <path
           d="m 1522.3958,814.933 c -6.885,1.958 -21.7287,-0.77387 -28.0325,-2.979"
           style="fill:none;stroke:#7a7778;stroke-width:0.64249998;stroke-linecap:butt;stroke-linejoin:miter;stroke-miterlimit:4;stroke-dasharray:1.28625, 0.52;stroke-dashoffset:0;stroke-opacity:1"
           id="path4928"
           inkscape:connector-curvature="0" />
        <path
           d="m 1353.6528,811.4355 c -7.0922,2.543 -21.4404,5.31588 -28.7377,5.2725"
           style="fill:none;stroke:#7a7778;stroke-width:0.64249998;stroke-linecap:butt;stroke-linejoin:miter;stroke-miterlimit:4;stroke-dasharray:1.28625, 0.52;stroke-dashoffset:0;stroke-opacity:1"
           id="path4930"
           inkscape:connector-curvature="0" />
        <path
           d="m 1488.4671,798.94863 c -12.5363,7.61775 -28.7788,13.55225 -43.2913,14.80225 -10.8832,0.9575 -22.3017,1.41112 -33.2295,1.41112 -4.4091,0 -9.4824,0.293 -13.7695,-0.88812 -3.916,-1.06988 -7.7075,-2.92975 -11.626,-3.97713 -4.6582,-1.25237 -8.9052,-3.25187 -13.3569,-5.07125 -1.8555,-0.73 -9.7315,-2.27487 -10.4297,-3.98137"
           style="fill:none;stroke:#7a7778;stroke-width:0.64249998;stroke-linecap:butt;stroke-linejoin:miter;stroke-miterlimit:4;stroke-dasharray:none;stroke-opacity:1"
           id="path4932"
           inkscape:connector-curvature="0" />
        <path
           d="m 1488.4671,800.22063 c -12.5363,7.59762 -28.7788,13.53025 -43.2913,14.80225 -10.8832,0.957 -22.3017,1.38912 -33.2295,1.38912 -4.4091,0 -9.4824,0.31788 -13.7695,-0.86425 -3.916,-1.06875 -7.7075,-2.93212 -11.626,-4.001 -4.6582,-1.25 -8.9052,-3.22987 -13.3569,-5.04637 -1.8555,-0.75188 -9.7315,-2.29738 -10.4297,-4.00138"
           style="fill:none;stroke:#7a7778;stroke-width:0.64249998;stroke-linecap:butt;stroke-linejoin:miter;stroke-miterlimit:4;stroke-dasharray:1.28625, 0.52;stroke-dashoffset:0;stroke-opacity:1"
           id="path4934"
           inkscape:connector-curvature="0" />
        <path
           d="m 1382.2124,625.38175 c -7.3818,0.21625 -13.9418,3.49875 -20.2735,7.32 -3.3397,2.02125 -6.1865,4.16 -9.9365,5.77625 -2.8442,1.225 -4.082,4.3875 -5.9375,6.6375 -3.0922,-0.34125 -5.4418,7.435 -7.2143,9.75375 -5.7324,7.4125 -7.3379,13.98375 -10.0585,22.82625 -2.3097,7.48125 -5.6885,13.02875 -9.2359,20.07625 -3.3399,6.595 -4.9072,18.05488 -5.73,25.26138 -0.6201,5.16112 -0.9082,11.2085 -0.9082,16.34762 0,6.66263 0.5371,13.25488 1.814,19.711 0.6201,3.09175 -1.0718,8.91263 -0.2881,12.07425 0.9473,3.91113 0.9888,7.88763 2.0215,11.75538 1.0302,3.77537 1.7724,7.54825 1.7724,11.47937 0,3.45713 2.2681,4.5045 2.8028,7.91213 0.4956,3.2525 0.9897,11.187 3.8745,13.12012 0,2.4785 -0.4517,10.97904 1.1132,12.8936 2.0615,2.43262 8.9063,1.77245 11.6675,1.63574 4.9048,-0.24902 11.626,-1.34277 15.9985,-3.77441 1.6895,-0.97656 1.8125,-1.72608 1.648,-3.34278 -0.2881,-2.68311 -0.8667,-10.13865 -1.6895,-12.68802 2.0201,-1.9995 1.8125,-4.70413 1.8125,-7.63625 0,-3.4575 -2.0615,-6.63863 -2.5156,-10.02675 -0.6176,-4.63925 -1.2768,-9.25538 -1.9775,-13.91613 -0.7006,-4.435 -0.249,-9.23087 -0.249,-13.71137 0,-5.73 -2.019,-11.13863 -1.9775,-16.80125 0,-4.09175 0.4955,-8.16413 0.9081,-12.2315 0.2051,-2.229 0.6993,-4.47988 1.4014,-6.61613 0.6592,-2.046 1.5244,-4.11675 2.3486,-6.09375 0.4956,-1.18162 0.7423,-7.7325 1.5245,-8.753 -0.1646,7.0245 0.9511,20.75738 0.9096,27.76125 -0.042,4.4595 1.4014,8.88913 1.4404,13.4155 0.043,5.38575 0.4126,10.79888 0.5371,16.2085 0.1637,6.16513 0.2892,12.14113 1.1133,18.23488 0.4942,3.81887 0.9912,7.45662 3.463,10.52787 l 0.3725,0.72513 c -0.7446,2.7075 -0.166,5.84712 -0.3296,8.642 -0.084,1.729 0,5.89112 0,5.89112 0,0 8.8633,3.72613 12.2022,5.04447 9.1113,3.66211 19.0063,9.05126 28.8989,9.70947 13.3594,0.86133 26.3037,1.58935 39.4551,0.36376 6.5575,-0.61522 12.9888,-2.72948 19.3775,-4.52636 3.2163,-0.88379 5.9788,-1.88476 8.99,-3.31934 3.2125,-1.50048 6.8425,-2.38672 9.8925,-4.15875 2.3513,-1.41112 7.1338,-4.207 7.1338,-4.207 0,0 1.7312,-10.46087 0.082,-15.73487 1.5237,-1.36175 1.6062,-3.38813 2.2662,-4.79438 0.9488,-2.11725 -0.041,-5.86425 0.5788,-8.09812 0.8637,-3.2495 1.2762,-6.43075 1.2762,-9.79738 0,-5.82087 0.745,-11.57037 0.745,-17.39312 0,-7.59275 -0.21,-15.32413 0.1188,-22.873 0.25,-5.16113 0.2075,-25.03425 0.2075,-25.03425 0,0 1.565,4.59425 2.31,6.482 1.6925,4.38725 3.255,13.52637 4.1237,18.14212 1.0688,5.59175 0.3275,11.1205 0.2875,16.73575 l -0.2075,1.33988 c 0,3.77487 -0.4537,7.61762 -1.0712,11.32375 -0.8638,5.11475 -1.3188,9.98237 -1.565,15.188 -0.125,2.15812 -0.125,4.36525 -0.33,6.5015 -0.2075,2.13862 -0.7863,4.13912 -1.32,6.21037 -1.2375,4.68063 -3.1763,10.04638 -2.435,14.84375 0.25,1.56738 1.5262,2.86375 1.5262,2.86375 0,0 -1.0712,8.9605 -1.0712,11.07427 0,1.00146 -0.041,2.06835 0.085,3.04491 0.1637,1.00342 0.6575,1.1836 1.4425,1.75294 5.565,3.97656 16.0775,4.06982 22.7575,3.5913 0.9075,-0.0664 2.5112,-0.36133 3.2975,-0.83984 0.8225,-0.50049 0.5787,-1.4331 0.6175,-2.43409 0.043,-1.49901 0.455,-2.88622 0.4962,-4.4121 0.082,-1.54492 0.41,-7.22851 0.41,-8.79839 1.035,-1.17912 2.0213,-1.56787 2.7225,-3.07025 1.6888,-3.75 3.3375,-7.7525 4.04,-11.77587 0.4938,-2.95463 1.485,-5.82038 2.2263,-8.7085 0.9087,-3.31688 1.5262,-6.70663 2.1025,-10.09275 0.7012,-3.91113 0,-7.7105 0.495,-11.64063 0.3687,-2.731 1.1137,-5.459 1.0312,-8.2545 -0.3712,-11.77725 5.1125,-26.80662 1.8138,-38.33487 -1.69,-5.93163 -2.4313,-11.66513 -4.29,-17.57413 -1.44,-4.59125 -1.0713,-7.7525 -3.3788,-11.57375 -2.4312,-3.98 -3.4225,-9.0475 -5.4025,-13.435 -2.7587,-6.2325 -6.5525,-11.57375 -8.1612,-18.23625 -1.4438,-6.04875 -6.1825,-10.9825 -11.0088,-15.12125 l -0.74,-0.7275 c -1.6087,-3.7275 -3.0512,-4.57 -4.905,-5.775 -3.7962,-2.40875 -7.715,-4.68125 -11.8362,-6.66125 -6.6763,-3.20625 -12.905,-5.02375 -19.7038,-7.52375"
           style="fill:none;stroke:#7a7778;stroke-width:2.17374992;stroke-linecap:butt;stroke-linejoin:miter;stroke-miterlimit:4;stroke-dasharray:none;stroke-opacity:1"
           id="path4936"
           inkscape:connector-curvature="0" />
        <path
           d="m 1382.3052,624.65175 c 0,5.0025 3.3374,12.75625 5.3589,17.3025 1.897,4.3425 4.6582,7.68625 7.0092,11.825 2.5978,4.545 4.7828,9.7525 8.2031,13.79875 7.3389,8.61625 12.8639,9.755 23.667,11.48375 4.9879,0.79375 14.4699,-5.3675 17.2737,-7.5275 1.9787,-1.5225 3.8737,-3.3425 5.5237,-5.13875 2.8863,-3.11375 5.73,-6.32125 8.3288,-9.7075 5.3187,-6.93625 7.67,-14.71 9.6037,-22.9425 0.6588,-2.885 0.6588,-6.455 0.745,-9.4125 0.039,-2.41125 0.1663,-5.66125 -0.125,-6.84125 -0.7837,-3.11625 -1.1575,-4.23125 -3.7937,-6.14125 -3.42,-2.40875 -6.97,-2.31875 -10.9225,-0.81875 -2.5975,0.97875 -6.3925,0.70625 -8.99,1.685 -2.1038,0.795 -4.2063,1.43125 -6.35,2.045 -3.298,0.93125 -6.6354,0.8425 -10.0998,1.0225 -2.4316,0.11375 -7.0899,-0.5225 -9.5654,-0.36375 -2.2681,0.15875 -4.9463,-1.0225 -7.1728,-1.49875 -2.3902,-0.525 -4.4532,-0.56875 -6.7188,-1.435 -4.8242,-1.84 -6.8872,-2.36375 -10.3882,-2.40875 -2.0629,0 -5.0732,0.40875 -6.8042,1.45625 -1.1132,0.68 -3.0517,2.2725 -3.3398,3.4325 -0.6592,2.5 -1.3623,3.205 -1.4014,5.79875 0,1.29625 -0.042,3.09 -0.042,4.38625 z"
           style="fill:none;stroke:#7a7778;stroke-width:0.4675;stroke-linecap:butt;stroke-linejoin:miter;stroke-miterlimit:4;stroke-dasharray:none;stroke-opacity:1"
           id="path4938"
           inkscape:connector-curvature="0" />
        <g
           transform="matrix(0.49977508,0,0,0.49977508,997.11359,754.14687)"
           style="font-style:normal;font-variant:normal;font-weight:bold;font-stretch:normal;font-size:25px;line-height:125%;font-family:Comfortaa;-inkscape-font-specification:'Comfortaa Bold';letter-spacing:0px;word-spacing:0px;fill:#ffffff;fill-opacity:1;stroke:none;stroke-width:1px;stroke-linecap:butt;stroke-linejoin:miter;stroke-opacity:1"
           id="text4509">
          <path
             inkscape:connector-curvature="0"
             d="m 280.97911,-136.5086 q -3.78418,0 -6.92749,1.31226 -3.11279,1.31225 -5.76782,3.96728 -2.65503,2.65503 -3.96729,5.76782 -1.28174,3.1128 -1.28174,6.89698 0,7.44629 5.24903,12.69531 5.24902,5.24902 12.69531,5.24902 7.44629,0 12.69531,-5.24902 5.24903,-5.24902 5.24903,-12.69531 0,-7.41577 -5.24903,-12.6648 -5.27954,-5.27954 -12.69531,-5.27954 z m 24.41406,17.94434 q 0,10.10132 -7.17163,17.27295 -7.14111,7.14111 -17.24243,7.14111 -10.13184,0 -17.27295,-7.14111 -7.14111,-7.14112 -7.14111,-17.27295 0,-10.10132 7.14111,-17.24243 7.17163,-7.17163 17.27295,-7.17163 10.0708,0 17.24243,7.17163 3.60108,3.60107 5.3711,7.87353 1.80053,4.27246 1.80053,9.3689 z"
             style="font-size:62.5px"
             id="path5224" />
          <path
             inkscape:connector-curvature="0"
             d="m 318.75987,-97.385063 q 0,1.342773 -0.94604,2.288818 -0.94605,0.946045 -2.28882,0.946045 -1.34277,0 -2.28882,-0.946045 -0.94604,-0.946045 -0.94604,-2.288818 l 0,-42.358397 q 0,-1.34278 0.94604,-2.28882 0.94605,-0.94604 2.28882,-0.94604 1.34277,0 2.28882,0.94604 0.94604,0.94604 0.94604,2.28882 l 0,42.358397 z"
             style="font-size:62.5px"
             id="path5226" />
          <path
             inkscape:connector-curvature="0"
             d="m 330.32603,-95.096245 q -0.94604,0.946045 -2.28881,0.946045 -1.34278,0 -2.28882,-0.915527 -0.94605,-0.946045 -0.94605,-2.288819 0,-1.159668 0.70191,-2.044677 l 14.92309,-19.165037 -15.01465,-19.28711 q -0.57983,-0.82398 -0.57983,-1.89209 0,-1.34278 0.94605,-2.28882 0.94604,-0.94604 2.28881,-0.94604 1.46485,0 2.28882,0.94604 l 14.19068,18.18848 14.19067,-18.18848 q 0.85449,-0.94604 2.28882,-0.94604 1.34277,0 2.2583,0.94604 0.94604,0.94604 0.94604,2.28882 0,1.06811 -0.57983,1.89209 l -14.98413,19.28711 14.92309,19.165037 q 0.67139,0.885009 0.67139,2.044677 0,1.342774 -0.94604,2.288819 -0.91553,0.915527 -2.2583,0.915527 -1.61744,0 -2.53296,-1.159668 l -13.97705,-17.974852 -14.2212,18.188475 z"
             style="font-size:62.5px"
             id="path5228" />
        </g>
        <text
           xml:space="preserve"
           style="font-style:normal;font-weight:normal;font-size:18.85581398px;line-height:125%;font-family:Sans;letter-spacing:0px;word-spacing:0px;fill:#000000;fill-opacity:1;stroke:none"
           x="1124.4072"
           y="860.39478"
           id="text3864"
           sodipodi:linespacing="125%"><tspan
             sodipodi:role="line"
             id="tspan3866"
             x="1124.4072"
             y="860.39478">Depan</tspan></text>
        <text
           xml:space="preserve"
           style="font-style:normal;font-weight:normal;font-size:18.85581398px;line-height:125%;font-family:Sans;letter-spacing:0px;word-spacing:0px;fill:#000000;fill-opacity:1;stroke:none"
           x="1396.9548"
           y="860.68481"
           id="text3868"
           sodipodi:linespacing="125%"><tspan
             sodipodi:role="line"
             id="tspan3870"
             x="1396.9548"
             y="860.68481">Belakang</tspan></text>
      </g>
    </g>
  </g>
</svg>
