<?xml version="1.0" encoding="UTF-8" standalone="no"?>
<!-- Created with Inkscape (http://www.inkscape.org/) -->

<svg
   xmlns:dc="http://purl.org/dc/elements/1.1/"
   xmlns:cc="http://creativecommons.org/ns#"
   xmlns:rdf="http://www.w3.org/1999/02/22-rdf-syntax-ns#"
   xmlns:svg="http://www.w3.org/2000/svg"
   xmlns="http://www.w3.org/2000/svg"
   xmlns:xlink="http://www.w3.org/1999/xlink"
   xmlns:sodipodi="http://sodipodi.sourceforge.net/DTD/sodipodi-0.dtd"
   xmlns:inkscape="http://www.inkscape.org/namespaces/inkscape"
   width="500"
   height="300"
   id="svg2"
   version="1.1"
   inkscape:version="0.91 r13725"
   sodipodi:docname="intro.svg"
   inkscape:export-filename="/home/cho2/Gambar/xecure-branding/non-xecure/libreoffice/intro.png"
   inkscape:export-xdpi="90"
   inkscape:export-ydpi="90">
  <defs
     id="defs4">
    <linearGradient
       inkscape:collect="always"
       xlink:href="#linearGradient7874"
       id="linearGradient9776"
       gradientUnits="userSpaceOnUse"
       x1="160.1048"
       y1="2012.542"
       x2="160.76947"
       y2="1972.8456" />
    <linearGradient
       inkscape:collect="always"
       id="linearGradient7874">
      <stop
         style="stop-color:#333333;stop-opacity:1"
         offset="0"
         id="stop7876" />
      <stop
         style="stop-color:#e6e6e6;stop-opacity:1"
         offset="1"
         id="stop7878" />
    </linearGradient>
    <filter
       color-interpolation-filters="sRGB"
       inkscape:menu-tooltip="Adds a colorizable drop shadow inside"
       inkscape:menu="Shadows and Glows"
       inkscape:label="Inner Shadow Libre"
       id="filter4195-6-9-5">
      <feGaussianBlur
         result="result8"
         stdDeviation="1"
         id="feGaussianBlur4197-5-0-8" />
      <feOffset
         result="result11"
         dy="1"
         dx="1"
         id="feOffset4199-2-0-2" />
      <feComposite
         operator="in"
         in="SourceGraphic"
         result="result6"
         in2="result11"
         id="feComposite4201-6-3-54" />
      <feFlood
         flood-color="rgb(16,104,2)"
         flood-opacity="1"
         in="result6"
         result="result10"
         id="feFlood4203-5-0-2" />
      <feBlend
         result="result12"
         in="result6"
         mode="normal"
         in2="result10"
         id="feBlend4205-8-6-7" />
      <feComposite
         operator="in"
         result="result2"
         in2="SourceGraphic"
         id="feComposite4207-7-8-99" />
    </filter>
    <linearGradient
       inkscape:collect="always"
       xlink:href="#linearGradient4274-3-3-9"
       id="linearGradient9764"
       gradientUnits="userSpaceOnUse"
       x1="158.4942"
       y1="2022.2076"
       x2="158.4942"
       y2="1982.2323" />
    <linearGradient
       id="linearGradient4274-3-3-9">
      <stop
         id="stop4276-8-6-0"
         offset="0"
         style="stop-color:#333333;stop-opacity:1" />
      <stop
         id="stop4278-0-0-7"
         offset="1"
         style="stop-color:#808080;stop-opacity:1" />
    </linearGradient>
    <filter
       id="filter4026-4-0-4"
       inkscape:label="Inner Shadow Rest"
       inkscape:menu="Shadows and Glows"
       inkscape:menu-tooltip="Adds a colorizable drop shadow inside"
       color-interpolation-filters="sRGB">
      <feGaussianBlur
         id="feGaussianBlur4028-7-2-0"
         stdDeviation="1"
         result="result8" />
      <feOffset
         id="feOffset4030-6-8-3"
         dx="1"
         dy="1"
         result="result11" />
      <feComposite
         id="feComposite4032-8-3-8"
         in2="result11"
         result="result6"
         in="SourceGraphic"
         operator="in" />
      <feFlood
         id="feFlood4034-9-5-1"
         result="result10"
         in="result6"
         flood-opacity="1"
         flood-color="rgb(51,51,51)" />
      <feBlend
         id="feBlend4036-0-9-8"
         in2="result10"
         mode="normal"
         in="result6"
         result="result12" />
      <feComposite
         id="feComposite4038-6-0-1"
         in2="SourceGraphic"
         result="result2"
         operator="in" />
    </filter>
    <linearGradient
       id="linearGradient4677">
      <stop
         id="stop4679"
         offset="0"
         style="stop-color:#333333;stop-opacity:1" />
      <stop
         id="stop4681"
         offset="1"
         style="stop-color:#808080;stop-opacity:1" />
    </linearGradient>
    <linearGradient
       id="linearGradient4684">
      <stop
         id="stop4686"
         offset="0"
         style="stop-color:#333333;stop-opacity:1" />
      <stop
         id="stop4688"
         offset="1"
         style="stop-color:#808080;stop-opacity:1" />
    </linearGradient>
    <linearGradient
       id="linearGradient4691">
      <stop
         id="stop4693"
         offset="0"
         style="stop-color:#333333;stop-opacity:1" />
      <stop
         id="stop4695"
         offset="1"
         style="stop-color:#808080;stop-opacity:1" />
    </linearGradient>
    <linearGradient
       id="linearGradient4698">
      <stop
         id="stop4700"
         offset="0"
         style="stop-color:#333333;stop-opacity:1" />
      <stop
         id="stop4702"
         offset="1"
         style="stop-color:#808080;stop-opacity:1" />
    </linearGradient>
    <linearGradient
       id="linearGradient4705">
      <stop
         id="stop4707"
         offset="0"
         style="stop-color:#333333;stop-opacity:1" />
      <stop
         id="stop4709"
         offset="1"
         style="stop-color:#808080;stop-opacity:1" />
    </linearGradient>
    <linearGradient
       inkscape:collect="always"
       xlink:href="#linearGradient4274-3-3-9"
       id="linearGradient9762"
       gradientUnits="userSpaceOnUse"
       x1="158.4942"
       y1="2022.2076"
       x2="158.4942"
       y2="1982.2323" />
    <linearGradient
       id="linearGradient4712">
      <stop
         id="stop4714"
         offset="0"
         style="stop-color:#333333;stop-opacity:1" />
      <stop
         id="stop4716"
         offset="1"
         style="stop-color:#808080;stop-opacity:1" />
    </linearGradient>
    <linearGradient
       inkscape:collect="always"
       xlink:href="#linearGradient4274-3-3-9"
       id="linearGradient3274"
       gradientUnits="userSpaceOnUse"
       x1="158.4942"
       y1="2022.2076"
       x2="158.4942"
       y2="1982.2323" />
    <linearGradient
       inkscape:collect="always"
       xlink:href="#linearGradient7874"
       id="linearGradient3286"
       gradientUnits="userSpaceOnUse"
       x1="160.1048"
       y1="2012.542"
       x2="160.76947"
       y2="1972.8456" />
    <linearGradient
       inkscape:collect="always"
       xlink:href="#linearGradient7704"
       id="linearGradient4790"
       gradientUnits="userSpaceOnUse"
       gradientTransform="matrix(0.70537666,0,0,0.70537666,1113.753,12.197603)"
       x1="1839.4878"
       y1="1135.6997"
       x2="1799.0818"
       y2="1094.0309" />
    <linearGradient
       inkscape:collect="always"
       id="linearGradient7704">
      <stop
         style="stop-color:#0066ff;stop-opacity:1;"
         offset="0"
         id="stop7706" />
      <stop
         style="stop-color:#0066ff;stop-opacity:0;"
         offset="1"
         id="stop7708" />
    </linearGradient>
    <linearGradient
       y2="1046.1001"
       x2="47.999954"
       y1="962.62189"
       x1="47.999954"
       gradientTransform="matrix(1.15,0,0,1.15,-7.1999462,-150.65291)"
       gradientUnits="userSpaceOnUse"
       id="linearGradient3886"
       xlink:href="#linearGradient3795"
       inkscape:collect="always" />
    <linearGradient
       id="linearGradient3795">
      <stop
         style="stop-color:#13a6fd;stop-opacity:1;"
         offset="0"
         id="stop3797" />
      <stop
         style="stop-color:#2975b6;stop-opacity:1;"
         offset="1"
         id="stop3799" />
    </linearGradient>
    <linearGradient
       id="outerBackgroundGradient">
      <stop
         id="stop3864-8-6"
         offset="0"
         style="stop-color:#7469b3;stop-opacity:1;" />
      <stop
         id="stop3866-9-1"
         offset="1"
         style="stop-color:#a6afe2;stop-opacity:1;" />
    </linearGradient>
    <linearGradient
       gradientTransform="matrix(0.06666667,0,0,0.06666667,414.4,137.33333)"
       y2="40.00005"
       x2="264"
       y1="280.00003"
       x1="264"
       gradientUnits="userSpaceOnUse"
       id="linearGradient4097"
       xlink:href="#outerBackgroundGradient"
       inkscape:collect="always" />
    <linearGradient
       y2="28.571428"
       x2="286.85715"
       y1="302.85715"
       x1="286.85715"
       gradientTransform="matrix(0.0875,0,0,0.0875,414.9,97.5)"
       gradientUnits="userSpaceOnUse"
       id="linearGradient4101"
       xlink:href="#outerBackgroundGradient"
       inkscape:collect="always" />
    <linearGradient
       y2="31.61907"
       x2="283.80957"
       y1="299.80954"
       x1="283.80957"
       gradientTransform="matrix(0.11931818,0,0,0.11931818,414.13636,48.22727)"
       gradientUnits="userSpaceOnUse"
       id="linearGradient4153"
       xlink:href="#outerBackgroundGradient"
       inkscape:collect="always" />
    <linearGradient
       y2="22.857315"
       x2="281.14291"
       y1="297.14304"
       x1="281.14291"
       gradientTransform="matrix(0.175,0,0,-0.175,286.79999,-215.99997)"
       gradientUnits="userSpaceOnUse"
       id="linearGradient4869"
       xlink:href="#outerBackgroundGradient"
       inkscape:collect="always" />
    <clipPath
       id="clipPath4891"
       clipPathUnits="userSpaceOnUse">
      <rect
         transform="matrix(0,1,-1,0,0,0)"
         style="color:#bebebe;fill:url(#linearGradient4895);fill-opacity:1;fill-rule:nonzero;stroke:none;stroke-width:0;marker:none;visibility:visible;display:inline;overflow:visible;enable-background:accumulate"
         id="rect4893"
         width="42"
         height="42"
         x="307"
         y="223"
         ry="9" />
    </clipPath>
    <linearGradient
       y2="40.000172"
       x2="144.00006"
       y1="280.00018"
       x1="144.00006"
       gradientTransform="matrix(0.175,0,0,0.175,302.79999,215.99997)"
       gradientUnits="userSpaceOnUse"
       id="linearGradient4895"
       xlink:href="#outerBackgroundGradient"
       inkscape:collect="always" />
    <clipPath
       id="clipPath4044"
       clipPathUnits="userSpaceOnUse">
      <rect
         style="color:#bebebe;fill:url(#linearGradient4048);fill-opacity:1;fill-rule:nonzero;stroke:none;stroke-width:0;marker:none;visibility:visible;display:inline;overflow:visible;enable-background:accumulate"
         id="rect4046"
         width="22"
         height="22"
         x="433"
         y="85"
         ry="4" />
    </clipPath>
    <linearGradient
       y2="40.000046"
       x2="149.71428"
       y1="291.42862"
       x1="149.71428"
       gradientTransform="matrix(0.0875,0,0,0.0875,430.9,81.499996)"
       gradientUnits="userSpaceOnUse"
       id="linearGradient4048"
       xlink:href="#outerBackgroundGradient"
       inkscape:collect="always" />
    <clipPath
       id="clipPath4089"
       clipPathUnits="userSpaceOnUse">
      <rect
         ry="6"
         y="37"
         x="433"
         height="30"
         width="30"
         id="rect4091"
         style="color:#bebebe;fill:url(#linearGradient4093);fill-opacity:1;fill-rule:nonzero;stroke:none;stroke-width:0;marker:none;visibility:visible;display:inline;overflow:visible;enable-background:accumulate" />
    </clipPath>
    <linearGradient
       y2="40.00005"
       x2="149.71432"
       y1="291.42862"
       x1="149.71432"
       gradientTransform="matrix(0.11931818,0,0,0.11931818,430.13636,32.227267)"
       gradientUnits="userSpaceOnUse"
       id="linearGradient4093"
       xlink:href="#outerBackgroundGradient"
       inkscape:collect="always" />
    <clipPath
       id="clipPath3855"
       clipPathUnits="userSpaceOnUse">
      <rect
         transform="matrix(0,1,-1,0,0,0)"
         ry="3"
         y="212"
         x="304"
         height="16"
         width="16"
         id="rect3857"
         style="color:#bebebe;fill:url(#linearGradient3859);fill-opacity:1;fill-rule:nonzero;stroke:none;stroke-width:0;marker:none;visibility:visible;display:inline;overflow:visible;enable-background:accumulate" />
    </clipPath>
    <linearGradient
       y2="40.00005"
       x2="144"
       y1="280.00003"
       x1="144"
       gradientTransform="matrix(0.06666667,0,0,0.06666667,302.4,209.33333)"
       gradientUnits="userSpaceOnUse"
       id="linearGradient3859"
       xlink:href="#outerBackgroundGradient"
       inkscape:collect="always" />
    <clipPath
       id="clipPath3862"
       clipPathUnits="userSpaceOnUse">
      <rect
         style="color:#bebebe;fill:url(#linearGradient3866);fill-opacity:1;fill-rule:nonzero;stroke:none;stroke-width:0;marker:none;visibility:visible;display:inline;overflow:visible;enable-background:accumulate"
         id="rect3864"
         width="220"
         height="220"
         x="34"
         y="46"
         ry="50" />
    </clipPath>
    <linearGradient
       y2="40"
       x2="144"
       y1="280"
       x1="144"
       gradientTransform="translate(0,-4)"
       gradientUnits="userSpaceOnUse"
       id="linearGradient3866"
       xlink:href="#outerBackgroundGradient"
       inkscape:collect="always" />
    <linearGradient
       y2="32"
       x2="272"
       y1="288"
       x1="272"
       gradientTransform="translate(0,-4)"
       gradientUnits="userSpaceOnUse"
       id="linearGradient3876"
       xlink:href="#outerBackgroundGradient"
       inkscape:collect="always" />
    <clipPath
       id="clipPath4187"
       clipPathUnits="userSpaceOnUse">
      <rect
         style="color:#bebebe;fill:url(#linearGradient4191);fill-opacity:1;fill-rule:nonzero;stroke:none;stroke-width:0;marker:none;visibility:visible;display:inline;overflow:visible;enable-background:accumulate"
         id="rect4189"
         width="60"
         height="60"
         x="290"
         y="142"
         ry="12.5" />
    </clipPath>
    <linearGradient
       y2="140"
       x2="352"
       y1="204"
       x1="352"
       gradientUnits="userSpaceOnUse"
       id="linearGradient4191"
       xlink:href="#outerBackgroundGradient"
       inkscape:collect="always" />
    <linearGradient
       y2="28"
       x2="384"
       y1="124"
       x1="384"
       gradientUnits="userSpaceOnUse"
       id="linearGradient4197"
       xlink:href="#outerBackgroundGradient"
       inkscape:collect="always" />
    <clipPath
       id="clipPath4346"
       clipPathUnits="userSpaceOnUse">
      <rect
         ry="18"
         y="32"
         x="292"
         height="88"
         width="88"
         id="rect4348"
         style="color:#bebebe;fill:url(#linearGradient4197);fill-opacity:1;fill-rule:nonzero;stroke:none;stroke-width:0;marker:none;visibility:visible;display:inline;overflow:visible;enable-background:accumulate" />
    </clipPath>
    <clipPath
       id="clipPath3871"
       clipPathUnits="userSpaceOnUse">
      <rect
         style="color:#bebebe;fill:url(#linearGradient4101);fill-opacity:1;fill-rule:nonzero;stroke:none;stroke-width:0;marker:none;visibility:visible;display:inline;overflow:visible;enable-background:accumulate"
         id="rect3873"
         width="22"
         height="22"
         x="417"
         y="101"
         ry="5" />
    </clipPath>
    <clipPath
       id="clipPath3881"
       clipPathUnits="userSpaceOnUse">
      <rect
         ry="7"
         y="53"
         x="417"
         height="30"
         width="30"
         id="rect3883"
         style="color:#bebebe;fill:url(#linearGradient4153);fill-opacity:1;fill-rule:nonzero;stroke:none;stroke-width:0;marker:none;visibility:visible;display:inline;overflow:visible;enable-background:accumulate" />
    </clipPath>
    <linearGradient
       gradientTransform="matrix(0,-1,1,0,316,540)"
       gradientUnits="userSpaceOnUse"
       y2="112"
       x2="438"
       y1="112"
       x1="418"
       id="linearGradient4258"
       xlink:href="#outerBackgroundGradient"
       inkscape:collect="always" />
    <linearGradient
       y2="32"
       x2="272"
       y1="288"
       x1="272"
       gradientTransform="translate(0,-4)"
       gradientUnits="userSpaceOnUse"
       id="linearGradient3876-3"
       xlink:href="#outerBackgroundGradient-1"
       inkscape:collect="always" />
    <linearGradient
       id="outerBackgroundGradient-1">
      <stop
         id="stop3864-8-6-9"
         offset="0"
         style="stop-color:#772953;stop-opacity:1;" />
      <stop
         id="stop3866-9-1-0"
         offset="1"
         style="stop-color:#9e4374;stop-opacity:1;" />
    </linearGradient>
    <linearGradient
       y2="32"
       x2="272"
       y1="288"
       x1="272"
       gradientTransform="translate(0,-4)"
       gradientUnits="userSpaceOnUse"
       id="linearGradient3876-0"
       xlink:href="#outerBackgroundGradient-7"
       inkscape:collect="always" />
    <linearGradient
       id="outerBackgroundGradient-7">
      <stop
         id="stop3864-8-6-97"
         offset="0"
         style="stop-color:#002e65;stop-opacity:1;" />
      <stop
         id="stop3866-9-1-8"
         offset="1"
         style="stop-color:#3c608c;stop-opacity:1;" />
    </linearGradient>
    <linearGradient
       y2="32"
       x2="272"
       y1="288"
       x1="272"
       gradientTransform="translate(0,-4)"
       gradientUnits="userSpaceOnUse"
       id="linearGradient3876-2"
       xlink:href="#outerBackgroundGradient-12"
       inkscape:collect="always" />
    <linearGradient
       id="outerBackgroundGradient-12">
      <stop
         id="stop3864-8-6-6"
         offset="0"
         style="stop-color:#71c129;stop-opacity:1;" />
      <stop
         id="stop3866-9-1-87"
         offset="1"
         style="stop-color:#9df02a;stop-opacity:1;" />
    </linearGradient>
    <linearGradient
       y2="32"
       x2="272"
       y1="288"
       x1="272"
       gradientTransform="translate(0,-4)"
       gradientUnits="userSpaceOnUse"
       id="linearGradient3876-4"
       xlink:href="#outerBackgroundGradient-3"
       inkscape:collect="always" />
    <linearGradient
       id="outerBackgroundGradient-3">
      <stop
         id="stop3864-8-6-4"
         offset="0"
         style="stop-color:#e7e7e7;stop-opacity:1;" />
      <stop
         id="stop3866-9-1-6"
         offset="1"
         style="stop-color:#ffffff;stop-opacity:1;" />
    </linearGradient>
    <linearGradient
       y2="32"
       x2="272"
       y1="288"
       x1="272"
       gradientTransform="translate(0,-4)"
       gradientUnits="userSpaceOnUse"
       id="linearGradient3876-9"
       xlink:href="#outerBackgroundGradient-6"
       inkscape:collect="always" />
    <linearGradient
       id="outerBackgroundGradient-6">
      <stop
         id="stop3864-8-6-68"
         offset="0"
         style="stop-color:#87039b;stop-opacity:1;" />
      <stop
         id="stop3866-9-1-2"
         offset="1"
         style="stop-color:#ca49de;stop-opacity:1;" />
    </linearGradient>
    <linearGradient
       y2="32"
       x2="272"
       y1="288"
       x1="272"
       gradientTransform="translate(0,-4)"
       gradientUnits="userSpaceOnUse"
       id="linearGradient3876-46"
       xlink:href="#outerBackgroundGradient-8"
       inkscape:collect="always" />
    <linearGradient
       id="outerBackgroundGradient-8">
      <stop
         id="stop3864-8-6-8"
         offset="0"
         style="stop-color:#179e03;stop-opacity:1;" />
      <stop
         id="stop3866-9-1-89"
         offset="1"
         style="stop-color:#45d630;stop-opacity:1;" />
    </linearGradient>
    <linearGradient
       y2="32"
       x2="272"
       y1="288"
       x1="272"
       gradientTransform="translate(0,-4)"
       gradientUnits="userSpaceOnUse"
       id="linearGradient3876-08"
       xlink:href="#outerBackgroundGradient-37"
       inkscape:collect="always" />
    <linearGradient
       id="outerBackgroundGradient-37">
      <stop
         id="stop3864-8-6-63"
         offset="0"
         style="stop-color:#c29600;stop-opacity:1;" />
      <stop
         id="stop3866-9-1-9"
         offset="1"
         style="stop-color:#ecc53f;stop-opacity:1;" />
    </linearGradient>
    <linearGradient
       y2="32"
       x2="272"
       y1="288"
       x1="272"
       gradientTransform="translate(0,-4)"
       gradientUnits="userSpaceOnUse"
       id="linearGradient3876-7"
       xlink:href="#outerBackgroundGradient-9"
       inkscape:collect="always" />
    <linearGradient
       id="outerBackgroundGradient-9">
      <stop
         id="stop3864-8-6-5"
         offset="0"
         style="stop-color:#9c3b03;stop-opacity:1;" />
      <stop
         id="stop3866-9-1-5"
         offset="1"
         style="stop-color:#db6d2e;stop-opacity:1;" />
    </linearGradient>
    <linearGradient
       y2="32"
       x2="272"
       y1="288"
       x1="272"
       gradientTransform="translate(0,-4)"
       gradientUnits="userSpaceOnUse"
       id="linearGradient3876-8"
       xlink:href="#outerBackgroundGradient-2"
       inkscape:collect="always" />
    <linearGradient
       id="outerBackgroundGradient-2">
      <stop
         id="stop3864-8-6-2"
         offset="0"
         style="stop-color:#5f5f5f;stop-opacity:1;" />
      <stop
         id="stop3866-9-1-51"
         offset="1"
         style="stop-color:#878787;stop-opacity:1;" />
    </linearGradient>
    <filter
       inkscape:collect="always"
       style="color-interpolation-filters:sRGB"
       id="filter5939"
       x="-0.073852167"
       width="1.1477042"
       y="-0.050523501"
       height="1.101047">
      <feGaussianBlur
         inkscape:collect="always"
         stdDeviation="4.3487304"
         id="feGaussianBlur5941" />
    </filter>
    <filter
       inkscape:collect="always"
       style="color-interpolation-filters:sRGB"
       id="filter5945"
       x="-0.10779443"
       width="1.2155889"
       y="-0.04156895"
       height="1.0831379">
      <feGaussianBlur
         inkscape:collect="always"
         stdDeviation="5.9928571"
         id="feGaussianBlur5947" />
    </filter>
    <filter
       inkscape:collect="always"
       style="color-interpolation-filters:sRGB"
       id="filter5839"
       x="-0.14770433"
       width="1.2954087"
       y="-0.101047"
       height="1.202094">
      <feGaussianBlur
         inkscape:collect="always"
         stdDeviation="8.6974607"
         id="feGaussianBlur5841" />
    </filter>
    <filter
       inkscape:collect="always"
       style="color-interpolation-filters:sRGB"
       id="filter5959"
       x="-0.14534044"
       width="1.2906809"
       y="-0.037802987"
       height="1.075606">
      <feGaussianBlur
         inkscape:collect="always"
         stdDeviation="4.0660714"
         id="feGaussianBlur5961" />
    </filter>
    <filter
       inkscape:collect="always"
       style="color-interpolation-filters:sRGB"
       id="filter5965"
       x="-0.14230436"
       width="1.2846087"
       y="-0.038013939"
       height="1.0760279">
      <feGaussianBlur
         inkscape:collect="always"
         stdDeviation="3.8964285"
         id="feGaussianBlur5967" />
    </filter>
    <filter
       inkscape:collect="always"
       style="color-interpolation-filters:sRGB"
       id="filter5971"
       x="-0.083396822"
       width="1.1667936"
       y="-0.046854936"
       height="1.0937099">
      <feGaussianBlur
         inkscape:collect="always"
         stdDeviation="4.6910714"
         id="feGaussianBlur5973" />
    </filter>
  </defs>
  <sodipodi:namedview
     id="base"
     pagecolor="#ffffff"
     bordercolor="#666666"
     borderopacity="1.0"
     inkscape:pageopacity="0.0"
     inkscape:pageshadow="2"
     inkscape:zoom="1.1065104"
     inkscape:cx="248.12395"
     inkscape:cy="154.10219"
     inkscape:document-units="px"
     inkscape:current-layer="layer1"
     showgrid="false"
     inkscape:window-width="1366"
     inkscape:window-height="713"
     inkscape:window-x="0"
     inkscape:window-y="27"
     inkscape:window-maximized="1"
     showguides="true"
     inkscape:guide-bbox="true">
    <sodipodi:guide
       orientation="1,0"
       position="0,513.78988"
       id="guide3004" />
    <sodipodi:guide
       orientation="0,1"
       position="-157.20437,0"
       id="guide3006" />
    <sodipodi:guide
       orientation="1,0"
       position="500,278.62237"
       id="guide3008" />
    <sodipodi:guide
       orientation="0,1"
       position="-146.97969,300"
       id="guide3010" />
    <sodipodi:guide
       orientation="1,0"
       position="250,467.77884"
       id="guide3023" />
    <sodipodi:guide
       orientation="0,1"
       position="-176.37563,150"
       id="guide3025" />
    <sodipodi:guide
       orientation="0,1"
       position="-92.66111,65"
       id="guide3162" />
  </sodipodi:namedview>
  <metadata
     id="metadata7">
    <rdf:RDF>
      <cc:Work
         rdf:about="">
        <dc:format>image/svg+xml</dc:format>
        <dc:type
           rdf:resource="http://purl.org/dc/dcmitype/StillImage" />
        <dc:title />
      </cc:Work>
    </rdf:RDF>
  </metadata>
  <g
     inkscape:groupmode="layer"
     id="layer2"
     inkscape:label="Layer 2"
     sodipodi:insensitive="true">
    <g
       style="display:inline;fill:#065094;fill-opacity:1"
       transform="matrix(0.7903828,0,0,0.71125368,-1626.0137,-380.9706)"
       id="g4690">
      <rect
         style="fill:#065094;fill-opacity:1;fill-rule:evenodd;stroke:none"
         id="rect4692"
         width="632.60486"
         height="421.79044"
         x="2057.2483"
         y="535.63251" />
    </g>
    <path
       inkscape:connector-curvature="0"
       id="path4694"
       d="m 373.44352,302.25882 126.63386,0"
       style="display:inline;fill:none;fill-rule:evenodd;stroke:#000000;stroke-width:0.89178765px;stroke-linecap:butt;stroke-linejoin:miter;stroke-opacity:1" />
    <path
       style="display:inline;fill:#000000;fill-opacity:1;fill-rule:evenodd;stroke:none;stroke-width:1px;stroke-linecap:butt;stroke-linejoin:miter;stroke-opacity:1;filter:url(#filter5971)"
       d="m 300.42857,710.36217 135,240.28576 -90.97825,-240.28576 z"
       id="path4696"
       inkscape:connector-curvature="0"
       transform="matrix(0.89178767,0,0,0.89178767,53.29176,-639.79197)" />
    <path
       inkscape:connector-curvature="0"
       id="path4698"
       d="M 321.21025,-6.2997358 441.6016,207.98414 360.46831,-6.2997358 Z"
       style="display:inline;fill:#33b5ef;fill-opacity:1;fill-rule:evenodd;stroke:none;stroke-width:1px;stroke-linecap:butt;stroke-linejoin:miter;stroke-opacity:1" />
    <path
       style="display:inline;fill:#000000;fill-opacity:1;fill-rule:evenodd;stroke:none;stroke-width:1px;stroke-linecap:butt;stroke-linejoin:miter;stroke-opacity:1;filter:url(#filter5965)"
       d="M 344.71429,710.36217 410.42857,956.36213 397.28572,710.36217 Z"
       id="path4700"
       inkscape:connector-curvature="0"
       transform="matrix(0.89178767,0,0,0.89178767,53.29176,-639.79197)" />
    <path
       inkscape:connector-curvature="0"
       id="path4702"
       d="M 360.70371,-6.2997358 419.30689,213.07999 407.58627,-6.2997358 Z"
       style="display:inline;fill:#1264a8;fill-opacity:1;fill-rule:evenodd;stroke:none;stroke-width:1px;stroke-linecap:butt;stroke-linejoin:miter;stroke-opacity:1" />
    <path
       style="display:inline;fill:#000000;fill-opacity:1;fill-rule:evenodd;stroke:none;stroke-width:1px;stroke-linecap:butt;stroke-linejoin:miter;stroke-opacity:1;filter:url(#filter5959)"
       d="m 394,710.36217 1.52597,258.14286 65.61688,-258.14286 -66.37986,0"
       id="path4704"
       inkscape:connector-curvature="0"
       transform="matrix(0.89178767,0,0,0.89178767,53.29176,-639.79197)" />
    <path
       inkscape:connector-curvature="0"
       id="path4706"
       d="m 404.65609,-6.2997358 1.36085,230.2086158 58.51632,-230.2086158 -59.19674,0"
       style="display:inline;fill:#0c498c;fill-opacity:1;fill-rule:evenodd;stroke:none;stroke-width:1px;stroke-linecap:butt;stroke-linejoin:miter;stroke-opacity:1" />
    <path
       inkscape:connector-curvature="0"
       id="path4708"
       d="m 500.07738,302.25882 0,-308.5585558 -38.09207,0 -80.89787,308.5585558 z"
       style="display:inline;fill:#9f384d;fill-opacity:1;fill-rule:evenodd;stroke:none;stroke-width:1px;stroke-linecap:butt;stroke-linejoin:miter;stroke-opacity:1" />
    <path
       style="display:inline;fill:#3d323d;fill-opacity:1;fill-rule:evenodd;stroke:none;stroke-width:1px;stroke-linecap:butt;stroke-linejoin:miter;stroke-opacity:1;filter:url(#filter5839)"
       d="M 501,1056.3621 501,849.78597 359.67777,1056.3621"
       id="path4710"
       inkscape:connector-curvature="0"
       transform="matrix(0.89178767,0,0,0.89178767,53.29176,-639.79197)" />
    <path
       inkscape:connector-curvature="0"
       id="path4712"
       d="m 501,1056.3621 0,-345.99993 -42.71428,0 -90.71429,345.99993 z"
       style="display:inline;fill:#000000;fill-opacity:1;fill-rule:evenodd;stroke:none;stroke-width:1px;stroke-linecap:butt;stroke-linejoin:miter;stroke-opacity:1;filter:url(#filter5945)"
       transform="matrix(0.89178767,0,0,0.89178767,53.29176,-639.79197)" />
    <path
       style="display:inline;fill:#0d5d9a;fill-opacity:1;fill-rule:evenodd;stroke:none;stroke-width:1px;stroke-linecap:butt;stroke-linejoin:miter;stroke-opacity:1"
       d="m 500.07738,302.25882 0,-308.5585558 -38.09207,0 -80.89787,308.5585558 z"
       id="path4714"
       inkscape:connector-curvature="0" />
    <path
       style="display:inline;fill:#000000;fill-opacity:1;fill-rule:evenodd;stroke:none;stroke-width:1px;stroke-linecap:butt;stroke-linejoin:miter;stroke-opacity:1;filter:url(#filter5939)"
       d="M 501,1056.3621 501,849.78597 359.67777,1056.3621"
       id="path4716"
       inkscape:connector-curvature="0"
       transform="matrix(0.89178767,0,0,0.89178767,53.29176,-639.79197)" />
    <path
       inkscape:connector-curvature="0"
       id="path4718"
       d="m 500.07738,302.25882 0,-184.22213 -126.02943,184.22213"
       style="display:inline;fill:#0f7ad1;fill-opacity:1;fill-rule:evenodd;stroke:none;stroke-width:1px;stroke-linecap:butt;stroke-linejoin:miter;stroke-opacity:1" />
  </g>
  <g
     inkscape:label="Layer 1"
     inkscape:groupmode="layer"
     id="layer1"
     transform="translate(0,-752.36218)">
    <text
       xml:space="preserve"
       style="font-style:normal;font-weight:normal;font-size:40px;line-height:125%;font-family:Sans;letter-spacing:0px;word-spacing:0px;fill:#000000;fill-opacity:1;stroke:none"
       x="31.40625"
       y="943.57214"
       id="text3118"
       sodipodi:linespacing="125%"><tspan
         sodipodi:role="line"
         id="tspan3120"
         x="31.40625"
         y="943.57214"
         style="font-style:normal;font-variant:normal;font-weight:bold;font-stretch:normal;font-family:'Open Sans';-inkscape-font-specification:'Open Sans Bold'"><tspan
           style="font-style:normal;font-variant:normal;font-weight:bold;font-stretch:normal;font-family:'Open Sans';-inkscape-font-specification:'Open Sans Bold';fill:#e7e8e8;fill-opacity:1"
           id="tspan3122">Libre</tspan><tspan
           style="font-style:normal;font-variant:normal;font-weight:normal;font-stretch:normal;font-family:'Open Sans';-inkscape-font-specification:'Open Sans Bold';fill:#b2b3b7;fill-opacity:1"
           id="tspan3126">Office</tspan></tspan></text>
    <path
       sodipodi:nodetypes="ssssssccsccssc"
       inkscape:connector-curvature="0"
       style="color:#000000;display:inline;overflow:visible;visibility:visible;fill:#ffffff;fill-opacity:1;fill-rule:nonzero;stroke:none;stroke-width:20;marker:none;enable-background:new"
       d="m 39.374998,805.23684 c -2.423747,0 -4.374998,1.95125 -4.374998,4.375 l 0,78.75001 c 0,2.42375 1.951251,4.375 4.374998,4.375 l 61.250012,0 c 2.42375,0 4.37499,-1.95125 4.37499,-4.375 l 0,-61.9336 -21.191403,-21.19141 z m 47.441409,0 18.183593,18.1836 0,-13.8086 c 0,-2.42375 -1.95124,-4.375 -4.37499,-4.375 z"
       id="path4266" />
    <g
       transform="matrix(0.19965906,0,0,0.19965906,314.26194,639.81092)"
       id="g6104"
       style="display:inline;stroke:#ffffff">
      <path
         inkscape:export-ydpi="285.01001"
         inkscape:export-xdpi="285.01001"
         inkscape:export-filename="/home/mdamt/rect4269.png"
         inkscape:connector-curvature="0"
         id="path6106"
         d="m 551.87134,647.57538 c 0,11.40027 -9.24174,20.64202 -20.64204,20.64202 -11.40026,0 -20.642,-9.24175 -20.642,-20.64202 0,-11.40027 9.24174,-20.64202 20.642,-20.64202 11.4003,0 20.64204,9.24175 20.64204,20.64202 z"
         style="fill:none;stroke:#ffffff;stroke-width:10.60067558;stroke-miterlimit:4;stroke-dasharray:none" />
      <path
         inkscape:export-ydpi="285.01001"
         inkscape:export-xdpi="285.01001"
         inkscape:connector-curvature="0"
         id="path6108"
         d="m 561.12004,626.61142 0.48451,0 0,44.30357 -0.48451,0 z"
         style="fill:#000000;fill-opacity:0;stroke:#ffffff;stroke-width:8.62159538;stroke-linecap:round;stroke-linejoin:round;stroke-miterlimit:4;stroke-opacity:1" />
      <g
         style="fill:#ffffff;stroke:#ffffff"
         id="g6110">
        <path
           d="m 613.18495,626.7424 -8.64546,0 0,16.27379 c 0.11299,3e-5 0.64981,3e-5 1.61045,0 0.96065,-0.0565 1.86468,-0.0848 2.71234,-0.0848 0.90403,-0.0565 2.11891,-0.14123 3.64462,-0.25427 1.5822,-0.16949 2.79707,-0.339 3.64461,-0.50856 0.90415,-0.22599 1.92118,-0.56503 3.05142,-1.01712 1.18651,-0.45201 2.06241,-0.98882 2.62748,-1.61042 1.4691,-1.46913 2.20376,-3.27733 2.20376,-5.4246 0,-3.61635 -2.03428,-5.90485 -6.10272,-6.8655 -1.35611,-0.339 -2.93831,-0.50852 -4.7465,-0.50856 m 0.59331,22.88503 -9.23877,0.50855 0,17.03662 8.30649,0 c 3.67286,10e-6 6.24385,-0.1695 7.71306,-0.50854 1.5256,-0.33903 2.82532,-0.70633 3.89896,-1.10188 1.07352,-0.45204 1.92117,-0.96059 2.54273,-1.52567 1.58221,-1.35613 2.37325,-3.10782 2.37325,-5.25508 0,-2.82529 -1.41272,-5.05728 -4.23793,-6.69599 -2.76882,-1.63865 -6.55479,-2.458 -11.35779,-2.45801 m -19.66417,-31.70001 21.18988,0 c 5.53755,6e-5 9.83208,0.93242 12.88339,2.79707 2.99481,1.80825 5.00073,3.84247 6.01798,6.10266 0.96053,2.2038 1.41261,4.23802 1.35611,6.10268 0,1.86475 -0.50857,3.78596 -1.52571,5.76364 -0.96064,1.92124 -2.23201,3.53167 -3.8141,4.83128 4.5769,1.86473 7.57171,5.22685 8.98443,10.08636 0.39546,1.52569 0.59331,3.0231 0.59331,4.49224 0,1.41267 -0.16948,2.82534 -0.50857,4.23798 -0.33908,1.41266 -1.10188,3.02309 -2.2885,4.83127 -1.13014,1.7517 -2.59924,3.33389 -4.40742,4.74654 -1.8083,1.35614 -4.35104,2.51452 -7.62832,3.47513 -3.22091,0.90409 -6.92213,1.35614 -11.10357,1.35614 l -19.74891,0 0,-58.82299"
           style="font-style:normal;font-weight:bold;font-size:75.31466675px;line-height:125%;font-family:Sans;-inkscape-font-specification:'Sans Bold';letter-spacing:0px;word-spacing:0px;fill:#ffffff;stroke:#ffffff"
           id="path6112"
           inkscape:connector-curvature="0" />
        <path
           d="m 661.60117,637.76111 c 5.31156,-1.80816 10.19941,-2.71226 14.66344,-2.71229 4.5204,3e-5 8.05203,0.39558 10.59488,1.18662 2.59923,0.79113 4.54865,1.92126 5.84838,3.39038 2.42975,2.65583 3.64462,6.1027 3.64462,10.34064 l 0,26.78395 -7.62832,0 -1.10189,-2.7123 c -3.72947,2.37326 -7.9109,3.5599 -12.54441,3.5599 -6.4417,0 -11.30118,-1.83646 -14.57859,-5.50936 -1.75169,-2.03422 -2.62748,-4.18145 -2.62748,-6.44171 0,-2.09072 0.28248,-3.84241 0.84755,-5.25508 0.56506,-1.46915 1.49746,-2.65577 2.79707,-3.5599 1.29962,-0.96058 2.68409,-1.72341 4.15319,-2.2885 1.46922,-0.62155 3.39039,-1.0736 5.76364,-1.35615 3.84246,-0.45202 8.75845,-0.67805 14.74818,-0.67807 l 0,-0.59332 c -1.1e-4,-3.72938 -1.52571,-6.10264 -4.57701,-7.11979 -1.41272,-0.45201 -3.50349,-0.67804 -6.27221,-0.67807 -2.76883,3e-5 -6.58305,0.59335 -11.44254,1.77994 l -1.61045,0.50856 -2.11891,-8.22165 1.44086,-0.4238 m 24.58026,28.39439 0,-5.93316 -1.01714,0 c -6.21571,2e-5 -10.5385,0.25429 -12.96824,0.76283 -2.37325,0.50857 -3.55988,1.75171 -3.55988,3.72942 0,1.29965 0.7628,2.31676 2.28851,3.05133 1.5822,0.73459 3.87071,1.10188 6.86552,1.10188 2.99481,0 5.79189,-0.9041 8.39123,-2.7123"
           style="font-style:normal;font-weight:bold;font-size:75.31466675px;line-height:125%;font-family:Sans;-inkscape-font-specification:'Sans Bold';letter-spacing:0px;word-spacing:0px;fill:#ffffff;stroke:#ffffff"
           id="path6114"
           inkscape:connector-curvature="0" />
        <path
           d="m 700.49172,635.8964 7.11975,0 1.35611,2.79707 c 5.31157,-2.42974 10.11467,-3.64462 14.4091,-3.64465 7.00675,3e-5 11.52728,2.59932 13.56155,7.79785 1.01703,2.59932 1.55384,5.84842 1.61034,9.74733 l 0,24.15641 -10.2558,0 0,-23.9869 c -1.1e-4,-2.88178 -0.62167,-4.94426 -1.86467,-6.18742 -1.29974,-1.35613 -3.36226,-2.03419 -6.18747,-2.03423 -2.76883,4e-5 -5.96148,0.76287 -9.57786,2.2885 l 0,29.92005 -10.17105,0 0,-40.85401"
           style="font-style:normal;font-weight:bold;font-size:75.31466675px;line-height:125%;font-family:Sans;-inkscape-font-specification:'Sans Bold';letter-spacing:0px;word-spacing:0px;fill:#ffffff;stroke:#ffffff"
           id="path6116"
           inkscape:connector-curvature="0" />
        <path
           d="m 753.07741,652.25496 17.63,-17.20614 12.20534,0 -20.17274,18.73181 20.85079,22.96978 -12.54442,0 -17.96897,-20.34224 0,20.34224 -10.17116,0 0,-58.82299 10.17116,0 0,34.32754"
           style="font-style:normal;font-weight:bold;font-size:75.31466675px;line-height:125%;font-family:Sans;-inkscape-font-specification:'Sans Bold';letter-spacing:0px;word-spacing:0px;fill:#ffffff;stroke:#ffffff"
           id="path6118"
           inkscape:connector-curvature="0" />
        <path
           d="m 810.74543,621.83572 c 5.42455,6e-5 10.31229,1.18669 14.66332,3.5599 4.35092,2.3168 7.7978,5.73542 10.34066,10.25587 2.59922,4.52054 3.89884,9.71911 3.89895,15.59573 -1.1e-4,9.04101 -2.76894,16.41507 -8.30648,22.12219 -5.48117,5.65063 -12.45968,8.47592 -20.93554,8.47592 -7.51533,0 -14.09837,-2.45801 -19.74891,-7.37405 -2.71233,-2.37325 -4.88785,-5.50934 -6.52643,-9.40829 -1.63871,-3.89891 -2.45811,-8.24989 -2.45811,-13.05294 0,-9.04096 2.74058,-16.33025 8.22174,-21.86791 5.53755,-5.53756 12.48781,-8.30636 20.8508,-8.30642 m 6.18735,10.76443 c -2.14727,-0.79103 -4.35092,-1.18658 -6.61118,-1.18662 -2.20376,4e-5 -4.35103,0.39559 -6.44169,1.18662 -2.09078,0.79114 -4.01196,1.94952 -5.76365,3.47514 -1.75169,1.52572 -3.1644,3.58819 -4.23804,6.18743 -1.01703,2.59933 -1.5256,5.5659 -1.5256,8.89973 0,6.38523 1.77994,11.5273 5.33982,15.4262 3.55988,3.84244 7.99565,5.76365 13.30721,5.76364 4.57702,10e-6 8.61721,-1.58216 12.12059,-4.74652 1.75169,-1.58216 3.1643,-3.7294 4.23793,-6.44171 1.07364,-2.71227 1.61045,-5.79186 1.61045,-9.23877 0,-3.50335 -0.56506,-6.6112 -1.69519,-9.32353 -1.07363,-2.71226 -2.54285,-4.85949 -4.40741,-6.44171 -1.8083,-1.58213 -3.78597,-2.76876 -5.93324,-3.5599"
           style="font-style:normal;font-weight:bold;font-size:75.31466675px;line-height:125%;font-family:Sans;-inkscape-font-specification:'Sans Bold';letter-spacing:0px;word-spacing:0px;fill:#ffffff;stroke:#ffffff"
           id="path6120"
           inkscape:connector-curvature="0" />
        <path
           d="m 842.37038,635.8964 7.11986,0 1.35611,2.79707 c 5.31156,-2.42974 10.11454,-3.64462 14.40911,-3.64465 7.00676,3e-5 11.52726,2.59932 13.56141,7.79785 1.01717,2.59932 1.55395,5.84842 1.61045,9.74733 l 0,24.15641 -10.25589,0 0,-23.9869 c 0,-2.88178 -0.62155,-4.94426 -1.8647,-6.18742 -1.2996,-1.35613 -3.36212,-2.03419 -6.18735,-2.03423 -2.76881,4e-5 -5.96147,0.76287 -9.57784,2.2885 l 0,29.92005 -10.17116,0 0,-40.85401"
           style="font-style:normal;font-weight:bold;font-size:75.31466675px;line-height:125%;font-family:Sans;-inkscape-font-specification:'Sans Bold';letter-spacing:0px;word-spacing:0px;fill:#ffffff;stroke:#ffffff"
           id="path6122"
           inkscape:connector-curvature="0" />
        <rect
           style="fill:#ffffff;stroke:#ffffff"
           id="rect6124"
           width="11.269748"
           height="59.154606"
           x="643.2619"
           y="617.88428"
           ry="1.3444229" />
      </g>
    </g>
  </g>
</svg>
